<?xml version="1.0" encoding="UTF-8"?>
<svg width="800" height="400" style="fill-rule:evenodd" version="1.1" viewBox="0 0 640 320" xmlns="http://www.w3.org/2000/svg" xmlns:xlink="http://www.w3.org/1999/xlink">
  <title>ASP.NET</title>
  <defs>
    <linearGradient id="linearGradient3832">
      <stop style="stop-color:#ffffff;stop-opacity:.10769" offset="0"/>
      <stop style="stop-color:#ffffff;stop-opacity:0" offset="1"/>
    </linearGradient>
    <linearGradient id="linearGradient3830" x1="481.52" x2="481.52" y1="600.69" y2="800.16" gradientTransform="matrix(1.5555 0 0 1.6142 -110.23 -970.17)" gradientUnits="userSpaceOnUse">
      <stop style="stop-color:#106bbd" offset="0"/>
      <stop style="stop-color:#193a94" offset="1"/>
    </linearGradient>
    <linearGradient id="linearGradient3838" x1="461.6" x2="461.6" y1="758.53" y2="798.97" gradientUnits="userSpaceOnUse" xlink:href="#linearGradient3832"/>
  </defs>
  <path d="m0.0022742 11.627h640v308.37h-640v-308.37z" style="fill:#c5c7c9"/>
  <path d="m0.0022742-0.0023441h640v320.01h-640v-320.01z" style="fill:url(#linearGradient3830)"/>
  <path d="m44.555 102.42v-47.264h8.7807l10.422 33.466c0.96438 3.1125 1.6721 5.4456 2.103 6.998 0.50241-1.7172 1.2817-4.2479 2.3487-7.5828l10.546-32.881h7.8457v47.264h-5.6198v-39.561l-12.801 39.561h-5.2636l-12.739-40.232v40.232h-5.6216zm51.993-40.583v-6.6807h5.4176v6.6807h-5.4176zm0 40.583v-34.235h5.4176v34.235h-5.4176zm35.682-12.545 5.3119 0.74816c-0.57397 3.9291-2.0594 7.0104-4.4595 9.2332-2.3923 2.2227-5.3352 3.3349-8.821 3.3349-4.3615 0-7.8799-1.5306-10.524-4.5902-2.6583-3.0596-3.9913-7.4491-3.9913-13.172 0-3.6973 0.57552-6.9326 1.7126-9.706 1.1495-2.7734 2.8823-4.853 5.2217-6.2405 2.327-1.3859 4.8717-2.0781 7.6093-2.0781 3.4686 0 6.3105 0.94417 8.5052 2.8278 2.2041 1.8821 3.6226 4.5435 4.2464 8.0106l-5.2621 0.86949c-0.50241-2.3005-1.3859-4.0271-2.6567-5.1952-1.2724-1.1542-2.8107-1.739-4.6166-1.739-2.7267 0-4.9448 1.0468-6.648 3.1482-1.7017 2.0905-2.5525 5.4036-2.5525 9.9362 0 4.601 0.82128 7.9452 2.4716 10.036 1.641 2.0812 3.786 3.1265 6.4318 3.1265 2.1248 0 3.8886-0.70462 5.3134-2.1014 1.4248-1.3984 2.3285-3.5449 2.708-6.4489zm11.093 12.545v-34.235h4.8639v5.1843c1.2397-2.4218 2.3892-4.0271 3.4453-4.7986 1.0468-0.76994 2.2056-1.165 3.4671-1.165 1.8276 0 3.6724 0.62686 5.5592 1.8697l-1.8665 5.3928c-1.3128-0.84771-2.6349-1.2661-3.9586-1.2661-1.1915 0-2.2476 0.38576-3.1887 1.1433-0.94572 0.77151-1.6114 1.8277-2.0128 3.1825-0.60507 2.0563-0.90217 4.3117-0.90217 6.7662v17.927h-5.4067zm19.742-17.122c0-6.3385 1.6425-11.037 4.9354-14.086 2.7376-2.5307 6.0834-3.8062 10.031-3.8062 4.391 0 7.981 1.5399 10.761 4.6322 2.7905 3.0813 4.1764 7.3402 4.1764 12.775 0 4.4144-0.61752 7.8799-1.8479 10.4-1.2304 2.5307-3.0269 4.4906-5.3756 5.8874-2.3596 1.3984-4.923 2.0921-7.7135 2.0921-4.4626 0-8.0728-1.5306-10.832-4.6119-2.7594-3.0689-4.1344-7.4942-4.1344-13.282zm5.5592 0c0 4.391 0.89282 7.6699 2.6785 9.8491 1.7841 2.1901 4.0317 3.2789 6.7289 3.2789 2.6878 0 4.9246-1.0997 6.7102-3.2913 1.7748-2.1901 2.6676-5.5343 2.6676-10.023 0-4.237-0.89283-7.4506-2.6894-9.6298-1.7965-2.1792-4.0208-3.268-6.6884-3.268-2.6972 0-4.9448 1.0888-6.7289 3.2571-1.7857 2.1683-2.6785 5.4472-2.6785 9.8274zm29.734 6.9 5.3445-0.90372c0.29866 2.3005 1.1386 4.0613 2.5136 5.2932 1.3641 1.2226 3.2804 1.8385 5.7552 1.8385 2.481 0 4.3288-0.55063 5.5281-1.627 1.2008-1.0904 1.8043-2.3674 1.8043-3.8202 0-1.3206-0.53352-2.3441-1.599-3.1031-0.7404-0.51797-2.5867-1.1666-5.5296-1.9583-3.9586-1.0795-6.718-2.0034-8.247-2.7952-1.529-0.78084-2.6972-1.8712-3.4873-3.2587-0.79017-1.3859-1.1899-2.9149-1.1899-4.587 0-1.5306 0.3282-2.9398 0.98461-4.2386 0.64708-1.3081 1.5383-2.3861 2.6567-3.2447 0.83995-0.66107 1.991-1.2335 3.436-1.6954 1.4559-0.46197 3.016-0.69219 4.6772-0.69219 2.5043 0 4.699 0.3951 6.5951 1.165 1.8992 0.77151 3.2944 1.8168 4.1982 3.1374 0.90216 1.3299 1.5166 3.0907 1.8541 5.3041l-5.2823 0.78083c-0.24577-1.7623-0.94261-3.1358-2.0905-4.1266-1.1495-0.99082-2.7796-1.487-4.8841-1.487-2.4825 0-4.2573 0.44019-5.315 1.3206-1.0655 0.88194-1.5974 1.9148-1.5974 3.0938 0 0.75906 0.22399 1.4295 0.66574 2.0345 0.44175 0.62684 1.1277 1.1339 2.0719 1.5523 0.54286 0.20844 2.1341 0.70462 4.7799 1.4746 3.8264 1.1013 6.4924 1.9926 8.0012 2.6972 1.5181 0.69218 2.7096 1.7172 3.5698 3.0471 0.86171 1.3315 1.2926 2.9818 1.2926 4.9634 0 1.9365-0.53353 3.7533-1.5788 5.469-1.0577 1.7063-2.5758 3.0254-4.5559 3.9617-1.9785 0.93638-4.2262 1.3984-6.7289 1.3984-4.1546 0-7.3137-0.92549-9.4883-2.7734-2.1745-1.8494-3.5573-4.5901-4.1546-8.2206zm32.122-6.9c0-6.3385 1.6426-11.037 4.9354-14.086 2.7376-2.5307 6.0834-3.8062 10.031-3.8062 4.391 0 7.981 1.5399 10.762 4.6322 2.7889 3.0813 4.1748 7.3402 4.1748 12.775 0 4.4144-0.6175 7.8799-1.8479 10.4-1.2304 2.5307-3.0269 4.4906-5.3756 5.8874-2.3596 1.3984-4.923 2.0921-7.7135 2.0921-4.4626 0-8.0728-1.5306-10.832-4.6119-2.7578-3.0689-4.1344-7.4942-4.1344-13.282zm5.5592 0c0 4.391 0.89284 7.6699 2.6785 9.8491 1.7841 2.1901 4.0317 3.2789 6.7289 3.2789 2.6878 0 4.9246-1.0997 6.7102-3.2913 1.7748-2.1901 2.6676-5.5343 2.6676-10.023 0-4.237-0.89284-7.4506-2.6894-9.6298-1.7965-2.1792-4.0208-3.268-6.6884-3.268-2.6972 0-4.9448 1.0888-6.7289 3.2571-1.7856 2.1683-2.6785 5.4472-2.6785 9.8274zm33.181 17.122v-29.723h-4.769v-4.5124h4.769v-3.6413c0-2.3005 0.19443-4.0162 0.57553-5.1283 0.52106-1.5072 1.4341-2.7283 2.7485-3.6646 1.3144-0.93483 3.1482-1.3968 5.5172-1.3968 1.5197 0 3.2011 0.18666 5.0474 0.58329l-0.80883 5.0615c-1.1199-0.22088-2.1854-0.32977-3.1918-0.32977-1.641 0-2.7998 0.37331-3.4764 1.1339-0.68751 0.74662-1.0266 2.1574-1.0266 4.2246v3.1576h6.2156v4.5124h-6.2156v29.723h-5.385zm28.83-5.1952 0.77929 5.1299c-1.5181 0.34065-2.8838 0.51641-4.0815 0.51641-1.9708 0-3.4889-0.32975-4.5761-1.0002-1.0779-0.66106-1.8354-1.5414-2.2772-2.6303-0.44019-1.0795-0.66729-3.3676-0.66729-6.8456v-19.698h-3.9695v-4.5124h3.9695v-8.4834l5.385-3.478v11.961h5.4378v4.5124h-5.4378v20.019c0 1.6612 0.0933 2.7174 0.27843 3.1902 0.19443 0.47286 0.50241 0.84772 0.93171 1.1324 0.43085 0.27532 1.0468 0.41842 1.8479 0.41842 0.60507 0 1.3952-0.0763 2.3798-0.23176z" style="fill:#ffffff;stroke-width:.88183;stroke:#ffffff"/>
  <path d="m116.92 226.89h-39.572l-5.4456 20.518h-35.489l42.243-124.3h37.872l42.266 124.3h-36.352l-5.5218-20.518zm-7.2764-26.888-12.431-44.683-12.353 44.683h24.785zm35.001 6.2809 33.056-2.285c0.70618 5.9309 2.173 10.446 4.3693 13.571 3.562 5.0366 8.6903 7.5253 15.338 7.5253 4.9463 0 8.7665-1.2739 11.464-3.8497 2.6692-2.5758 4.0037-5.5561 4.0037-8.9423 0-3.212-1.2568-6.1067-3.8218-8.653-2.5649-2.5478-8.4788-4.9495-17.796-7.2064-15.233-3.7906-26.096-8.7976-32.585-15.079-6.5438-6.2794-9.8149-14.267-9.8149-23.991 0-6.396 1.6768-12.444 5.0257-18.116 3.3504-5.6712 8.3745-10.129 15.102-13.399 6.7258-3.2416 15.939-4.8639 27.637-4.8639 14.368 0 25.334 2.9538 32.871 8.8567 7.5393 5.9029 12.014 15.31 13.453 28.188l-32.742 2.1139c-0.86328-5.5856-2.694-9.6671-5.4939-12.213-2.7749-2.5183-6.6231-3.7922-11.517-3.7922-4.0582 0-7.0929 0.92706-9.1352 2.8372-2.0407 1.8805-3.0627 4.195-3.0627 6.9171 0 1.9676 0.83995 3.7315 2.5152 5.3243 1.6472 1.6488 5.5219 3.1545 11.671 4.5715 15.181 3.6195 26.043 7.2935 32.612 10.999s11.359 8.2766 14.341 13.777c2.9849 5.469 4.503 11.604 4.503 18.406 0 7.9592-2.0159 15.309-5.9947 22.024-3.9788 6.7413-9.552 11.837-16.723 15.309-7.1473 3.4733-16.175 5.2092-27.063 5.2092-19.106 0-32.349-4.0519-39.703-12.213-7.3806-8.1319-11.54-18.463-12.51-31.023zm100.12-83.175h57.735c12.562 0 21.985 3.2991 28.239 9.9269 6.256 6.5982 9.3965 16.032 9.3965 28.216 0 12.562-3.4033 22.372-10.233 29.434-6.83 7.0602-17.248 10.591-31.251 10.591h-19v46.132h-34.887v-124.3zm34.887 52.99h8.5052c6.6993 0 11.386-1.2724 14.108-3.8482 2.694-2.5758 4.0551-5.8765 4.0551-9.8693 0-3.9073-1.1775-7.2344-3.534-9.9269-2.3285-2.7205-6.7522-4.08-13.243-4.08h-9.8911v27.724z" style="fill:#ffffff;stroke-width:1.1023;stroke:#ffffff"/>
  <path d="m354.06 245.91v-105.85h14.134v15.04c6.83-11.636 16.67-17.454 29.522-17.454 5.6058 0 10.734 1.1557 15.416 3.436 4.7099 2.3145 8.2003 5.3088 10.526 9.0496 2.3565 3.7098 3.9648 8.1319 4.9199 13.235 0.56618 3.3364 0.86483 9.1538 0.86483 17.457v65.089h-15.744v-64.41c0-7.2811-0.59729-12.759-1.8183-16.401-1.2242-3.6071-3.3987-6.4971-6.5018-8.6421-3.1296-2.1776-6.7678-3.2664-10.974-3.2664-6.7087 0-12.462 2.4514-17.356 7.2811-4.8592 4.8654-7.2748 14.052-7.2748 27.629v57.808h-15.715zm162.99-34.094 16.25 2.2803c-2.5649 10.854-7.3028 19.258-14.223 25.247-6.9482 5.9543-15.803 8.9485-26.569 8.9485-13.567 0-24.33-4.7628-32.263-14.291-7.9608-9.5256-11.929-22.898-11.929-40.114 0-17.83 4.0271-31.644 12.047-41.478 8.0526-9.832 18.459-14.766 31.28-14.766 12.405 0 22.545 4.8312 30.387 14.459 7.8721 9.6298 11.807 23.206 11.807 40.66 0 1.0888-0.0296 2.6894-0.0902 4.7986h-69.179c0.56618 11.636 3.4578 20.551 8.6468 26.71 5.189 6.1922 11.63 9.2892 19.382 9.2892 5.7552 0 10.675-1.7359 14.761-5.2061 4.0862-3.4376 7.306-8.9485 9.6905-16.538zm-51.616-29.022h51.795c-0.68596-8.8816-2.6847-15.586-5.934-20.008-5.0086-6.9078-11.509-10.378-19.471-10.378-7.2173 0-13.299 2.7563-18.221 8.2688-4.9199 5.511-7.6342 12.895-8.1692 22.117zm121.96 47.056 2.2663 15.856c-4.4128 1.0546-8.3792 1.5975-11.868 1.5975-5.7256 0-10.138-1.0204-13.299-3.0954-3.1311-2.0423-5.3368-4.7628-6.6185-8.1319-1.2832-3.3349-1.9381-10.412-1.9381-21.163v-60.905h-50.146v-13.951h50.146v-26.233l15.654-10.751v36.984h15.803v13.951h-15.803v61.891c0 5.1376 0.26754 8.4057 0.80417 9.8678 0.56774 1.4637 1.4621 2.6209 2.7143 3.506 1.2522 0.84928 3.0425 1.2926 5.3663 1.2926 1.7608 0 4.0566-0.23798 6.9186-0.7155z" style="fill-rule:nonzero;fill:#ffffff;stroke-width:1.1023;stroke:#ffffff"/>
  <path d="m330.6 218.64c6.9155 0 12.524 5.6898 12.524 12.703s-5.609 12.703-12.524 12.703c-6.914 0-12.523-5.6898-12.523-12.703s5.609-12.703 12.523-12.703z" style="fill:#ffffff;stroke-width:1.1023;stroke:#ffffff"/>
  <path d="m601.88 139.94h6.3307v6.2949h-6.3307v-6.2949z" style="fill:#ffffff;stroke-width:.88183;stroke:#ffffff"/>
  <g transform="matrix(1.5555 0 0 1.5555 -110.23 -923.25)" style="fill:url(#linearGradient3838)">
    <path d="m146.04 772.97h-25.441l-3.501-13.191h-22.816l27.158 79.912h24.348l27.173-79.912h-23.371l-3.55 13.191zm-4.678 17.286-7.992 28.727-7.942-28.727h15.934zm22.502-4.038 21.252 1.469c0.454-3.813 1.397-6.716 2.809-8.725 2.29-3.238 5.587-4.838 9.861-4.838 3.18 0 5.636 0.819 7.37 2.475 1.716 1.656 2.574 3.572 2.574 5.749 0 2.065-0.808 3.926-2.457 5.563-1.649 1.638-5.451 3.182-11.441 4.633-9.793 2.437-16.777 5.656-20.949 9.694-4.207 4.037-6.31 9.172-6.31 15.424 0 4.112 1.078 8 3.231 11.647 2.154 3.646 5.384 6.512 9.709 8.614 4.324 2.084 10.247 3.127 17.768 3.127 9.237 0 16.287-1.899 21.133-5.694 4.847-3.795 7.724-9.843 8.649-18.122l-21.05-1.358c-0.555 3.59-1.732 6.214-3.532 7.851-1.784 1.619-4.258 2.438-7.404 2.438-2.609 0-4.56-0.596-5.873-1.824-1.312-1.209-1.969-2.697-1.969-4.447 0-1.264 0.54-2.399 1.617-3.423 1.059-1.06 3.55-2.028 7.503-2.939 9.76-2.326 16.743-4.689 20.966-7.071s7.303-5.321 9.22-8.857c1.919-3.516 2.895-7.46 2.895-11.833 0-5.117-1.296-9.842-3.854-14.159-2.558-4.334-6.141-7.609-10.751-9.842-4.595-2.233-10.399-3.349-17.399-3.349-12.283 0-20.797 2.605-25.525 7.852-4.745 5.228-7.419 11.87-8.043 19.945zm64.367 53.473h37.118c8.076 0 14.134-2.121 18.155-6.382 4.022-4.242 6.041-10.307 6.041-18.14 0-8.076-2.188-14.383-6.579-18.923-4.391-4.539-11.089-6.809-20.091-6.809h-12.215v-29.658h-22.429v79.912zm22.429-34.067h5.468c4.307 0 7.32 0.818 9.07 2.474 1.732 1.656 2.607 3.778 2.607 6.345 0 2.512-0.757 4.651-2.272 6.382-1.497 1.749-4.341 2.623-8.514 2.623h-6.359v-17.824z" style="fill:url(#linearGradient3838)"/>
    <path d="m298.49 760.74v68.053h9.087v-9.669c4.391 7.481 10.717 11.221 18.98 11.221 3.604 0 6.901-0.743 9.911-2.209 3.028-1.488 5.272-3.413 6.767-5.818 1.515-2.385 2.549-5.228 3.163-8.509 0.364-2.145 0.556-5.885 0.556-11.223v-41.846h-10.122v41.409c0 4.681-0.384 8.203-1.169 10.544-0.787 2.319-2.185 4.177-4.18 5.556-2.012 1.4-4.351 2.1-7.055 2.1-4.313 0-8.012-1.576-11.158-4.681-3.124-3.128-4.677-9.034-4.677-17.763v-37.165h-10.103zm104.79 21.919 10.447-1.466c-1.649-6.978-4.695-12.381-9.144-16.231-4.467-3.828-10.16-5.753-17.081-5.753-8.722 0-15.642 3.062-20.742 9.188-5.118 6.124-7.669 14.721-7.669 25.789 0 11.463 2.589 20.344 7.745 26.666 5.177 6.321 11.867 9.493 20.11 9.493 7.975 0 14.494-3.106 19.536-9.296 5.061-6.191 7.591-14.919 7.591-26.14 0-0.7-0.019-1.729-0.058-3.085h-44.475c0.364-7.481 2.223-13.212 5.559-17.172 3.336-3.981 7.477-5.971 12.461-5.971 3.7 0 6.863 1.115 9.49 3.346 2.627 2.21 4.697 5.753 6.23 10.632zm-33.184 18.658h33.299c-0.441 5.71-1.726 10.02-3.815 12.863-3.22 4.441-7.399 6.672-12.518 6.672-4.64 0-8.55-1.772-11.714-5.316-3.163-3.543-4.908-8.29-5.252-14.219zm78.407-30.252 1.457-10.194c-2.837-0.678-5.387-1.027-7.63-1.027-3.681 0-6.518 0.656-8.55 1.99-2.013 1.313-3.431 3.062-4.255 5.228-0.825 2.144-1.246 6.694-1.246 13.606v39.156h-32.239v8.969h32.239v16.865l10.064 6.912v-23.777h10.16v-8.969h-10.16v-39.79c0-3.303 0.172-5.404 0.517-6.344 0.365-0.941 0.94-1.685 1.745-2.253 0.805-0.547 1.956-0.831 3.45-0.831 1.132 0 2.608 0.152 4.448 0.459z" style="fill:url(#linearGradient3838)"/>
    <path d="m283.41 778.27c4.446 0 8.052-3.658 8.052-8.167s-3.606-8.167-8.052-8.167c-4.445 0-8.051 3.658-8.051 8.167s3.606 8.167 8.051 8.167z" style="fill:url(#linearGradient3838)"/>
    <path d="m457.82 828.87h4.07v-4.047h-4.07v4.047z" style="fill:url(#linearGradient3838)"/>
  </g>
</svg>
