<?xml version="1.0" encoding="UTF-8"?>
<svg width="55mm" height="17mm" version="1.1" viewBox="0 0 55 17" xmlns="http://www.w3.org/2000/svg">
  <title>Microsoft Azure</title>
  <path d="m10.147 15.308c2.5287-0.4467 4.6172-0.81635 4.6412-0.82143l0.0436-9e-3 -2.3873-2.8397c-1.313-1.5618-2.3873-2.8457-2.3873-2.8531 0-0.014 2.4651-6.8024 2.479-6.8266 5e-3 -8e-3 1.6822 2.8882 4.0666 7.0209 2.2323 3.869 4.0727 7.0591 4.0898 7.089l0.0311 0.0543-15.174-0.00195 4.5976-0.81218zm29.096-0.68676c-1.1549-0.074-1.8266-0.73168-2.0046-1.9626-0.0474-0.32745-0.0475-0.33595-0.0524-2.4618l-5e-3 -2.0574h1.0223l4e-3 1.9901c4e-3 1.7936 6e-3 2.0039 0.023 2.13 0.0696 0.51207 0.20814 0.85642 0.44402 1.1036 0.18878 0.19781 0.40977 0.31364 0.71569 0.3751 0.14432 0.029 0.55488 0.029 0.68647 1.2e-4 0.31013-0.0682 0.55871-0.20321 0.77798-0.42241 0.24993-0.24984 0.43483-0.6043 0.52429-1.0051l0.0302-0.1351 3e-3 -2.0069 3e-3 -2.0069h1.0437v6.3098h-1.0329v-0.50056c0-0.34011-4e-3 -0.49931-0.0116-0.49668-6e-3 2e-3 -0.0329 0.0427-0.0589 0.0902-0.17797 0.32459-0.4745 0.62141-0.79942 0.80024-0.38948 0.21436-0.78007 0.29058-1.3137 0.25636zm11.722-5e-3c-0.40768-0.0306-0.83695-0.17081-1.1878-0.38784-0.7395-0.45743-1.1771-1.2114-1.3052-2.2491-0.0443-0.35907-0.0497-0.84138-0.0127-1.1465 0.0827-0.68174 0.35055-1.351 0.73203-1.8288 0.0978-0.12248 0.31965-0.34433 0.44213-0.44212 0.33074-0.26407 0.7176-0.44873 1.1284-0.53858 0.23932-0.0524 0.66077-0.0769 0.91504-0.0534 0.63873 0.0592 1.2241 0.35994 1.622 0.83328 0.40425 0.4809 0.62644 1.1529 0.65482 1.9803 4e-3 0.12967 6e-3 0.35703 2e-3 0.50523l-6e-3 0.26946-4.4741 6e-3v0.0998c0 0.30391 0.0739 0.65004 0.20162 0.94454 0.11015 0.25396 0.29975 0.53127 0.45499 0.66547 0.31831 0.27517 0.70788 0.43988 1.1342 0.47951 0.15806 0.0147 0.56088-7.7e-4 0.74101-0.0284 0.5139-0.079 1.0025-0.28054 1.397-0.57636 0.0464-0.0348 0.0908-0.0673 0.0987-0.0723 0.0115-7e-3 0.0143 0.0837 0.014 0.46594l-3.6e-4 0.47492-0.10572 0.0654c-0.44634 0.27606-0.95767 0.45331-1.4991 0.51967-0.16157 0.0198-0.75445 0.0286-0.94767 0.0141zm1.9469-4.0055c0-0.50905-0.21452-1.0745-0.5181-1.3657-0.21664-0.20781-0.47854-0.33481-0.78989-0.38303-0.1473-0.0228-0.45775-0.014-0.61305 0.0174-0.32829 0.0663-0.59984 0.21066-0.83668 0.44469-0.24926 0.24631-0.43614 0.54547-0.55367 0.88631-0.0423 0.12257-0.0917 0.32379-0.10703 0.43572l-7e-3 0.0533h3.4257zm-30.345 3.847c3e-3 -8e-3 0.76227-2.0034 1.6881-4.4348l1.6834-4.4208 1.0818-6e-5 0.0449 0.11508c0.13714 0.35167 3.37 8.745 3.37 8.7493 0 3e-3 -0.25893 5e-3 -0.5754 5e-3l-0.57541-1.2e-4 -0.46594-1.2405-0.46593-1.2405-1.8761-2e-5 -1.8761-3e-5 -0.0163 0.0421c-9e-3 0.0231-0.20804 0.58135-0.44238 1.2404l-0.42607 1.1983-0.57661 2e-4c-0.45641 1.6e-4 -0.57561-3e-3 -0.57184-0.0138zm5.4429-3.4139c0-2e-3 -0.31356-0.85203-0.69679-1.889-0.71698-1.94-0.75708-2.0568-0.81373-2.3682-0.0266-0.14605-0.04-0.15011-0.0558-0.0168-0.0113 0.0953-0.0601 0.30841-0.0978 0.42664-0.0187 0.0587-0.34156 0.94482-0.71749 1.9692-0.37592 1.0244-0.68349 1.8669-0.68349 1.8722 0 5e-3 0.68964 0.01 1.5325 0.01s1.5325-2e-3 1.5325-4e-3zm2.7732 3.2664v-0.16157l3.7383-5.139-3.3846-0.012-6e-3 -0.8589h4.8954v0.2901l-1.8694 2.5835c-1.0282 1.4209-1.8694 2.5859-1.8694 2.5888 0 3e-3 0.83111 5e-3 1.8469 5e-3h1.8469v0.86451h-5.1983zm13.716 0.15408c-4e-3 -4e-3 -7e-3 -1.4289-7e-3 -3.1661v-3.1586h1.0217v0.65119c0 0.35816 4e-3 0.65119 0.01 0.65119 5e-3 0 0.0302-0.0586 0.0553-0.13028 0.11485-0.32834 0.31403-0.63515 0.57065-0.87899 0.23117-0.21966 0.49538-0.35102 0.80714-0.40129 0.0876-0.0141 0.16167-0.0168 0.33682-0.0123 0.21997 6e-3 0.33497 0.0218 0.46875 0.0655l0.0421 0.0138v1.0605l-0.1207-0.0604c-0.2132-0.10672-0.42356-0.14895-0.67645-0.1358-0.16458 9e-3 -0.27261 0.0297-0.40418 0.0791-0.27073 0.1016-0.49033 0.28094-0.64377 0.52574-0.22213 0.35439-0.38056 0.80991-0.42729 1.2286-8e-3 0.0751-0.0133 0.68704-0.0153 1.8934l-3e-3 1.7824h-0.50326c-0.27679 0-0.50663-3e-3 -0.51074-7e-3zm-43.458-0.0222c0-4e-3 1.1249-1.9567 2.4998-4.3394l2.4998-4.3322 2.9132-2.4448c1.6023-1.3446 2.9175-2.4464 2.9228-2.4484 5e-3 -2e-3 -0.0158 0.051-0.0468 0.11788-0.031 0.0668-1.4545 3.1201-3.1633 6.785l-3.1069 6.6635-2.2592 3e-3c-1.2426 2e-3 -2.2592-4.4e-4 -2.2592-4e-3z" style="fill:#0089d6;stroke-width:.011227"/>
</svg>
