<?xml version="1.0" encoding="UTF-8"?>
<svg width="102.37mm" height="144.5mm" version="1.1" viewBox="0 0 362.73 512" xmlns="http://www.w3.org/2000/svg">
  <path d="m362.73 100.62-33.046 370.2-148.54 41.181-148.13-41.123-33.011-370.26z" style="fill:#264de4"/>
  <path d="m181.37 130.89v349.63l120.03-33.277 28.24-316.35z" style="fill:#2965f1"/>
  <path d="m181.37 313.63v-45.41h-105.69l4.07 45.41z" style="fill:#ebebeb"/>
  <path d="m181.21 176.3h-113.71l4.128 45.411h109.74v-45.411z" style="fill:#ebebeb"/>
  <path d="m81.776 336.33 6.362 71.301 93.02 25.823 0.209-0.058v-47.246l-0.199 0.053-50.574-13.656-3.233-36.217h-24.575z" style="fill:#ebebeb"/>
  <path d="m85.367 0h55v23h-32v23h32v23h-55z"/>
  <path d="m151.37 0h55v20h-32v4h32v46h-55v-21h32v-4h-32z"/>
  <path d="m217.37 0h55v20h-32v4h32v46h-55v-21h32v-4h-32z"/>
  <path d="m285.66 280.41 1.108-12.194 8.198-91.912h-113.75v45.411h63.988l-4.132 46.501h-59.856v45.41h55.918l-5.271 58.894-50.647 13.67v47.244l93.094-25.801 0.683-7.672z" style="fill:#ffffff"/>
</svg>
