<?xml version="1.0" encoding="UTF-8"?>
<svg width="1963" height="2500" preserveAspectRatio="xMinYMin meet" version="1.1" viewBox="0 0 256 326" xmlns="http://www.w3.org/2000/svg">
  <path d="m114.78 0h53.278v244.19c-27.29 5.162-47.38 7.193-69.117 7.193-65.072-0.068-98.945-29.139-98.945-84.972 0-53.795 35.93-88.708 91.608-88.708 8.64 0 15.222 0.68 23.176 2.717zm1.867 124.43c-6.24-2.038-11.382-2.717-17.965-2.717-26.947 0-42.512 16.437-42.512 45.243 0 28.046 14.88 43.532 42.17 43.532 5.896 0 10.696-0.332 18.307-1.351z" style="fill:#2ba977"/>
  <path d="m255.19 84.26v122.26c0 42.105-3.154 62.353-12.411 79.81-8.64 16.783-20.022 27.366-43.541 39.055l-49.438-23.297c23.519-10.93 34.901-20.588 42.17-35.327 7.61-15.072 10.01-32.529 10.01-78.445v-104.06h53.21zm-58.579-84.26h53.278v54.135h-53.278z" style="fill:#2ba977"/>
</svg>
