<?xml version="1.0" encoding="UTF-8"?>
<svg width="200" height="180" version="1.1" xmlns="http://www.w3.org/2000/svg">
  <path d="m61.545 156.58c-7.2822-5.7277-15.05-11.219-20.359-18.952-11.169-13.637-19.769-29.425-25.649-46.017-3.5536-10.789-4.7707-22.355-9.3518-32.727-4.7923-7.533 0.82123-15.768 9.0727-18.162 3.6738-0.7051 10.133-4.1703 2.336-1.6935-6.9906 5.1289-7.6671-4.6556-0.49882-5.2752 4.892-0.65025 6.6929-4.655 5.02-8.2603-5.2513-3.4245 12.734-7.188 3.6844-12.298-9.427-10.171 13.186-12.129 7.6073-0.57779-1.3354 8.8821 15.801-1.6279 11.825 8.6289 4.0413 4.9257 15.134 1.1211 14.858 8.0314 5.8871 0.40468 7.9076 5.3581 13.434 5.7383 5.7276 2.5866 16.111 4.6248 18.06 11.079-5.6824 4.4988-18.841-9.2927-19.473 3.1604 1.7166 18.396 1.2793 37.346 8.0099 54.865 3.1835 10.608 10.901 18.958 17.871 27.219 6.6688 8.0913 15.702 13.787 24.909 18.583 8.0765 3.809 16.784 6.3353 25.586 7.9204 3.5701-2.7307 9.873-12.883 15.442-8.6019 0.26423 4.8101-11.054 10.055-0.53248 9.5235 6.1782-1.8638 10.463 4.778 15.551-1.2129 4.6872 5.5521 19.482-3.5473 16.147 7.8012-4.5097 2.9096-11.087 1.1514-15.604 5.154-7.4476-3.7198-13.377 3.3284-21.622 2.4371-9.1564 1.64-18.472 2.302-27.755 2.3164-15.23-1.2033-30.782-1.7105-45.27-7.0129-8.1617-2.3716-16.126-7.0189-23.3-11.668zm12.862 5.5729c7.9696 3.4465 15.762 7.0789 24.497 8.1746 13.857 1.9273 28.167 4.8916 42.073 2.1876-6.2939-2.842-12.801 1.1072-19.071-2.0322-7.5203 1.6182-15.59-0.41223-23.236-1.4119-8.694-3.8726-18.076-6.5355-26.218-11.562-10.173-3.7158 5.2614 4.7652 8.0087 5.4521 6.3595 3.6097-6.9934-1.8504-8.8759-3.351-5.3265-2.9879-6.0053-2.3636-0.52745 0.67085 1.1033 0.64577 2.1936 1.3223 3.3495 1.8722zm-15.165-10.717c7.7228 2.8605-0.0341-5.4308-3.5729-4.949-1.5679-2.7202-5.9903-4.4385-2.8707-5.8997-5.6115 1.9481-5.8783-7.4081-8.516-6.0714-5.9365-1.8745-2.3105-8.515-9.3819-12.593-0.64549-4.297-7.0258-8.0239-9.0608-14.505-0.89879-3.3184-7.2083-12.848-3.3324-3.9793 3.3002 8.5375 9.1066 15.849 13.939 23.152 3.7521 6.9533 8.1825 14.22 15.016 18.558 2.3034 2.2096 4.5275 5.5953 7.7803 6.288zm-22.248-24.426c0.26956-1.1663 1.4124 2.5242 0 0zm31.496 27.855c1.7101-0.76577-2.4591-0.96476 0 0zm4.1923 1.5292c-0.43419-2.1116-1.9138 1.1807 0 0zm5.2475 2.1889c2.4983-2.3787-3.8501-1.4998 0 0zm8.9939 5.0127c1.5181-2.2439-4.8587-0.84682 0 0zm-17.271-12.039c3.8803-2.5102-5.0119-0.0347 0 0zm3.9366 1.9629c-0.11004-1.3271-1.403 0.59432 0 0zm19.675 12.28c3.1628 1.996 18.47 4.3749 8.8848 0.81847-1.6038 0.33811-17.773-4.5734-8.8848-0.81847zm-31.234-24.326c-0.3075-1.3309-4.9093-1.4694 0 0zm9.1593 5.3381c2.3837-1.6626-4.9476-1.2824 0 0zm7.7043 4.7238c3.4206-1.2896-5.5491-1.2957 0 0zm-20.591-14.121c3.7114 2.8462 14.968 0.36473 5.6838-1.6991-4.2255-2.2524-13.749-3.7942-7.2576 1.3582l1.5738 0.34088zm25.809 15.752c1.546-2.6339-6.483-1.5041 0 0zm-7.8425-6.2328c9.0752 2.5672-7.6314-5.739-2.2391-0.94466l1.1951 0.54082 1.044 0.4039zm15.724 9.0878c8.5947 0.082-7.763-1.1849 0 1e-5zm-36.997-23.58c-0.3357-1.6009-2.121 0.13419 0 0zm51.535 31.735c0.2292-2.8914-2.8049 2.1516 0 0zm-36.868-22.753c-0.51986-1.5225-2.6855-0.0622 0 0zm-13.852-9.9865c4.9342-0.29629-6.7553-2.1742 0 0zm-16.41-10.607c-0.61415-2.3654-5.3692-4.2519 0 0zm43.079 27.339c-0.90373-1.0307-0.4251 0.22546 0 0zm26.814 16.455c-0.086-1.575-1.4604 0.59616 0 0zm-29.187-18.905c0.48266-2.0293-4.2074-0.61442 0 0zm-19.976-12.66c3.6708-0.39305-5.8804-2.4816 0 0zm33.791 20.997c5.7204-2.2663-5.5754-1.1064 0 0zm-17.577-11.931c6.5928 0.85002-7.8444-4.4842-1.4465-0.4773l1.4465 0.47734zm22.913 14.089c6.1551-3.6798 4.1259 8.6168 10.443 1.0388 6.2309-4.5494-5.3809 5.6245 2.2984 0.81116 5.5536-3.7144 13.756 1.7608 18.938 3.5472 3.7266-0.18307 7.3494 3.2224 11.17 1.1506 7.3542-1.9808-14.381-2.9379-8.6834-6.4523-6.7291 1.9585-11.701-2.3348-15.012-6.6451-7.5481-1.743-16.275-5.602-20.043-12.282-1.5359-2.508 2.2188 0.35333-1.3259-3.7464-4.5483-4.0455-6.8195-8.6377-9.8728-13.555-3.6476-1.9459-4.0725-7.6734-4.4412-0.19201 0.0289-4.7216-4.4039-7.8996-5.4859-6.5786-0.0194-4.5472 4.744-2.2679 1.4094-5.6323-0.71771-4.713-3.0808-9.6241-3.7912-14.945-1.1036-2.565-0.15541-8.0586-3.7666-2.252-1.3157 6.1367-0.43668-7.5413 1.6093-3.0308 2.6854-4.6025-0.9641-4.0612-1.1136-3.4221 1.7493-3.8833 1.1072-9.3916-0.45644-7.2902 0.93213-4.1159 1.4726-15.148-1.3951-13.193 1.7383-4.304 3.2967-19.694-4.2496-13.826-3.0584 0.04294-8.3545 1.1102-10.858 2.3552 7.8495 4.3269-0.78954 1.5626-3.9848 0.87488-0.41634 4.0036-3.5812 2.2721-7.5351 2.3113 6.3153 0.78134-3.0752 6.459-6.6981 4.2535-4.7051 2.2488 4.0606 7.862 0.0944 9.5976 0.48743 2.6166-7.2082-0.94491-6.6038 5.0977-4.5677-1.9216-0.62897 7.168 1.6563 4.0938 7.7689 2.1026 5.4691 6.8963 5.667 11.45-1.2658 2.6534-6.2495-6.2369-1.1099-5.8252-4.0547-6.5867-4.4852-2.3808-7.8546 0.67911-0.78386 0.22222 8.5944 4.3538 2.7091 6.3967 5.1779 0.79894 5.3252 5.3301 6.3793 8.1974 3.1122 3.2415 2.4752-3.5793 6.1991 0.31623-2.3565-3.4705-12.482-9.7784-4.3296-7.7553-0.0436-3.4929-1.4744-6.3095 1.0232-6.2412 2.4734-4.4793-2.5904 11.044 2.9847 5.3512 1.5433-0.67388 1.9255-4.4849 4.6996 0.35989 4.0291 3.9636 1.4553 6.8358-4.2282 3.2065 1.0168 3.4495 7.6031 4.6822 6.3654 10.076 1.3121 4.7444 3.1478 2.997 4.748 2.7227 1.2552 4.6097 1.968 1.2201 2.0276-0.97355 5.7474 1.2303 4.4011 4.6277 6.1995 7.0013 3.9604 1.7876-5.6687-12.117 1.1307-4.1811 7.1536 6.4586 2.6828 9.1546-3.7369 8.12 4.0631-0.32824 5.3734 5.493 10.456 5.2885 4.6346 2.2048 7.7724 10.673-0.21613 7.1478-2.7707-2.4982-12.576-5.5801-4.5673-0.82823 7.3966 3.4252 13.271 5.4743 20.405 9.7738 5.1054 3.6446 7.311 7.8191 9.2461 8.6454-4.2908 2.0495-12.931-1.6366-6.5151-2.7662-4.0017-0.72894-8.5026-2.7526-4.6696 2.2333 3.2593 2.7213 11.547 2.433 13.033 2.7413-1.2593 2.7749-3.4207 2.9956 0.0516 3.2108-3.8738 2.0644 1.2422 2.384 1.6011 3.5636zm-7.9215-22.37c-2.3568-2.4648-2.9662-7.0813-0.41852-3.0643 1.3065 0.52466 4.1852 7.5443 0.41857 3.0643zm25.797 16.387c1.47-0.0952 0.0427 1.1168 0 0zm-29.519-22.43c-0.0904-3.7264 0.8525 2.8742 0 0zm-2.5639-3.4496c-2.9645-5.7279 3.7372 1.6221 0 0zm-31.071-21.445c1.7416-0.46446 0.85684 2.9786 0 0zm24.728 13.404c1.0696-4.0165 1.2569 3.3701 0 0zm-17.47-12.147c-1.2315-2.2164 2.576 2.0786 0 0zm14.993 4.8062c-2.8085-6.2922 1.9884-3.437 0.62135 1.0312zm-25.855-17.243c-1.2556-2.0643-3.3327-8.1214-2.664-9.9704 0.60493 3.0114 6.4039 12.96 2.8446 4.121-3.9334-7.4091 4.7018 2.4049 5.59 4.2529 0.41362 1.8384-2.4268-0.50225-0.50219 3.8083-3.5098-4.9077-2.072 2.7109-5.2684-2.2117zm-7.9907-5.5061c0.32894-4.7998 1.8293 3.2913 0 0zm3.5943 1.2373c1.7152-3.6228 2.9082 5.0505 0 0zm-8.6462-6.6885c-2.975-2.9562-5.1278-5.6813 0.13919-1.8347 2.0295 0.0792-4.509-6.197 0.48876-1.993 5.2553 0.95822 2.5951 8.6167-0.62795 3.8278zm4.5417-0.11873c1.7276-1.712 0.91717 1.6853 0 0zm2.7946 0.8959c-2.6192-4.9094 3.1788 2.0582 0 0zm-5.5555-5.3091c-8.6484-7.6965 10.867 4.0245 1.4129 1.4269l-1.413-1.4268zm24.779 14.397c-3.7425-2.244-0.99178-15.797 0.2845-6.5278 3.6383-1.177-0.20088 4.7873 2.5128 4.7321-0.42767 3.763-1.6417 5.1159-2.7973 1.7958zm9.1652 5.4168c0.36705-4.0846 0.77249 2.7926 0 0zm-1.592-1.573c0.41206-1.745 0.0426 2.0549 0 0zm-30.656-20.77c-5.556-7.6657 16.147 7.7541 3.5586 1.9443-1.3154-0.34404-2.8982-0.46688-3.5586-1.9443zm17.649 9.3575c-0.52578-6.4546 1.1742 1.0699-1.9e-4 -2e-5zm13.4 8.5958c1.037-3.6767 0.0773 2.4322 0 0zm-30.198-20.879c3.3022-0.70629 13.685 5.7994 4.1502 1.8583-1.0594-1.1728-3.3178-0.63994-4.1502-1.8583zm28.357 14.133c0.35296-6.6 1.9714-3.9423 0.0122 0.94474l-0.0121-0.94473-5e-5 -1e-5zm-25.899-16.43c1.3455-1.9736-3.5716-8.9231 0.7088-2.4928 1.8495 1.4696 5.3551 2.462 2.26 3.0802 4.8678 4.2942-1.1872 1.1636-2.9688-0.58742zm24.496 14.368c0.92952-7.5184 0.81971 4.4048 0 0zm-27.306-21.312c1.0277-0.43921 0.54274 1.3693 0 0zm6.3896 3.8031c1.6444-3.4505 3.0335 3.8483 0 0zm18.024 10.026c-0.0174-1.3252 0.34003 1.9276 0 0zm-1.044-2.3114c-2.5016-6.1716 2.3269 3.2676 0 0zm-1.536-4.0464c-0.41991-2.5502 1.4271 3.2039-7e-5 -9e-6zm2.4998-4.0635c-1.7166-3.0251 2.1678-13.331 2.6012-6.9394-1.8118 4.9803-0.52268 7.7663 0.74129 1.0864 2.3342-5.2572-0.50421 10.374-3.3426 5.8531zm2.5689-15.327c0.74833-0.91892 0.16609 1.1071 0 0zm-4.29 84.534c-1.0176-0.88802 0.12777 0.56506 0 0zm8.8377 4.4706c4.916 1.2614 4.8909-0.76487 0.44782-1.3668-2.3898-2.2232-9.9305-4.5812-3.1812-0.27586 0.44699 1.1323 1.8594 1.1059 2.7334 1.6427zm-17.454-11.593c2.7082 2.0196 10.201 5.7238 3.8582 0.76868 2.1386-2.4847-4.0933-3.8072-2.0261-5.4693-5.2582-3.2176-4.148-2.9313-0.46411-2.8301-6.3194-2.8246 0.91216-2.6133 0.57166-4.0607-2.4367-0.48126-12.103-4.2966-6.4164 0.31341-5.7809-2.9475-1.3776 1.098-3.1249 0.67029-5.9113-1.6118 5.2644 4.5022-0.93884 2.9845 3.3913 2.6875 9.1283 6.8839 1.4338 2.8441-1.0138 1.4593 5.5063 3.6714 7.1067 4.7791zm9.2432 5.3101c11.239 3.6216-5.51-4.4246 0 0zm47.316 28.664c0.14496-2.2296-1.536 1.902 0 0zm4.8632 2.0468c2.593-2.5126 0.106 4.0022 4.2966-0.61509 0.0453-3.3054-0.12904-5.2578-4.8156-1.2425-1.2919 0.71648-1.8687 3.7629 0.51908 1.8576zm-77.199-48.482c-0.79635-3.1304-5.582-3.1142 0 0zm5.193 3.4029c-1.9284-3.1974-6.8805-2.8947 0 0zm29.543 17.817c2.8844 2.562 13.248 1.8798 3.5033 0.31527-1.4432-2.1339-9.1642-1.6203-3.5033-0.31527zm40.612 25.082c4.4393-3.7251-4.3012 1.6618 0 0zm9.2328 6.3447c0.0277-1.1954-1.9135 0.52338 0 0zm0.0142-1.6736c4.916-5.2087-4.7635 0.30807-4e-5 0zm-97.368-61.666c-4.1899-5.9783-2.6046-8.6654-6.6451-13.547-0.76492-3.7328-6.9317-12.203-3.1896-3.2295 3.4275 5.2484 4.446 13.374 9.8347 16.776zm95.826 60.01c9.0443-5.8458-3.7125-2.5464 0 0zm6.9041 2.7046c4.5291-3.8887-2.8649-0.81334 0 0zm-91.497-58.629c1.2962-1.9284-3.3476-0.24666 0 0zm90.056 56.783c4.3853-2.8275-1.0104-2.3934-0.79483 0.26003l0.79484-0.26003zm-59.514-37.512c-0.15075-1.9092-2.3157 0.16206 0 0zm3.6779 2.1163c-1.1689-2.3632-1.7972 0.37121 0 0zm62.872 37.306c5.6181-4.0528-3.4056-0.77594-1.1793 0.76785zm-2.1513-1.0398c4.5766-3.8351-4.8318 1.6995 0 0zm10.992 7.3198c3.0728-2.0582-3.7332-0.66575 0 0zm-103.11-66.364c4.119 0.92286 16.46 10.144 9.1795 0.63772-3.729-1.1038-1.4926-10.219-5.2962-8.6058 2.553 4.2649 2.1005 6.0802-3.2596 3.3914-6.7368-3.2885-3.7859 1.6297-2.4693 2.9852-1.7942 0.40772 2.3732 1.5572 1.8457 1.5915zm-18.766-14.82c0.73741-3.0499-6.7898-16.779-3.5545-6.8792 1.1679 2.0737 1.0491 6.0039 3.5545 6.8792zm34.443 21.235c-2.121-1.7738-0.10079-0.25103 0 0zm5.223 1.2155c-3e-3 -3.2308-5.7733-1.312 0 0zm45.261 28.533c-0.86326-2.2074-3.4123-0.0512 8e-5 4e-5zm2.1735 1.5877c-0.32087-1.2355-1.254 0.23848 0 0zm17.94 11.3c1.7255-1.2747-2.1532-0.1628 0 0zm-95.668-61.479c4.9352-1.9107-5.2878-1.3625 0 0zm71.57 45.089c-0.0549-3.195-3.1462 0.79264 0 0zm-73.52-49.633c3.1702-1.0708-2.9327-0.70531 0 0zm9.2015 4.4573c-0.0575-1.0501-0.97334 0.39747 0 0zm112.23 68.822c4.0765-0.8265 13.366 2.0749 14.868-1.0809-4.9504-0.12019-17.127-3.4926-17.703 0.80479l1.0837 0.17072 1.7523 0.10534zm-109.31-68.085c0.0709-3.2376-2.5247-0.12092 0 0zm-24.193-16.782c-1.0987-6.1684-4.1788-0.93357 0 0zm5.7692 1.4501c0.0709-1.9807-5.2806-1.7822 0 0zm3.2969 1.6192c-0.95302-0.77196-0.74596 0.97521 0 0zm20.745 13.308c0.97662-0.89718-2.3121-0.66455 0 0zm-22.941-16.96c-0.55763-4.659-6.682-0.69805 0 0zm-11.828-7.6745c-0.16822-2.1502-1.1526 0.81111 0 0zm1.7593-1.3287c-0.28703-2.5496-1.5105 0.32439 0 0zm9.7208 5.8024c4.1105-1.6146-7.4872-3.3398-0.83989-0.30506zm130.1 80.359c2.6309-2.4121-3.3437-0.74577 0 0zm15.717 8.1469c1.0543-3.1186-2.6545 0.41058 0 0zm-144.82-93.601c0.43302-3.0168-3.2588 0.59902 0 0zm-13.83-9.2662c-0.74297-4.2591-0.64134-11.735 6.4651-9.2086-9.486 1.8833 6.5653 11.79 4.5384 3.9684 3.9886 0.19529 7.8027-2.3573 5.7095 1.5164 7.8588-0.86796 13.307-7.6826 20.898-6.7277 5.913-0.78249 12.378-1.376 18.75-3.7562 5.239-0.37743 10.282-6.0181 7.4107-9.3614-7.1446-0.60451-14.623 0.28939-22.52 1.859-8.7506 1.8191-16.699 5.2753-25.528 6.7589-8.6059 1.156 1.731 3.1852-0.73408 3.6372-4.4907 1.5581 5.3555 2.6089-0.58218 4.2514-3.667-0.69724-7.4839-1.9572-5.9175-5.8215-8.2437 1.0697-15.488 4.4911-8.9745 12.88l0.4844 0.0037 1e-5 -2.56e-4zm19.864-10.117c1.9329-7.1205 10.355 5.8593 3.168 0.94578-0.85845-0.64246-2.2703-1.1666-3.168-0.94578zm0.37604-3.4522c2.7897-2.0783 1.483 1.1652 0 0zm3.5422 0.05622c0.25183-3.2765 8.1088 1.7346 1.2955 1.1795zm4.8454-1.9482c1.7695-2.0675 0.50862 1.8391 0 0zm1.2396-0.83005c2.9464-3.5402 16.686-2.2594 6.629-0.34519-2.6955-2.0294-4.7618 1.1966-6.629 0.34519zm17.93-2.7639c-0.4482-9.6702 8.9078 3.4365 0 0zm5.0875-0.02784c1.86-4.8739 7.2181-1.9558 0.86073-0.97941 0.13805 0.51866-0.18642 2.5162-0.86073 0.97941zm-41.061 25.847c5.5575-3.4032-5.8999-2.9525 0 0zm4.1092 1.1419c1.9485-2.0719-4.2339-0.84037 0 0zm-12.108-8.5929c3.1756-2.4394-3.7578-0.92747 0 0zm164.1 102.66c0.0918-2.8302-2.4272 1.2754 0 0zm-16.675-11.379c0.47417-3.2584-2.1429 0.28408 0 0zm21.26 12.477c4.4399 0.015 13.453-1.3788 3.7922-1.3744-1.5159 0.23641-8.8331 0.18571-3.7922 1.3744zm-152.97-97.164c3.5932-0.24681 5.6219-3.9636-0.69494-3.75-9.79-1.0135 8.6375 3.3521-1.2559 2.1038-1.3294 0.88035 1.8736 1.8897 1.9508 1.6461zm3.1646 1.6017c-0.37517-2.3071-1.1112 1.2256 0 0zm3.7539-10.01c1.5593-1.9341-2.1577-0.51705 0 0zm-11.95-19.975c6.4129-2.1816 15.182-4.6331 18.21 1.0742-3.0816-3.7089-1.2436-7.3602 1.667-1.9374 4.1156 5.4867 6.1759-2.4955 3.4991-4.3358 3.0505 3.7902 6.52 5.5813 2.0424 0.23956 4.8657-5.8529-9.7427 0.76643-13.063 0.69978-1.5976 0.71706-16.494 3.7989-12.356 4.2597zm3.7583-7.1978c3.6573-2.7604 12.649 1.642 6.8791-2.7434-0.56412-0.49829-12.636 3.3255-6.8791 2.7434zm13.333 0.55047c4.2804 0.10922-1.8463-5.7503 3.2543-3.0952-0.83769-2.7366-5.9386-3.249-8.4323-4.3423-1.4105 2.5021 2.871 7.4711 5.178 7.4375zm-10.996-12.103c1.4808-2.0074-2.5952 1.0177 0 0zm5.4496 1.3044c6.8979-0.9149-1.7583-2.9705-1.39-0.07352l1.39 0.07352v-9e-6zm-10.175-7.9621c-4.8569-6.3402 9.134 1.0658 4.1994-5.5726-4.1532-3.3072-8.1443 3.7218-4.1994 5.5726zm62.33 33.573c2.2276-3.949-9.197-5.323-1.5009-1.3996 0.70858 0.23678 0.54821 1.6727 1.5009 1.3996z" style="fill:#000000"/>
</svg>
