<?xml version="1.0" encoding="UTF-8"?>
<svg width="1400" height="400" fill="#111111" version="1.1" xmlns="http://www.w3.org/2000/svg">
  <g transform="translate(0 50)">
    <path d="m484.7 130c-2 0-4 2-4 4v41c0 2 2 4 4 4h33v51s-7 3-28 3c-24 0-57-9-57-83s35-83 68-83c29 0 41 5 49 7 2 1 5-2 5-4l9-40c0-1 0-2-2-3-3-2-22-13-71-13-57 0-113 23-113 139 0 115 66 132 121 132 46 0 74-19 74-19 1-1 1-2 1-3v-129c0-2-2-4-4-4"/>
    <path d="m1001.7 28c0-2-2-4-4-4h-47c-2 0-4 2-4 4v91h-74v-91c0-2-2-4-4-4h-47c-2 0-4 2-4 4v247c0 2 2 4 4 4h47c2 0 4-2 4-4v-106h74v106c0 2 2 4 4 4h47c2 0 4-2 4-4v-247"/>
    <circle cx="627.7" cy="61" r="31"/>
    <path d="m654.7 109c0-2-2-4-4-4h-47c-2 0-4 2-4 4v164c0 5 3 6 7 6h43c5 0 6-2 6-6"/>
    <path d="m1134.7 106c-2 0-4 2-4 4v121s-12 9-29 9-21-8-21-24v-106c0-2-2-4-4-4h-47c-2 0-4 2-4 4v114c0 49 27 61 65 61 31 0 56-17 56-17s1 9 2 10 2 2 3 2h30c2 0 4-2 4-4v-166c0-2-2-4-4-4"/>
    <path d="m1292.7 241c-20 0-29-9-29-9v-79s11-7 24-8c17-2 33 4 33 44 0 43-5 52-29 52zm-27-129v-84c0-2-2-4-4-4h-47c-2 0-4 2-4 4v247c0 2 2 4 4 4h33c1 0 3-1 3-2 1-1 2-11 2-11s19 19 56 19c43 0 68-22 68-98s-39-86-66-86-45 12-45 12z"/>
    <path d="m755.7 105v-47c0-2-1-3-3-3h-49c-2 0-3 1-3 4v49s-24 6-26 6c-2 1-3 2-3 4v31c0 2 2 4 4 4h25v73c0 55 38 60 64 60 12 0 26-4 28-5 1-1 2-2 2-4v-33c0-2-2-4-4-4s-7 1-13 1c-17 0-23-8-23-19v-69h35c2 0 4-2 4-4v-40c0-2-2-4-4-4"/>
  </g>
  <path d="m178.17 50c-84.971 0-153.79 68.823-153.79 153.79 0 68.054 44.024 125.53 105.16 145.91 7.6897 1.3457 10.573-3.2681 10.573-7.3052 0-3.6526-0.19224-15.764-0.19224-28.644-38.641 7.113-48.637-9.4199-51.713-18.071-1.7302-4.4216-9.2276-18.071-15.764-21.723-5.3828-2.8836-13.072-9.9966-0.19224-10.189 12.111-0.19225 20.762 11.15 23.646 15.764 13.841 23.261 35.949 16.725 44.793 12.688 1.3457-9.9966 5.3828-16.725 9.8044-20.57-34.219-3.8448-69.976-17.11-69.976-75.936 0-16.725 5.9595-30.567 15.764-41.332-1.5379-3.8448-6.9207-19.609 1.5379-40.755 0 0 12.88-4.0371 42.293 15.764 12.304-3.4604 25.376-5.1906 38.449-5.1906 13.072 0 26.145 1.7302 38.449 5.1906 29.413-19.993 42.293-15.764 42.293-15.764 8.4587 21.147 3.0759 36.911 1.5379 40.755 9.8044 10.766 15.764 24.415 15.764 41.332 0 59.018-35.949 72.091-70.169 75.936 5.575 4.8061 10.381 14.034 10.381 28.452 0 20.57-0.19224 37.103-0.19224 42.293 0 4.0371 2.8836 8.8432 10.573 7.3052 60.749-20.378 104.77-78.05 104.77-145.91 0-84.971-68.823-153.79-153.79-153.79z" clip-rule="evenodd" fill="#1b1f23" fill-rule="evenodd" style="stroke-width:19.224"/>
</svg>
