<?xml version="1.0" encoding="UTF-8"?>
<svg width="170" height="75" version="1.1" viewBox="0 0 170 75" xmlns="http://www.w3.org/2000/svg">
  <title>Go Programming Language</title>
  <style type="text/css">.st0{fill:#00ACD7;}</style>
  <path class="st0" d="m16.821 25.667c-0.31277 0-0.39096-0.15638-0.23458-0.39096l1.642-2.1112c0.15638-0.23458 0.54734-0.39096 0.86011-0.39096h27.914c0.31277 0 0.39096 0.23458 0.23458 0.46915l-1.3293 2.033c-0.15638 0.23458-0.54734 0.46915-0.78192 0.46915z" style="stroke-width:.78192"/>
  <path class="st0" d="m5.0145 32.861c-0.31277 0-0.39096-0.15638-0.23458-0.39096l1.642-2.1112c0.15638-0.23458 0.54734-0.39096 0.86011-0.39096h35.655c0.31277 0 0.46915 0.23458 0.39096 0.46915l-0.62553 1.8766c-0.0782 0.31277-0.39096 0.46915-0.70373 0.46915z" style="stroke-width:.78192"/>
  <path class="st0" d="m23.937 40.055c-0.31277 0-0.39096-0.23458-0.23458-0.46915l1.0947-1.9548c0.15638-0.23458 0.46915-0.46915 0.78192-0.46915h15.638c0.31277 0 0.46915 0.23458 0.46915 0.54734l-0.15638 1.8766c0 0.31277-0.31277 0.54734-0.54734 0.54734z" style="stroke-width:.78192"/>
  <path class="st0" d="m105.1 24.26c-4.9261 1.2511-8.2883 2.1894-13.136 3.4404-1.1729 0.31277-1.2511 0.39096-2.2676-0.78192-1.1729-1.3293-2.033-2.1894-3.675-2.9713-4.9261-2.4239-9.6958-1.7202-14.153 1.1729-5.317 3.4404-8.0538 8.5229-7.9756 14.856 0.07819 6.2553 4.3787 11.416 10.556 12.276 5.317 0.70373 9.774-1.1729 13.293-5.1607 0.70372-0.86011 1.3293-1.7984 2.1112-2.8931h-15.091c-1.642 0-2.033-1.0165-1.4856-2.3458 1.0165-2.4239 2.8931-6.4899 3.9878-8.5229 0.23458-0.46915 0.78192-1.2511 1.9548-1.2511h28.462c-0.15639 2.1112-0.15639 4.2224-0.46915 6.3335-0.86012 5.6298-2.9713 10.79-6.4117 15.326-5.6298 7.4282-12.98 12.042-22.285 13.293-7.6628 1.0165-14.778-0.46915-21.034-5.1607-5.7862-4.3787-9.0703-10.165-9.9304-17.359-1.0165-8.5229 1.4856-16.186 6.6463-22.91 5.5516-7.2718 12.902-11.885 21.894-13.527 7.35-1.3293 14.387-0.46915 20.721 3.8314 4.1442 2.7367 7.1155 6.4899 9.0703 11.025 0.46914 0.70373 0.15638 1.0947-0.78192 1.3293z" style="stroke-width:.78192"/>
  <path class="st0" d="m130.98 67.5c-7.1154-0.15638-13.605-2.1894-19.079-6.8809-4.6133-3.9878-7.5064-9.0703-8.4447-15.091-1.4074-8.8357 1.0165-16.655 6.3335-23.614 5.708-7.5064 12.589-11.416 21.894-13.058 7.9756-1.4075 15.482-0.62554 22.285 3.9878 6.1772 4.2224 10.009 9.9304 11.025 17.437 1.3293 10.556-1.7202 19.157-8.9921 26.507-5.1607 5.2389-11.494 8.5229-18.766 10.009-2.1112 0.39096-4.2224 0.46915-6.2554 0.70373zm18.61-31.59c-0.0782-1.0165-0.0782-1.7984-0.23458-2.5803-1.4074-7.741-8.5229-12.12-15.951-10.4-7.2718 1.642-11.963 6.2553-13.684 13.605-1.4074 6.099 1.5638 12.276 7.1936 14.778 4.3006 1.8766 8.6011 1.642 12.745-0.46915 6.1772-3.2059 9.5394-8.2101 9.9304-14.935z" style="stroke-width:.78192"/>
</svg>
