<?xml version="1.0" encoding="UTF-8"?>
<svg width="350" height="100" version="1.1" viewBox="0 0 350 100" xmlns="http://www.w3.org/2000/svg">
  <title>InfluxDB</title>
  <defs>
    <linearGradient id="SVGID_1_" x1="205.32" x2="483.09" y1="120.54" y2="120.54" gradientTransform="translate(-135.95 -75.05)" gradientUnits="userSpaceOnUse">
      <stop style="stop-color:#4591ED" offset="0"/>
      <stop style="stop-color:#00C9FF" offset="1"/>
    </linearGradient>
    <linearGradient id="SVGID_2_" x1="205.32" x2="483.09" y1="127.99" y2="127.99" gradientTransform="translate(-135.95 -75.05)" gradientUnits="userSpaceOnUse">
      <stop style="stop-color:#4591ED" offset="0"/>
      <stop style="stop-color:#00C9FF" offset="1"/>
    </linearGradient>
    <linearGradient id="SVGID_3_" x1="205.32" x2="483.09" y1="127.92" y2="127.92" gradientTransform="translate(-135.95 -75.05)" gradientUnits="userSpaceOnUse">
      <stop style="stop-color:#4591ED" offset="0"/>
      <stop style="stop-color:#00C9FF" offset="1"/>
    </linearGradient>
    <linearGradient id="SVGID_4_" x1="205.32" x2="483.09" y1="128.42" y2="128.42" gradientTransform="translate(-135.95 -75.05)" gradientUnits="userSpaceOnUse">
      <stop style="stop-color:#4591ED" offset="0"/>
      <stop style="stop-color:#00C9FF" offset="1"/>
    </linearGradient>
    <linearGradient id="SVGID_5_" x1="205.32" x2="483.09" y1="128.06" y2="128.06" gradientTransform="translate(-135.95 -75.05)" gradientUnits="userSpaceOnUse">
      <stop style="stop-color:#4591ED" offset="0"/>
      <stop style="stop-color:#00C9FF" offset="1"/>
    </linearGradient>
    <linearGradient id="SVGID_6_" x1="205.32" x2="483.09" y1="120.9" y2="120.9" gradientTransform="translate(-135.95 -75.05)" gradientUnits="userSpaceOnUse">
      <stop style="stop-color:#4591ED" offset="0"/>
      <stop style="stop-color:#00C9FF" offset="1"/>
    </linearGradient>
    <linearGradient id="symbol_1_" x1="205.32" x2="483.09" y1="125" y2="125" gradientTransform="translate(-160.95 -75.05)" gradientUnits="userSpaceOnUse">
      <stop style="stop-color:#4591ED" offset="0"/>
      <stop style="stop-color:#00C9FF" offset="1"/>
    </linearGradient>
  </defs>
  <style type="text/css">.st0{fill:url(#symbol_1_);}
	.st1{fill:url(#SVGID_1_);}
	.st2{fill:url(#SVGID_2_);}
	.st3{fill:url(#SVGID_3_);}
	.st4{fill:url(#SVGID_4_);}
	.st5{fill:url(#SVGID_5_);}
	.st6{fill:url(#SVGID_6_);}
	.st7{fill:url(#SVGID_7_);}</style>
  <path class="st0" d="m81.552 58.25-7.6-33.2c-0.4-1.8-2.1-3.6-3.9-4.1l-34.9-10.7c-0.5-0.1-1-0.2-1.5-0.2-1.5 0-3.1 0.6-4 1.5l-25 23.2c-1.3 1.2-2.1 3.6-1.7 5.4l8.1 35.5c0.4 1.8 2.1 3.6 3.9 4.1l32.6 10c0.5 0.1 1 0.2 1.5 0.2 1.5 0 3.1-0.6 4-1.5l26.7-24.8c1.5-1.2 2.2-3.6 1.8-5.4zm-42.8-40.2 23.9 7.3c0.9 0.3 0.9 0.7 0 0.9l-12.6 2.9c-1 0.2-2.3-0.2-2.9-0.9l-8.8-9.5c-0.7-0.6-0.5-0.9 0.4-0.7zm14.9 42.9c0.2 1-0.4 1.5-1.3 1.2l-25.8-7.9c-0.9-0.3-1.1-1.1-0.4-1.7l19.8-18.4c0.7-0.7 1.5-0.4 1.7 0.5zm-42.5-23.4 21-19.5c0.7-0.7 1.8-0.6 2.5 0.1l10.5 11.3c0.7 0.7 0.6 1.8-0.1 2.5l-21 19.5c-0.7 0.7-1.8 0.6-2.5-0.1l-10.5-11.3c-0.6-0.7-0.6-1.8 0.1-2.5zm5.1 31-5.6-24.3c-0.2-1 0.1-1.1 0.8-0.4l8.8 9.5c0.7 0.7 1 2.1 0.7 3l-3.8 12.3c-0.2 0.8-0.7 0.8-0.9-0.1zm30.7 14.1-27.3-8.4c-0.9-0.3-1.5-1.3-1.2-2.2l4.5-14.8c0.3-0.9 1.3-1.5 2.2-1.2l27.3 8.4c0.9 0.3 1.5 1.3 1.2 2.2l-4.5 14.8c-0.3 1-1.3 1.5-2.2 1.2zm24.3-19.9-18.3 17c-0.7 0.7-1.1 0.4-0.8-0.5l3.8-12.3c0.3-0.9 1.3-1.9 2.3-2.1l12.6-2.9c0.9-0.2 1.1 0.2 0.4 0.8zm2-3.6-15.1 3.4c-1 0.2-1.9-0.4-2.1-1.3l-6.4-27.9c-0.2-1 0.4-1.9 1.3-2.1l15.1-3.4c1-0.2 1.9 0.4 2.1 1.3l6.4 27.9c0.2 0.9-0.4 1.9-1.3 2.1z" style="fill:url(#symbol_1_)"/>
  <g transform="translate(-25)">
    <path class="st1" d="m137.55 36.35 8.9-1.2-6.3 35.8h-8.7zm2.6-15.1 8.9-1.2-1.7 9.8-8.9 1.3z" style="fill:url(#SVGID_1_)"/>
    <path class="st2" d="m174.25 45.85c0.1-0.4 0.1-0.8 0.1-0.9 0-0.9-0.4-1.5-1.8-1.5-2.3 0-7.2 2.2-10.5 4.1l-4.1 23.4h-8.7l6.1-34.5 7.5-1.3-0.1 4.3c4.6-2.5 10.1-4.4 14.3-4.4 4.8 0 6.4 3.2 6.4 7 0 1.4-0.1 2.3-0.4 3.5l-4.5 25.5h-8.7z" style="fill:url(#SVGID_2_)"/>
    <path class="st3" d="m211.45 42.75h-8.1l-5.3 29.8c-1 5.7-3.1 9.3-7.7 13.3l-5.6-5.2c2.8-2.7 4.1-5.1 4.7-8.9l5.1-29h-5.4l1.2-7.1h5.4l0.9-5.1c1.3-7.5 4.3-10.8 13.2-10.8 2.9 0 6.7 0.4 11.1 1.4l8.9-1.2-9 50.9h-8.7l7.6-43.1c-3.5-0.7-7-1.1-9.8-1.1-3 0-4.2 1-4.6 3.5l-0.9 5.4h8.8z" style="fill:url(#SVGID_3_)"/>
    <path class="st4" d="m240.15 60.75c-0.1 0.5-0.1 0.8-0.1 0.9 0 0.9 0.4 1.5 1.8 1.5 2.3 0 7.2-2.2 10.5-4.1l4-22.8 8.9-1.2-6.2 35.9h-7.4l0.1-3.7c-4.6 2.5-10.1 4.4-14.3 4.4-4.8 0-6.4-3.2-6.4-7 0-1.4 0.1-2.3 0.4-3.5l4.3-24.8 8.9-1.2z" style="fill:url(#SVGID_4_)"/>
    <path class="st5" d="m278.95 53.15-7.6-16.6 8.1-1.5 5.3 12.5 8.7-11.9h9.3l-14.4 18.6 7.7 16.7h-8.8l-4.8-10.2-8.5 10.2h-9.3z" style="fill:url(#SVGID_5_)"/>
    <path class="st6" d="m329.35 70.95h-7.4v-3.9c-3 2.7-6.8 4.6-12 4.6-6.1 0-8.2-3.3-8.2-8 0-1.2 0.1-2.4 0.4-3.7l1.8-10.3c1.6-9 3.3-14.7 17.1-14.7 1.3 0 3.8 0.2 5.8 0.7l2.5-14.3 8.9-1.2zm-3.7-28.2c-1.6-0.4-3.9-0.4-5.1-0.4-5.6 0-7 2.2-7.8 6.9l-2.2 12.4c-0.1 0.4-0.1 0.7-0.1 0.9 0 1.3 0.9 1.9 2.5 1.9 3.7 0 8-3 9.8-5.3z" style="fill:url(#SVGID_6_)"/>
    <path class="st7" d="m347.15 21.25 8.9-1.2-3.2 18c3.9-2.2 7.6-3.1 11.1-3.1 6.1 0 8.2 3.3 8.2 8 0 1.2-0.1 2.4-0.4 3.7l-1.7 10.3c-1.9 10.6-5.5 14.7-18.2 14.7-3.3 0-9.7-1.1-13.2-2.3zm1.1 42.6c1.6 0.3 3.3 0.5 5.1 0.5 5.6 0 7-2.3 7.8-6.9l2.2-12.4c0.1-0.4 0.1-0.7 0.1-0.9 0-1.3-0.9-1.9-2.5-1.9-2.7 0-6.4 1.2-9.5 3.3z" style="fill:url(#SVGID_6_)"/>
  </g>
</svg>
