<?xml version="1.0" encoding="UTF-8"?>
<svg version="1.1" viewBox="0 0 245.09 62.987" xmlns="http://www.w3.org/2000/svg">
  <title>Java Spring</title>
  <path d="m80.731 43.805c-0.75147-0.40573-1.3296-1.2745-1.3296-2.4324 0-1.5609 1.214-2.8265 2.8385-2.8265 0.57547 0 1.0984 0.16933 1.5005 0.40107 2.9547 1.9688 6.0219 2.9531 8.7953 2.9531 3.0083 0 4.7437-1.2744 4.7437-3.302v-0.11467c0-2.3724-3.238-3.1812-6.8281-4.2796-4.5104-1.274-9.5443-3.1235-9.5443-8.9683v-0.1172c0-5.7869 4.802-9.3151 10.878-9.3151 3.2411 0 6.6531 0.92707 9.6041 2.4869 0.9864 0.5224 1.6771 1.4485 1.6771 2.6604 0 1.6219-1.2708 2.8396-2.8907 2.8396-0.58173 0-0.92853-0.11613-1.3864-0.34893-2.4921-1.2745-5.0369-2.0859-7.1771-2.0859-2.7213 0-4.2839 1.276-4.2839 3.0129v0.11253c0 2.2573 3.2979 3.1807 6.8864 4.3401 4.4552 1.3896 9.4891 3.4135 9.4891 8.9099v0.1172c0 6.4219-4.9785 9.6005-11.342 9.6005-3.874 0-8.098-1.2109-11.631-3.6437" style="fill:#5fb832"/>
  <path d="m130.83 31.657v-0.1172c0-5.8989-3.9932-9.776-8.7353-9.776-4.7443 0-8.91 3.9344-8.91 9.776v0.1172c0 5.8437 4.1657 9.7819 8.91 9.7819 4.802 0 8.7353-3.7636 8.7353-9.7819m-24.474-12.326c0-1.9636 1.5025-3.5281 3.4739-3.5281 1.9657 0 3.5281 1.5645 3.5281 3.5281v2.086c2.2568-3.1808 5.4381-5.7276 10.415-5.7276 7.1733 0 14.175 5.6676 14.175 15.85v0.1172c0 10.127-6.9435 15.853-14.175 15.853-5.0912 0-8.274-2.5485-10.415-5.3776v10.814c0 1.9745-1.5624 3.4792-3.5281 3.4792-1.9083 0-3.4739-1.5047-3.4739-3.4792v-33.615" style="fill:#5fb832"/>
  <path d="m140.6 19.335c0-1.9635 1.5-3.5281 3.468-3.5281 1.972 0 3.532 1.5647 3.532 3.5281v1.6833c0.34933-2.6219 4.6267-5.2115 7.6947-5.2115 2.1973 0 3.472 1.4453 3.472 3.4693 0 1.85-1.216 3.0672-2.7787 3.3557-4.976 0.86827-8.388 5.2224-8.388 11.246v10.094c0 1.9115-1.56 3.4728-3.532 3.4728-1.908 0-3.468-1.5052-3.468-3.4728v-24.637" style="fill:#5fb832"/>
  <path d="m161.41 19.349c0-1.9667 1.5093-3.5313 3.4733-3.5313 1.9667 0 3.5293 1.5647 3.5293 3.5313v24.629c0 1.9645-1.5627 3.4671-3.5293 3.4671-1.9107 0-3.4733-1.5025-3.4733-3.4671v-24.629" style="fill:#5fb832"/>
  <path d="m171.94 19.363c0-1.9667 1.5053-3.5276 3.4693-3.5276 1.9693 0 3.5307 1.5609 3.5307 3.5276v1.4365c1.9707-2.836 4.8013-4.9819 9.5453-4.9819 6.8853 0 10.88 4.6308 10.88 11.689v16.468c0 1.9661-1.5067 3.4724-3.4733 3.4724-1.9667 0-3.528-1.5063-3.528-3.4724v-14.326c0-4.7421-2.372-7.4636-6.5387-7.4636-4.0493 0-6.8853 2.8349-6.8853 7.5829v14.207c0 1.9661-1.5613 3.4724-3.5307 3.4724-1.908 0-3.4693-1.5063-3.4693-3.4724v-24.611" style="fill:#5fb832"/>
  <path d="m217.87 41.375c-4.8067 0-8.7373-3.762-8.7373-9.7801v-0.1136c0-5.9005 3.9893-9.7776 8.7373-9.7776 4.7453 0 8.9107 3.9355 8.9107 9.7776v0.1136c0 5.8452-4.1653 9.7801-8.9107 9.7801m12.26-25.632c-1.964 0-3.5267 1.5656-3.5267 3.5297v2.0823c-2.2587-3.1808-5.4373-5.7261-10.411-5.7261-7.1787 0-14.177 5.6677-14.177 15.853v0.1136c0 10.127 6.9413 15.851 14.177 15.851 5.0613 0 8.236-2.5181 10.379-5.3333-0.35067 5.5016-3.7187 8.4063-9.6267 8.4063-3.5267 0-6.5947-0.87083-9.376-2.4359-0.34666-0.16933-0.74533-0.28387-1.268-0.28387-1.62 0-2.9547 1.3323-2.9547 2.8895 0 1.3318 0.75333 2.3151 1.972 2.7781 3.6973 1.7943 7.5133 2.7203 11.797 2.7203 5.5 0 9.7827-1.3297 12.56-4.1083 2.54-2.5479 3.9293-6.3619 3.9293-11.514v-21.293c0-1.9641-1.504-3.5297-3.4747-3.5297" style="fill:#5fb832"/>
  <path d="m168.44 7.3872c0 1.9468-1.5813 3.5297-3.5307 3.5297-1.9507 0-3.528-1.5829-3.528-3.5297 0-1.9521 1.5773-3.5281 3.528-3.5281 1.9493 0 3.5307 1.576 3.5307 3.5281" style="fill:#5fb832"/>
  <path d="m57.243 45.354c-7.7615 10.341-24.341 6.8505-34.971 7.3526 0 0-1.8817 0.10469-3.7771 0.41667 0 0 0.71667-0.30572 1.6307-0.62083 7.4657-2.5818 10.994-3.1006 15.53-5.4307 8.5235-4.3661 17.006-13.877 18.732-23.756-3.2443 9.502-13.111 17.68-22.096 21.001-6.1495 2.2692-17.27 4.4776-17.272 4.4785 0.0052 0.0079-0.4432-0.2328-0.44947-0.238-7.563-3.6796-7.7812-20.06 5.9547-25.34 6.0224-2.3167 11.783-1.0443 18.293-2.5939 6.9437-1.6509 14.986-6.8557 18.255-13.66 3.6645 10.869 8.0667 27.875 0.1692 38.391zm0.13493-41.759c-0.924 2.1952-2.0516 4.1733-3.3516 5.9427-5.7219-5.8724-13.708-9.5312-22.536-9.5312-17.365 0-31.49 14.127-31.49 31.489 0 9.1015 3.8849 17.31 10.079 23.063l0.68959 0.61093c-1.1516-0.93907-1.3286-2.6302-0.39531-3.7828 0.93905-1.1531 2.6318-1.3318 3.7839-0.39792 1.1552 0.93593 1.3312 2.6313 0.39587 3.7859-0.93187 1.1552-2.6277 1.3297-3.7813 0.3974l0.46927 0.41563c5.4787 4.613 12.541 7.3995 20.25 7.3995 16.598 0 30.227-12.917 31.394-29.22 0.864-7.9824-1.4937-18.118-5.5063-30.172" style="fill:#5fb832"/>
  <path d="m241.81 17.948h-1.1v1.4563h1.1c0.356 0 0.74533-0.28747 0.74533-0.71093 0-0.45787-0.38933-0.74533-0.74533-0.74533zm0.67867 3.6052-1.068-1.6249h-0.71067v1.6249h-0.57467v-4.1135h1.6747c0.69467 0 1.3387 0.49213 1.3387 1.2536 0 0.91347-0.81467 1.2187-1.0507 1.2187l1.1013 1.6412zm-0.98267-5.112c-1.6933 0-3.048 1.3541-3.048 3.048 0 1.6749 1.3547 3.0468 3.048 3.0468 1.6747 0 3.0467-1.3719 3.0467-3.0468 0-1.6939-1.372-3.048-3.0467-3.048zm0 6.6371c-1.9813 0-3.5893-1.6089-3.5893-3.5891 0-1.9991 1.608-3.5901 3.5893-3.5901 1.9973 0 3.5893 1.5911 3.5893 3.5901 0 1.9801-1.592 3.5891-3.5893 3.5891" style="fill:#5fb832"/>
</svg>
