<?xml version="1.0" encoding="UTF-8"?>
<svg width="239" height="60" version="1.1" viewBox="0 0 18.427 4.626" xmlns="http://www.w3.org/2000/svg">
  <title>MySQL Database</title>
  <path d="m2.92 2.906c-0.133-3e-3 -0.237 0.01-0.324 0.047-0.025 0.01-0.065 0.01-0.068 0.042 0.013 0.013 0.015 0.035 0.027 0.053a0.39 0.39 0 0 0 0.087 0.102l0.107 0.077c0.065 0.04 0.138 0.063 0.202 0.103 0.037 0.023 0.073 0.053 0.1 0.078 0.018 0.013 0.03 0.035 0.053 0.043v-5e-3c-0.012-0.015-0.015-0.037-0.027-0.053l-0.05-0.048a0.79 0.79 0 0 0-0.173-0.168c-0.053-0.037-0.17-0.087-0.192-0.148l-3e-3 -3e-3c0.037-3e-3 0.08-0.017 0.115-0.027 0.057-0.015 0.108-0.012 0.167-0.027l0.08-0.023v-0.015c-0.03-0.03-0.052-0.07-0.083-0.098-0.085-0.073-0.178-0.145-0.275-0.205-0.052-0.033-0.118-0.055-0.173-0.083-0.02-0.01-0.053-0.015-0.065-0.032-0.03-0.037-0.047-0.085-0.068-0.128l-0.137-0.29c-0.03-0.065-0.048-0.13-0.085-0.19a1.68 1.68 0 0 0-0.645-0.624c-0.062-0.035-0.135-0.05-0.213-0.068l-0.125-7e-3c-0.027-0.012-0.053-0.043-0.077-0.058-0.095-0.06-0.34-0.19-0.4-0.018-0.045 0.108 0.067 0.215 0.105 0.27 0.028 0.038 0.065 0.082 0.085 0.125 0.012 0.028 0.015 0.058 0.027 0.088l0.087 0.223a0.8 0.8 0 0 0 0.062 0.103c0.013 0.018 0.037 0.027 0.042 0.057-0.023 0.033-0.025 0.083-0.038 0.125-0.06 0.188-0.037 0.422 0.048 0.56 0.027 0.042 0.1 0.133 0.175 0.098 0.075-0.03 0.058-0.125 0.08-0.208 5e-3 -0.02 2e-3 -0.033 0.012-0.047v3e-3l0.068 0.138c0.052 0.082 0.142 0.167 0.217 0.223 0.04 0.03 0.072 0.082 0.122 0.1v-5e-3h-7e-3c-0.01-0.015-0.025-0.022-0.038-0.033a0.81 0.81 0 0 1-0.087-0.1 2.15 2.15 0 0 1-0.187-0.303c-0.027-0.052-0.05-0.108-0.072-0.16-0.01-0.02-0.01-0.05-0.027-0.06-0.025 0.037-0.062 0.068-0.08 0.113-0.032 0.072-0.035 0.16-0.047 0.252-0.06-0.01-0.078-0.065-0.098-0.112-0.05-0.118-0.058-0.31-0.015-0.445 0.012-0.035 0.062-0.145 0.042-0.178-0.01-0.032-0.043-0.05-0.062-0.075-0.022-0.032-0.045-0.072-0.06-0.107-0.029-0.094-0.059-0.198-0.102-0.291-0.02-0.043-0.055-0.087-0.084-0.127-0.031-0.046-0.066-0.078-0.091-0.13-9e-3 -0.02-0.02-0.05-7e-3 -0.07 3e-3 -0.013 0.01-0.018 0.023-0.022 0.022-0.018 0.083 5e-3 0.105 0.015 0.062 0.025 0.113 0.048 0.165 0.083 0.023 0.017 0.048 0.048 0.078 0.057h0.035c0.053 0.012 0.113 3e-3 0.163 0.018 0.088 0.028 0.168 0.07 0.24 0.115a1.48 1.48 0 0 1 0.52 0.57c0.02 0.038 0.028 0.073 0.047 0.113l0.113 0.245c0.035 0.078 0.068 0.158 0.118 0.223 0.025 0.035 0.125 0.053 0.17 0.072 0.033 0.015 0.085 0.028 0.115 0.047l0.167 0.113c0.027 0.02 0.1 0.062 0.115 0.095z" style="fill-rule:evenodd;fill:#00678c"/>
  <path d="m1.22 1.457c-0.028 0-0.048 3e-3 -0.068 8e-3v3e-3h3e-3c0.013 0.027 0.037 0.045 0.053 0.068l0.038 0.08 3e-3 -3e-3c0.023-0.017 0.035-0.043 0.035-0.083-0.01-0.012-0.012-0.023-0.02-0.035-0.01-0.017-0.032-0.025-0.045-0.038z" style="fill-rule:evenodd;fill:#00678c"/>
  <path d="M10.064 3.34h1.434c.168 0 .328-.034.458-.095.217-.1.32-.233.32-.408v-.366c0-.14-.118-.275-.354-.366a1.25 1.25 0 0 0-.423-.072h-.602c-.202 0-.297-.06-.324-.194-.004-.015-.004-.03-.004-.046v-.225c0-.012 0-.027.004-.042.027-.103.08-.13.256-.15h1.468v-.332H10.9c-.202 0-.31.012-.404.042-.294.09-.423.236-.423.492v.29c0 .225.252.416.68.46.046.004.095.004.145.004h.515c.02 0 .038 0 .053.004.156.015.225.042.27.1.03.03.038.057.038.092v.29c0 .034-.023.08-.07.118s-.118.065-.214.07c-.02 0-.03.004-.05.004h-1.376zm5.315-.576c0 .34.256.53.767.568l.145.008h1.296V3.01H16.28c-.3 0-.4-.072-.4-.248V1.045h-.5v1.72zm-2.787.015V1.598c0-.3.213-.484.63-.54l.133-.008h.946c.05 0 .092.004.14.008.416.057.625.24.625.54V2.78c0 .244-.088.374-.294.46l.488.442h-.576l-.397-.358-.4.023h-.534c-.088 0-.187-.01-.3-.038-.316-.088-.473-.256-.473-.53zm.538-.026c0 .015.008.03.012.05.027.137.156.213.354.213h.45l-.412-.374h.576l.362.328c.07-.038.11-.092.126-.16.004-.015.004-.034.004-.05V1.63c0-.015 0-.03-.004-.046-.027-.13-.156-.202-.35-.202h-.75c-.22 0-.366.095-.366.248z" fill="#ce8b2c" fill-rule="evenodd"/>
  <path d="M3.445 3.342h.496V1.378l.774 1.712c.088.206.214.282.458.282s.362-.076.454-.282l.77-1.712v1.964h.5V1.378c0-.19-.076-.282-.236-.332-.377-.114-.63-.015-.744.24l-.76 1.693-.732-1.693c-.11-.255-.366-.354-.747-.24-.156.05-.233.14-.233.332v1.964zm3.863-1.598h.5v1.08c-.004.06.02.198.3.202H9.18v-1.29h.5v1.765c0 .435-.538.53-.79.534H7.32v-.332h1.575c.32-.034.282-.194.282-.248v-.13H8.12c-.492-.004-.808-.22-.812-.47V1.744z" fill="#00678c" fill-rule="evenodd"/>
</svg>
