<?xml version="1.0" encoding="UTF-8"?>
<svg width="711.2" height="383.6" version="1.1" viewBox="0 0 711.2 383.6" xmlns="http://www.w3.org/2000/svg">
  <title>PHP</title>
  <defs>
    <radialGradient id="radialGradient3452" cx="0" cy="0" r="1" gradientTransform="matrix(453.82 0 0 453.82 217.5 73.915)" gradientUnits="userSpaceOnUse">
      <stop style="stop-color:#aeb2d5" offset="0"/>
      <stop style="stop-color:#aeb2d5" offset=".3"/>
      <stop style="stop-color:#484c89" offset=".75"/>
      <stop style="stop-color:#484c89" offset="1"/>
    </radialGradient>
  </defs>
  <path d="m10 191.8c0 100.4 154.73 181.8 345.6 181.8s345.6-81.395 345.6-181.8c0-100.4-154.74-181.8-345.6-181.8s-345.6 81.396-345.6 181.8" style="fill:url(#radialGradient3452)"/>
  <path d="m355.6 360.1c183.41 0 332.1-75.351 332.1-168.3 0-92.949-148.69-168.3-332.1-168.3s-332.1 75.352-332.1 168.3c0 92.95 148.69 168.3 332.1 168.3" style="fill:#777bb3"/>
  <path d="m197.77 212.67c15.081 0 26.34-2.7812 33.464-8.2638 7.0475-5.4262 11.915-14.828 14.466-27.941 2.3788-12.258 1.4725-20.816-2.6925-25.435-4.2588-4.7175-13.466-7.11-27.366-7.11h-24.101l-13.361 68.75zm-78.829 84.688c-1.1188 0-2.1812-0.5-2.8925-1.365-0.7125-0.86375-1.0012-2.0012-0.7875-3.1l35.41-182.19c0.3425-1.7612 1.8862-3.0338 3.6812-3.0338h76.318c23.985 0 41.838 6.5125 53.059 19.359 11.281 12.914 14.765 30.965 10.354 53.651-1.795 9.2425-4.8825 17.826-9.1762 25.511-4.2988 7.6938-9.98 14.812-16.889 21.162-8.27 7.74-17.63 13.352-27.795 16.655-10.004 3.2588-22.851 4.9112-38.185 4.9112h-30.902l-8.825 45.402c-0.3425 1.7625-1.885 3.035-3.68 3.035z" style="fill:#000000"/>
  <path d="m194.63 147.66h21.01c16.776 0 22.604 3.6812 24.584 5.875 3.285 3.6425 3.905 11.322 1.7938 22.209-2.3725 12.188-6.77 20.829-13.072 25.681-6.4525 4.9675-16.942 7.485-31.176 7.485h-15.042zm36.039-43.75h-76.319c-3.59 0-6.6762 2.545-7.3612 6.0688l-35.41 182.19c-0.4275 2.1988 0.15 4.4725 1.5738 6.2012 1.425 1.7288 3.5475 2.7288 5.7875 2.7288h39.688c3.5912 0 6.6775-2.545 7.3625-6.0688l8.235-42.369h27.811c15.728 0 28.968-1.715 39.349-5.0962 10.676-3.4688 20.499-9.35 29.192-17.48 7.19-6.615 13.112-14.04 17.6-22.071 4.4888-8.0338 7.7138-16.992 9.585-26.628 4.6438-23.88 0.87125-43.002-11.211-56.832-11.965-13.698-30.768-20.642-55.882-20.642m-57.041 112.5h24.141c16.001 0 27.92-3.0138 35.751-9.0425 7.8325-6.03 13.115-16.094 15.86-30.196 2.6262-13.54 1.43-23.095-3.5888-28.661-5.025-5.5662-15.074-8.35-30.151-8.35h-27.192l-14.82 76.25m57.041-105c22.959 0 39.708 6.025 50.235 18.076 10.526 12.051 13.696 28.872 9.4962 50.469-1.7288 8.8962-4.6525 17.03-8.7688 24.399-4.1212 7.3738-9.5025 14.116-16.152 20.23-7.925 7.4162-16.729 12.701-26.416 15.849-9.6875 3.1562-22.026 4.7275-37.026 4.7275h-33.995l-9.4138 48.438h-39.688l35.41-182.19h76.319" style="fill:#ffffff"/>
  <path d="m385.08 248.92c-1.12 0-2.1812-0.5-2.8925-1.365-0.71375-0.86375-1.0025-2-0.78875-3.1l15.664-80.611c1.49-7.6662 1.1225-13.169-1.0338-15.494-1.32-1.4212-5.285-3.805-17.009-3.805h-28.378l-19.694 101.34c-0.3425 1.7625-1.8862 3.035-3.6812 3.035h-39.375c-1.12 0-2.1812-0.5-2.8938-1.365-0.7125-0.86375-1.0012-2.0012-0.7875-3.1l35.41-182.19c0.3425-1.7612 1.8862-3.0338 3.6812-3.0338h39.375c1.12 0 2.1812 0.5 2.8938 1.3638 0.7125 0.865 1.0012 2.0012 0.7875 3.1012l-8.545 43.972h30.528c23.256 0 39.026 4.1 48.211 12.535 9.3625 8.605 12.284 22.364 8.6838 40.899l-16.475 84.781c-0.3425 1.7625-1.885 3.035-3.6812 3.035z" style="fill:#000000"/>
  <path d="m362.68 55.477h-39.375c-3.5912 0-6.6775 2.545-7.3625 6.0688l-35.41 182.19c-0.4275 2.1988 0.15 4.4725 1.575 6.2012 1.425 1.7288 3.5475 2.7288 5.7875 2.7288h39.375c3.59 0 6.6775-2.545 7.3625-6.0688l19.104-98.306h25.286c11.704 0 14.16 2.5 14.259 2.6075 0.71 0.76376 1.6438 4.3013 0.1025 12.226l-15.664 80.611c-0.4275 2.1987 0.15 4.4725 1.575 6.2012s3.5475 2.7288 5.7875 2.7288h40c3.59 0 6.6775-2.545 7.3625-6.0688l16.474-84.781c3.8662-19.901 0.55875-34.83-9.8262-44.375-9.91-9.1012-26.51-13.525-50.749-13.525h-25.98l7.6788-39.506c0.42625-2.1988-0.15-4.4738-1.575-6.2012-1.425-1.7288-3.5475-2.73-5.7875-2.73m0 7.5-9.4138 48.437h35.078c22.071 0 37.295 3.8525 45.674 11.548 8.3788 7.7 10.889 20.176 7.54 37.422l-16.475 84.78h-40l15.664-80.61c1.7825-9.17 1.1275-15.425-1.9675-18.76-3.0962-3.335-9.6825-5.005-19.756-5.005h-31.47l-20.282 104.38h-39.375l35.41-182.19h39.375" style="fill:#ffffff"/>
  <path d="m507.54 212.67c15.081 0 26.34-2.7812 33.464-8.2638 7.0475-5.425 11.915-14.826 14.468-27.941 2.3788-12.258 1.4725-20.816-2.6938-25.435-4.2588-4.7175-13.466-7.11-27.366-7.11h-24.101l-13.361 68.75zm-78.828 84.688c-1.1188 0-2.1812-0.5-2.8925-1.365-0.7125-0.86375-1.0025-2.0012-0.78875-3.1l35.41-182.19c0.34375-1.7612 1.8862-3.0338 3.6825-3.0338h76.316c23.986 0 41.838 6.5125 53.06 19.359 11.281 12.912 14.764 30.964 10.354 53.651-1.7975 9.2425-4.8838 17.826-9.1775 25.511-4.2988 7.6938-9.98 14.812-16.889 21.162-8.27 7.74-17.63 13.352-27.795 16.655-10.004 3.2588-22.851 4.9112-38.185 4.9112h-30.904l-8.8212 45.402c-0.34375 1.7625-1.8862 3.035-3.6825 3.035z" style="fill:#000000"/>
  <path d="m504.4 147.66h21.01c16.776 0 22.604 3.6812 24.584 5.875 3.2862 3.6425 3.9062 11.322 1.7938 22.208-2.3725 12.189-6.7712 20.83-13.072 25.682-6.4525 4.9675-16.942 7.485-31.176 7.485h-15.041zm36.039-43.75h-76.318c-3.59 0-6.6762 2.545-7.3612 6.0688l-35.41 182.19c-0.4275 2.1988 0.15 4.4725 1.5738 6.2012 1.425 1.7288 3.5475 2.7288 5.7875 2.7288h39.688c3.59 0 6.6775-2.545 7.3625-6.0688l8.2338-42.369h27.811c15.728 0 28.968-1.715 39.349-5.0962 10.676-3.4688 20.501-9.3512 29.195-17.482 7.19-6.6138 13.11-14.038 17.598-22.069 4.4888-8.0338 7.7138-16.992 9.585-26.628 4.6438-23.881 0.87125-43.004-11.211-56.834-11.965-13.696-30.766-20.641-55.882-20.641m-57.04 112.5h24.14c16.001 0 27.92-3.0138 35.751-9.0425 7.8338-6.03 13.115-16.094 15.86-30.196 2.6275-13.54 1.4312-23.095-3.5888-28.661-5.025-5.5662-15.074-8.35-30.151-8.35h-27.192l-14.819 76.25m57.04-105c22.959 0 39.708 6.025 50.235 18.076s13.696 28.872 9.4962 50.469c-1.7288 8.8962-4.6525 17.03-8.7688 24.399-4.1212 7.3738-9.5025 14.116-16.152 20.23-7.925 7.4162-16.729 12.701-26.416 15.849-9.6875 3.1562-22.026 4.7275-37.026 4.7275h-33.995l-9.4125 48.438h-39.688l35.41-182.19h76.318" style="fill:#ffffff"/>
</svg>
