<?xml version="1.0" encoding="UTF-8"?>
<svg width="73" height="73" version="1.1" viewBox="0 0 73 73" xmlns="http://www.w3.org/2000/svg">
  <g fill="none">
    <rect x="1" y="1" width="71" height="71" rx="14" fill="#ffffff" stroke="#172550" stroke-width="2"/>
    <path d="m31 48h8v4h-8z" fill="#445ea0"/>
    <path d="m43 52h-18.501c-0.27425 0-0.49856 0.19254-0.49856 0.42784v2.1443c0 0.2353 0.22441 0.42784 0.49856 0.42784h18.501z" fill="#293d7c"/>
    <path d="m57.479 17h-44.957c-0.28674 0-0.52136 0.2368-0.52136 0.52621v29.948c0 0.28951 0.23462 0.52621 0.52136 0.52621h31.857v-15.756c0-0.39801 0.32087-0.72197 0.71531-0.72197h12.906v-13.996c0-0.2894-0.23462-0.52621-0.52136-0.52621z" fill="#293d7c"/>
    <path d="m14 41.698c0 0.16626 0.13928 0.30211 0.3096 0.30211h29.473v-10.347c0-0.38099 0.31759-0.6911 0.70801-0.6911h10.509v-8.9616h-41z" fill="#ffffff"/>
    <path d="m15.733 41.698v-19.698h-1.7327v19.698c0 0.16626 0.12024 0.30211 0.26729 0.30211h1.7327c-0.14705 0-0.26729-0.13595-0.26729-0.30211z" fill="#d9eafc"/>
    <circle cx="34.9" cy="44.9" r="1.5" fill="#445ea0"/>
    <path d="m43.8 33h-5.681c-0.17546 0-0.31901 0.14397-0.31901 0.31993v6.3601c0 0.17596 0.14356 0.31993 0.31901 0.31993h5.681z" fill="#c3ddf4"/>
    <path d="m45.191 30.438h4.8094v-5.9807c0-0.25155-0.23212-0.45737-0.51583-0.45737h-28.968c-0.28371 0-0.51583 0.20582-0.51583 0.45737v6.0853c0 0.25155 0.23212 0.45737 0.51583 0.45737h23.959c0.04374-0.31613 0.34798-0.56192 0.71608-0.56192z" fill="#c3ddf4"/>
    <path d="m54.69 19h-40.381c-0.17033 0-0.3096 0.16514-0.3096 0.36722v2.6328h41v-2.6328c0-0.20208-0.13938-0.36722-0.3096-0.36722z" fill="#ffaf10"/>
    <path d="M 16,19 H 14.26729 C 14.120241,19 14,19.165141 14,19.36722 V 22 h 1.732623 V 19.36722 C 15.73271,19.165141 15.852951,19 16,19 Z" fill="#ff9518"/>
    <path d="m28.863 34.721h-8.0642c-0.39684 0-0.71856-0.36152-0.71856-0.80769s0.32172-0.80769 0.71856-0.80769h8.0642c0.39684 0 0.71856 0.36152 0.71856 0.80769s-0.32172 0.80769-0.71856 0.80769z" style="fill:#5dc1d8"/>
    <path d="m28.863 37.358h-8.0642c-0.39684 0-0.71856-0.36152-0.71856-0.80769 0-0.44617 0.32172-0.80769 0.71856-0.80769h8.0642c0.39684 0 0.71856 0.36152 0.71856 0.80769 0 0.44606-0.32172 0.80769-0.71856 0.80769z" style="fill:#5dc1d8"/>
    <path d="m28.863 39.995h-8.0642c-0.39684 0-0.71856-0.36152-0.71856-0.80769s0.32172-0.80769 0.71856-0.80769h8.0642c0.39684 0 0.71856 0.36152 0.71856 0.80769s-0.32172 0.80769-0.71856 0.80769z" style="fill:#5dc1d8"/>
    <path d="m35.191 34.721h-4.151c-0.39684 0-0.71856-0.36152-0.71856-0.80769s0.32172-0.80769 0.71856-0.80769h4.151c0.39684 0 0.71856 0.36152 0.71856 0.80769s-0.32172 0.80769-0.71856 0.80769z" style="fill:#5dc1d8"/>
    <path d="m35.191 37.358h-4.151c-0.39684 0-0.71856-0.36152-0.71856-0.80769 0-0.44617 0.32172-0.80769 0.71856-0.80769h4.151c0.39684 0 0.71856 0.36152 0.71856 0.80769 0 0.44606-0.32172 0.80769-0.71856 0.80769z" style="fill:#5dc1d8"/>
    <path d="m35.191 39.995h-4.151c-0.39684 0-0.71856-0.36152-0.71856-0.80769s0.32172-0.80769 0.71856-0.80769h4.151c0.39684 0 0.71856 0.36152 0.71856 0.80769s-0.32172 0.80769-0.71856 0.80769z" style="fill:#5dc1d8"/>
    <path d="m61.225 30c0.42622 0 0.77494 0.37708 0.77494 0.83796v25.324c0 0.46088-0.34872 0.83796-0.77494 0.83796h-17.45c-0.42622 0-0.77494-0.37708-0.77494-0.83796v-25.324c0-0.46088 0.34872-0.83796 0.77494-0.83796z" fill="#445ea0"/>
    <path d="m44.492 52c-0.2704 0-0.49163-0.22399-0.49163-0.49776v-20.004c0-0.27377 0.22124-0.49776 0.49163-0.49776h15.017c0.2704 0 0.49163 0.22399 0.49163 0.49776v20.004c0 0.27377-0.22124 0.49776-0.49163 0.49776z" fill="#ffffff"/>
    <path d="m46.396 51.502v-20.004c0-0.27377 0.27172-0.49776 0.60382-0.49776h-2.3962c-0.3321 0-0.60382 0.22399-0.60382 0.49776v20.004c0 0.27377 0.27172 0.49776 0.60382 0.49776h2.3962c-0.3321 0-0.60382-0.22399-0.60382-0.49776z" fill="#d9eafc"/>
    <path d="m51.522 55c-0.28723 0-0.52223-0.18836-0.52223-0.41858v-0.16283c0-0.23022 0.235-0.41858 0.52223-0.41858h1.9555c0.28723 0 0.52223 0.18836 0.52223 0.41858v0.16283c0 0.23022-0.235 0.41858-0.52223 0.41858z" fill="#293d7c"/>
    <path d="m60 33v-1.4817c0-0.28508-0.22124-0.51832-0.49163-0.51832h-15.017c-0.2704 0-0.49163 0.23324-0.49163 0.51832v1.4817z" fill="#ffaf10"/>
    <path d="m47 31h-2.3962c-0.3321 0-0.60382 0.23324-0.60382 0.51832v1.4817h2.3962v-1.4817c0-0.28508 0.27172-0.51832 0.60382-0.51832z" fill="#ff9518"/>
    <rect x="47" y="34" width="12" height="5" rx="1" fill="#c3ddf4"/>
    <rect x="47" y="40" width="12" height="1.5" rx=".75" style="fill:#5dc1d8"/>
    <rect x="47" y="42.25" width="12" height="1.5" rx=".75" style="fill:#5dc1d8"/>
    <rect x="47" y="44.5" width="12" height="1.5" rx=".75" style="fill:#5dc1d8"/>
    <rect x="47" y="46.75" width="12" height="1.5" rx=".75" style="fill:#5dc1d8"/>
    <rect x="47" y="49" width="12" height="1.5" rx=".75" style="fill:#5dc1d8"/>
  </g>
</svg>
