<?xml version="1.0" encoding="UTF-8"?>
<svg enable-background="new 0 0 198.13 197.58" overflow="visible" version="1.1" viewBox="0 0 198.13 197.58" xmlns="http://www.w3.org/2000/svg" xmlns:xlink="http://www.w3.org/1999/xlink">
  <title>Ruby</title>
  <defs>
    <linearGradient id="XMLID_18_-7" x1="194.9" x2="141.03" y1="153.56" y2="117.41" gradientUnits="userSpaceOnUse">
      <stop style="stop-color:#871101" offset="0"/>
      <stop style="stop-color:#911209" offset=".99"/>
      <stop style="stop-color:#911209" offset="1"/>
    </linearGradient>
    <linearGradient id="XMLID_19_-4" x1="151.8" x2="97.93" y1="217.79" y2="181.64" gradientUnits="userSpaceOnUse">
      <stop style="stop-color:#871101" offset="0"/>
      <stop style="stop-color:#911209" offset=".99"/>
      <stop style="stop-color:#911209" offset="1"/>
    </linearGradient>
    <linearGradient id="XMLID_20_-9" x1="38.696" x2="47.047" y1="127.39" y2="181.66" gradientUnits="userSpaceOnUse">
      <stop style="stop-color:#FFFFFF" offset="0"/>
      <stop style="stop-color:#E57252" offset=".23"/>
      <stop style="stop-color:#DE3B20" offset=".46"/>
      <stop style="stop-color:#A60003" offset=".99"/>
      <stop style="stop-color:#A60003" offset="1"/>
    </linearGradient>
    <linearGradient id="XMLID_21_-3" x1="96.133" x2="99.21" y1="76.715" y2="132.1" gradientUnits="userSpaceOnUse">
      <stop style="stop-color:#FFFFFF" offset="0"/>
      <stop style="stop-color:#E4714E" offset=".23"/>
      <stop style="stop-color:#BE1A0D" offset=".56"/>
      <stop style="stop-color:#A80D00" offset=".99"/>
      <stop style="stop-color:#A80D00" offset="1"/>
    </linearGradient>
    <linearGradient id="XMLID_22_-7" x1="147.1" x2="156.31" y1="25.521" y2="65.216" gradientUnits="userSpaceOnUse">
      <stop style="stop-color:#FFFFFF" offset="0"/>
      <stop style="stop-color:#E46342" offset=".18"/>
      <stop style="stop-color:#C82410" offset=".4"/>
      <stop style="stop-color:#A80D00" offset=".99"/>
      <stop style="stop-color:#A80D00" offset="1"/>
    </linearGradient>
    <linearGradient id="XMLID_23_-9" x1="118.98" x2="158.67" y1="11.542" y2="-8.3048" gradientUnits="userSpaceOnUse">
      <stop style="stop-color:#FFFFFF" offset="0"/>
      <stop style="stop-color:#C81F11" offset=".54"/>
      <stop style="stop-color:#BF0905" offset=".99"/>
      <stop style="stop-color:#BF0905" offset="1"/>
    </linearGradient>
    <linearGradient id="XMLID_24_-3" x1="3.9033" x2="7.1702" y1="113.55" y2="146.26" gradientUnits="userSpaceOnUse">
      <stop style="stop-color:#FFFFFF" offset="0"/>
      <stop style="stop-color:#DE4024" offset=".31"/>
      <stop style="stop-color:#BF190B" offset=".99"/>
      <stop style="stop-color:#BF190B" offset="1"/>
    </linearGradient>
    <linearGradient id="XMLID_25_-9" x1="-18.556" x2="135.02" y1="155.1" y2="-2.8093" gradientUnits="userSpaceOnUse">
      <stop style="stop-color:#BD0012" offset="0"/>
      <stop style="stop-color:#FFFFFF" offset=".07"/>
      <stop style="stop-color:#FFFFFF" offset=".17"/>
      <stop style="stop-color:#C82F1C" offset=".27"/>
      <stop style="stop-color:#820C01" offset=".33"/>
      <stop style="stop-color:#A31601" offset=".46"/>
      <stop style="stop-color:#B31301" offset=".72"/>
      <stop style="stop-color:#E82609" offset=".99"/>
      <stop style="stop-color:#E82609" offset="1"/>
    </linearGradient>
    <linearGradient id="XMLID_26_-2" x1="99.075" x2="52.818" y1="171.03" y2="159.62" gradientUnits="userSpaceOnUse">
      <stop style="stop-color:#8C0C01" offset="0"/>
      <stop style="stop-color:#990C00" offset=".54"/>
      <stop style="stop-color:#A80D0E" offset=".99"/>
      <stop style="stop-color:#A80D0E" offset="1"/>
    </linearGradient>
    <linearGradient id="XMLID_27_-1" x1="178.53" x2="137.43" y1="115.51" y2="78.684" gradientUnits="userSpaceOnUse">
      <stop style="stop-color:#7E110B" offset="0"/>
      <stop style="stop-color:#9E0C00" offset=".99"/>
      <stop style="stop-color:#9E0C00" offset="1"/>
    </linearGradient>
    <linearGradient id="XMLID_28_-1" x1="193.62" x2="173.15" y1="47.937" y2="26.054" gradientUnits="userSpaceOnUse">
      <stop style="stop-color:#79130D" offset="0"/>
      <stop style="stop-color:#9E120B" offset=".99"/>
      <stop style="stop-color:#9E120B" offset="1"/>
    </linearGradient>
    <radialGradient id="XMLID_29_-4" cx="143.83" cy="79.388" r="50.358" gradientUnits="userSpaceOnUse">
      <stop style="stop-color:#A80D00" offset="0"/>
      <stop style="stop-color:#7E0E08" offset=".99"/>
      <stop style="stop-color:#7E0E08" offset="1"/>
    </radialGradient>
    <radialGradient id="XMLID_30_-6" cx="74.092" cy="145.75" r="66.944" gradientUnits="userSpaceOnUse">
      <stop style="stop-color:#A30C00" offset="0"/>
      <stop style="stop-color:#800E08" offset=".99"/>
      <stop style="stop-color:#800E08" offset="1"/>
    </radialGradient>
    <linearGradient id="XMLID_31_-6" x1="26.67" x2="9.9887" y1="197.34" y2="140.74" gradientUnits="userSpaceOnUse">
      <stop style="stop-color:#8B2114" offset="0"/>
      <stop style="stop-color:#9E100A" offset=".43"/>
      <stop style="stop-color:#B3100C" offset=".99"/>
      <stop style="stop-color:#B3100C" offset="1"/>
    </linearGradient>
    <linearGradient id="XMLID_32_-0" x1="154.64" x2="192.04" y1="9.7979" y2="26.306" gradientUnits="userSpaceOnUse">
      <stop style="stop-color:#B31000" offset="0"/>
      <stop style="stop-color:#910F08" offset=".44"/>
      <stop style="stop-color:#791C12" offset=".99"/>
      <stop style="stop-color:#791C12" offset="1"/>
    </linearGradient>
    <linearGradient id="linearGradient3448" x1="174.07" x2="132.28" y1="215.55" y2="141.75" gradientUnits="userSpaceOnUse">
      <stop style="stop-color:#FB7655" offset="0"/>
      <stop style="stop-color:#E42B1E" offset=".41"/>
      <stop style="stop-color:#990000" offset=".99"/>
      <stop style="stop-color:#990000" offset="1"/>
    </linearGradient>
  </defs>
  <polygon points="153.5 130.41 40.38 197.58 186.85 187.64 198.13 39.95" clip-rule="evenodd" style="fill-rule:evenodd;fill:url(#linearGradient3448)"/>
  <polygon points="187.09 187.54 174.5 100.65 140.21 145.93" clip-rule="evenodd" style="fill-rule:evenodd;fill:url(#XMLID_18_-7)"/>
  <polygon points="187.26 187.54 95.03 180.3 40.87 197.39" clip-rule="evenodd" style="fill-rule:evenodd;fill:url(#XMLID_19_-4)"/>
  <polygon points="41 197.41 64.04 121.93 13.34 132.77" clip-rule="evenodd" style="fill-rule:evenodd;fill:url(#XMLID_20_-9)"/>
  <polygon points="140.2 146.18 119 63.14 58.33 120.01" clip-rule="evenodd" style="fill-rule:evenodd;fill:url(#XMLID_21_-3)"/>
  <polygon points="193.32 64.31 135.97 17.47 120 69.1" clip-rule="evenodd" style="fill-rule:evenodd;fill:url(#XMLID_22_-7)"/>
  <polygon points="166.5 0.77 132.77 19.41 111.49 0.52" clip-rule="evenodd" style="fill-rule:evenodd;fill:url(#XMLID_23_-9)"/>
  <polygon points="0 158.09 14.13 132.32 2.7 101.62" clip-rule="evenodd" style="fill-rule:evenodd;fill:url(#XMLID_24_-3)"/>
  <path d="m1.94 100.65 11.5 32.62 49.97-11.211 57.05-53.02 16.1-51.139-25.351-17.9-43.1 16.13c-13.579 12.63-39.929 37.62-40.879 38.09-0.94 0.48-17.4 31.59-25.29 46.43z" clip-rule="evenodd" style="fill-rule:evenodd;fill:#ffffff"/>
  <path d="m42.32 42.05c29.43-29.18 67.37-46.42 81.93-31.73 14.551 14.69-0.88 50.39-30.31 79.56s-66.9 47.36-81.45 32.67c-14.56-14.68 0.4-51.33 29.83-80.5z" clip-rule="evenodd" style="fill-rule:evenodd;fill:url(#XMLID_25_-9)"/>
  <path d="m41 197.38 22.86-75.72 75.92 24.39c-27.45 25.74-57.98 47.5-98.78 51.33z" clip-rule="evenodd" style="fill-rule:evenodd;fill:url(#XMLID_26_-2)"/>
  <path d="m120.56 68.89 19.49 77.2c22.93-24.11 43.51-50.03 53.589-82.09l-73.079 4.89z" clip-rule="evenodd" style="fill-rule:evenodd;fill:url(#XMLID_27_-1)"/>
  <path d="m193.44 64.39c7.8-23.54 9.6-57.31-27.181-63.58l-30.18 16.67 57.361 46.91z" clip-rule="evenodd" style="fill-rule:evenodd;fill:url(#XMLID_28_-1)"/>
  <path d="m0 157.75c1.08 38.851 29.11 39.43 41.05 39.771l-27.58-64.411-13.47 24.64z" clip-rule="evenodd" style="fill-rule:evenodd;fill:#9e1209"/>
  <path d="m120.67 69.01c17.62 10.83 53.131 32.58 53.851 32.98 1.119 0.63 15.31-23.93 18.53-37.81l-72.381 4.83z" clip-rule="evenodd" style="fill-rule:evenodd;fill:url(#XMLID_29_-4)"/>
  <path d="m63.83 121.66 30.56 58.96c18.07-9.8 32.22-21.74 45.18-34.53l-75.74-24.43z" clip-rule="evenodd" style="fill-rule:evenodd;fill:url(#XMLID_30_-6)"/>
  <path d="m13.35 133.19-4.33 51.56c8.17 11.16 19.41 12.13 31.2 11.26-8.53-21.23-25.57-63.68-26.87-62.82z" clip-rule="evenodd" style="fill-rule:evenodd;fill:url(#XMLID_31_-6)"/>
  <path d="m135.9 17.61 60.71 8.52c-3.24-13.73-13.19-22.59-30.15-25.36l-30.56 16.84z" clip-rule="evenodd" style="fill-rule:evenodd;fill:url(#XMLID_32_-0)"/>
</svg>
