<?xml version="1.0" encoding="UTF-8"?>
<svg width="175" height="180" version="1.1" xmlns="http://www.w3.org/2000/svg" xmlns:xlink="http://www.w3.org/1999/xlink">
  <title>SQLite</title>
  <defs>
    <linearGradient id="linearGradient2995" x1="-15.615" x2="-6.741" y1="-9.1083" y2="-9.1083" gradientTransform="matrix(-5.025e-7 11.486 -11.486 -5.025e-7 -24.236 202.9)" gradientUnits="userSpaceOnUse">
      <stop style="stop-color:#97d9f6" offset="0"/>
      <stop style="stop-color:#0f80cc" offset=".92024"/>
      <stop style="stop-color:#0f80cc" offset="1"/>
    </linearGradient>
  </defs>
  <path d="m128.24 17.745h-99.506c-6.669 0-12.126 5.4575-12.126 12.126v109.74c0 6.6684 5.4565 12.125 12.126 12.125h65.537c-0.74387-32.609 10.392-95.894 33.969-133.99z" style="fill:#0f80cc"/>
  <path d="m124.62 21.282h-95.891c-4.7354 0-8.5889 3.8525-8.5889 8.5888v101.73c21.717-8.335 54.312-15.527 76.85-15.2 4.5289-23.681 17.839-70.09 27.63-95.119z" style="fill:url(#linearGradient2995)"/>
  <path d="m151.45 14.154c-6.815-6.0775-15.066-3.6362-23.21 3.5912-1.2088 1.0738-2.415 2.265-3.615 3.5375-13.931 14.779-26.862 42.154-30.88 63.06 1.565 3.1738 2.7875 7.2238 3.5925 10.318 0.20625 0.79375 0.3925 1.5388 0.54125 2.1725 0.35375 1.4999 0.54375 2.4725 0.54375 2.4725s-0.125-0.47262-0.6375-1.9588c-0.0975-0.285-0.20625-0.59625-0.335-0.9625-0.055-0.15125-0.13125-0.335-0.215-0.53125-0.90875-2.1125-3.4225-6.5712-4.5288-8.5125-0.94625 2.7912-1.7825 5.4025-2.4825 7.765 3.1938 5.8435 5.14 15.858 5.14 15.858s-0.16875-0.649-0.97125-2.9141c-0.7125-2.0034-4.2612-8.2211-5.1019-9.6748-1.438 5.3085-2.0094 8.8925-1.4941 9.7651 1.0004 1.6909 1.9531 4.6084 2.7898 7.8349 1.89 7.2686 3.2038 16.117 3.2038 16.117s0.0425 0.58637 0.11375 1.4888c-0.2625 6.104-0.105 12.433 0.3675 18.153 0.62625 7.5722 1.805 14.077 3.3075 17.558l1.02-0.55612c-2.2062-6.8589-3.1025-15.848-2.71-26.214 0.59375-15.845 4.24-34.954 10.977-54.87 11.382-30.065 27.175-54.188 41.629-65.708-13.174 11.898-31.004 50.409-36.341 64.67-5.9762 15.97-10.211 30.956-12.764 45.315 4.4037-13.461 18.642-19.247 18.642-19.247s6.9838-8.6129 15.145-20.918c-4.8888 1.115-12.916 3.0238-15.605 4.1538-3.9662 1.6638-5.035 2.2312-5.035 2.2312s12.848-7.8238 23.87-11.366c15.159-23.875 31.674-57.792 15.042-72.629" style="fill:#003b57"/>
</svg>
