<?xml version="1.0" encoding="UTF-8"?>
<title>TensorFlow</title>
<svg width="114.56" height="122.83" version="1.1" viewBox="0 0 30.311 32.5" xmlns="http://www.w3.org/2000/svg">
  <path d="m17.32 4.9997v5.0002l8.6599 5.0002v-5.0002zm-17.32 5.0002v5.0002l4.33 2.4996v-4.9997zm12.99 2.5001-4.33 2.5001v15l4.33 2.5001v-9.9999l4.3305 2.5001v-5.0002l-4.3305-2.5001z" style="fill:#e55b2d;stroke-width:.26458"/>
  <path d="m17.32 4.9997-12.99 7.5003v4.9997l8.6599-4.9997v4.9997l4.3305-2.4996zm12.99 2.5001-4.3305 2.5001v5.0002l4.3305-2.5001zm-8.6605 9.9999-4.33 2.5001v5.0002l4.33-2.5001zm-4.33 7.5003-4.3305-2.5001v9.9999l4.3305-2.5001z" style="fill:#ed8e24;stroke-width:.26458"/>
  <path d="m17.32-4.0633e-6 -17.32 9.9999 4.33 2.5001 12.99-7.5003 8.6599 5.0002 4.3305-2.5001zm0 15-4.3305 2.4996 4.3305 2.5001 4.33-2.5001z" style="fill:#f8bf3c;stroke-width:.26458"/>
</svg>
