<?xml version="1.0" encoding="UTF-8"?>
<svg width="1200" height="600" version="1.1" viewBox="0 0 1200 600" xmlns="http://www.w3.org/2000/svg">
  <defs>
    <filter id="filter0_d" x="-3.2222" y="45.044" width="64.511" height="20.992" color-interpolation-filters="sRGB" filterUnits="userSpaceOnUse">
      <feFlood flood-opacity="0" result="BackgroundImageFix"/>
      <feColorMatrix in="SourceAlpha" values="0 0 0 0 0 0 0 0 0 0 0 0 0 0 0 0 0 0 127 0"/>
      <feOffset dy="4"/>
      <feGaussianBlur stdDeviation="2"/>
      <feColorMatrix values="0 0 0 0 0 0 0 0 0 0 0 0 0 0 0 0 0 0 0.05 0"/>
      <feBlend in2="BackgroundImageFix" result="effect1_dropShadow"/>
      <feBlend in="SourceGraphic" in2="effect1_dropShadow" result="shape"/>
    </filter>
    <filter id="filter5" x="-.091331" y="-.079186" width="1.1826" height="1.1584" style="color-interpolation-filters:sRGB">
      <feGaussianBlur stdDeviation="11.091767"/>
    </filter>
  </defs>
  <rect width="1200" height="600" style="fill:#000000"/>
  <g transform="translate(0 -89.562)">
    <g transform="translate(-3e-5,-3.0288e-5)">
      <path d="m644.03 471.92-170.94-53.873v-37.297l170.94-53.873z" fill="#556080" style="stroke-width:5.1801"/>
      <path d="m557.4 471.32-59.136-19.161c-6.5062-2.1083-10.101-9.1533-7.9981-15.66 2.1083-6.5063 9.1532-10.101 15.659-7.9981l59.136 19.156c6.5062 2.1083 10.101 9.1533 7.9981 15.66-2.1083 6.5114-9.1533 10.106-15.66 8.0033z" stroke="#afb6bb" stroke-linecap="round" stroke-miterlimit="10" stroke-width="10.36" style="fill:none"/>
      <path d="m460.14 435.66c-7.1227 0-12.95-5.8277-12.95-12.95v-46.621c0-7.1227 5.8277-12.95 12.95-12.95 7.1227 0 12.95 5.8276 12.95 12.95v46.621c0 7.1227-5.8277 12.95-12.95 12.95z" fill="#424a60" style="stroke-width:5.1801"/>
      <path d="m659.57 497.82c-8.5472 0-15.54-6.9932-15.54-15.54v-165.76c0-8.5472 6.9932-15.54 15.54-15.54 8.5472 0 15.54 6.9932 15.54 15.54v165.76c0 8.5472-6.9932 15.54-15.54 15.54z" fill="#424a60" style="stroke-width:5.1801"/>
      <path d="m747.63 404.58h-5.1801c-2.8646 0-5.1801-2.3155-5.1801-5.1801s2.3155-5.1801 5.1801-5.1801h5.1801c2.8646 0 5.1801 2.3155 5.1801 5.1801s-2.3155 5.1801-5.1801 5.1801zm-20.721 0h-5.1801c-2.8646 0-5.1802-2.3155-5.1802-5.1801s2.3155-5.1801 5.1802-5.1801h5.1801c2.8646 0 5.1801 2.3155 5.1801 5.1801s-2.3155 5.1801-5.1801 5.1801zm-20.721 0h-5.1801c-2.8646 0-5.1801-2.3155-5.1801-5.1801s2.3155-5.1801 5.1801-5.1801h5.1801c2.8646 0 5.1801 2.3155 5.1801 5.1801s-2.3155 5.1801-5.1801 5.1801z" fill="#c7cac7" style="stroke-width:5.1801"/>
      <path d="m701.01 344.3c-1.3261 0-2.6522-0.50765-3.6624-1.5178-2.0254-2.0254-2.0254-5.2993 0-7.3247l3.6624-3.6624c2.0254-2.0254 5.2993-2.0254 7.3247 0 2.0254 2.0254 2.0254 5.2993 0 7.3247l-3.6624 3.6624c-1.0101 1.0153-2.3362 1.5178-3.6624 1.5178zm14.649-14.649c-1.3261 0-2.6522-0.50765-3.6624-1.5178-2.0254-2.0254-2.0254-5.2993 0-7.3247l3.6624-3.6624c2.0254-2.0254 5.2993-2.0254 7.3247 0 2.0254 2.0254 2.0254 5.2993 0 7.3247l-3.6624 3.6624c-1.0101 1.0101-2.3362 1.5178-3.6624 1.5178zm14.655-14.655c-1.3261 0-2.6522-0.50765-3.6624-1.5178-2.0254-2.0254-2.0254-5.2993 0-7.3247l3.6624-3.6624c2.0254-2.0254 5.2993-2.0254 7.3247 0 2.0254 2.0254 2.0254 5.2993 0 7.3247l-3.6624 3.6624c-1.0101 1.0101-2.3362 1.5178-3.6624 1.5178z" fill="#c7cac7" style="stroke-width:5.1801"/>
      <path d="m701.01 375.39c-2.1705 0-4.1907-1.3727-4.9108-3.5432-0.90652-2.7092 0.55428-5.6464 3.2738-6.5529l4.9108-1.6369c2.7092-0.91171 5.6464 0.55945 6.5529 3.2738 0.90653 2.7144-0.55427 5.6464-3.2738 6.5529l-4.9108 1.6369c-0.54392 0.18648-1.1034 0.26937-1.6421 0.26937zm19.659-6.5477c-2.1705 0-4.1907-1.3727-4.9108-3.5432-0.90653-2.7092 0.55427-5.6464 3.2738-6.5529l4.9108-1.6369c2.7144-0.91171 5.6464 0.55945 6.5529 3.2738 0.90652 2.7144-0.55428 5.6464-3.2738 6.5529l-4.9108 1.6369c-0.54391 0.18131-1.1034 0.26937-1.6421 0.26937zm19.659-6.5581c-2.1705 0-4.1959-1.3727-4.916-3.5484-0.90134-2.7092 0.56464-5.6464 3.2842-6.5529l4.9108-1.6317c2.704-0.89114 5.6464 0.56464 6.5529 3.2842 0.90135 2.7092-0.56463 5.6464-3.2842 6.5529l-4.9108 1.6317c-0.54392 0.17613-1.0982 0.26419-1.6369 0.26419z" fill="#c7cac7" style="stroke-width:5.1801"/>
      <path d="m733.98 497.82c-1.3261 0-2.6522-0.50765-3.6624-1.5178l-3.6624-3.6624c-2.0254-2.0254-2.0254-5.2993 0-7.3247 2.0254-2.0254 5.2993-2.0254 7.3247 0l3.6624 3.6624c2.0254 2.0254 2.0254 5.2993 0 7.3247-1.0101 1.0101-2.3362 1.5178-3.6624 1.5178zm-14.655-14.655c-1.3261 0-2.6522-0.50765-3.6624-1.5178l-3.6624-3.6624c-2.0254-2.0254-2.0254-5.2993 0-7.3247 2.0254-2.0254 5.2993-2.0254 7.3247 0l3.6624 3.6624c2.0254 2.0254 2.0254 5.2993 0 7.3247-1.0101 1.0101-2.3362 1.5178-3.6624 1.5178zm-14.649-14.649c-1.3261 0-2.6522-0.50765-3.6624-1.5178l-3.6624-3.6624c-2.0254-2.0254-2.0254-5.2993 0-7.3247 2.0254-2.0254 5.2993-2.0254 7.3247 0l3.6624 3.6624c2.0254 2.0254 2.0254 5.2993 0 7.3247-1.0101 1.0101-2.3362 1.5178-3.6624 1.5178z" fill="#c7cac7" style="stroke-width:5.1801"/>
      <path d="m745.24 448.51c-0.53874 0-1.093-0.0881-1.6317-0.26418l-4.9108-1.6318c-2.7144-0.90652-4.1856-3.8385-3.2842-6.5529 0.90135-2.7144 3.8437-4.1804 6.5529-3.2842l4.9108 1.6318c2.7144 0.90652 4.1856 3.8385 3.2842 6.5529-0.72522 2.1808-2.7506 3.5484-4.9211 3.5484zm-19.659-6.5477c-0.53873 0-1.0982-0.0881-1.6369-0.26936l-4.9108-1.6369c-2.7144-0.90652-4.1804-3.8385-3.2738-6.5529 0.90652-2.7144 3.8437-4.1907 6.5529-3.2738l4.9108 1.6369c2.7144 0.90652 4.1804 3.8385 3.2738 6.5529-0.72522 2.1705-2.7455 3.5432-4.916 3.5432zm-19.659-6.5529c-0.53874 0-1.0982-0.0881-1.6369-0.26937l-4.9108-1.6369c-2.7144-0.90652-4.1804-3.8385-3.2738-6.5529 0.90653-2.7144 3.8385-4.1907 6.5529-3.2738l4.9108 1.6369c2.7144 0.90653 4.1804 3.8385 3.2738 6.5529-0.72522 2.1757-2.7455 3.5432-4.916 3.5432z" fill="#c7cac7" style="stroke-width:5.1801"/>
      <g transform="matrix(5.1801 0 0 5.1801 447.19 298.39)" fill="#000000" filter="url(#filter0_d)" style="fill:#e6e6e6">
        <path d="m2.078 56.736 0.12-0.18c0.136-0.184 0.232-0.38 0.288-0.588 0.056-0.2 0.084-0.472 0.084-0.816v-5.292c0-0.104-0.016-0.184-0.048-0.24s-0.092-0.096-0.18-0.12l-0.564-0.132v-0.336c0.112-0.104 0.328-0.204 0.648-0.3s0.6-0.144 0.84-0.144c0.184 0 0.276 0.168 0.276 0.504v0.048c0.464-0.448 0.988-0.672 1.572-0.672 0.44 0 0.836 0.112 1.188 0.336s0.624 0.536 0.816 0.936c0.2 0.392 0.3 0.844 0.3 1.356 0 0.576-0.104 1.1-0.312 1.572-0.208 0.464-0.496 0.828-0.864 1.092-0.36 0.264-0.764 0.396-1.212 0.396-0.432 0-0.792-0.1-1.08-0.3-0.072-0.04-0.108-0.104-0.108-0.192 0-0.08 0.012-0.144 0.036-0.192 0.032-0.056 0.076-0.084 0.132-0.084 0.024 0 0.1 0.032 0.228 0.096 0.136 0.056 0.312 0.084 0.528 0.084 0.448 0 0.808-0.212 1.08-0.636 0.28-0.424 0.42-0.968 0.42-1.632 0-0.624-0.14-1.132-0.42-1.524-0.272-0.4-0.636-0.6-1.092-0.6-0.24 0-0.456 0.032-0.648 0.096s-0.38 0.172-0.564 0.324v6.096c0 0.28 0.028 0.476 0.084 0.588 0.064 0.112 0.188 0.188 0.372 0.228l0.216 0.048-0.096 0.324h-1.92zm11.881 0.3c-0.4 0-0.744-0.076-1.032-0.228-0.28-0.144-0.492-0.336-0.636-0.576-0.136-0.24-0.204-0.492-0.204-0.756 0-0.368 0.124-0.68 0.372-0.936s0.588-0.384 1.02-0.384c0.064 0 0.112 8e-3 0.144 0.024 0.032 0.024 0.048 0.052 0.048 0.084s-0.052 0.1-0.156 0.204c-0.096 0.112-0.184 0.244-0.264 0.396-0.072 0.152-0.108 0.344-0.108 0.576 0 0.288 0.084 0.528 0.252 0.72 0.176 0.2 0.408 0.3 0.696 0.3 0.448 0 0.78-0.188 0.996-0.564 0.216-0.368 0.324-0.864 0.324-1.488v-1.608c-0.176 0.32-0.432 0.572-0.768 0.756-0.328 0.184-0.696 0.276-1.104 0.276-0.512 0-0.912-0.156-1.2-0.468-0.28-0.32-0.42-0.764-0.42-1.332v-2.4c0-0.096-0.016-0.164-0.048-0.204s-0.088-0.06-0.168-0.06h-0.492l-0.084-0.264c0.184-0.192 0.408-0.348 0.672-0.468 0.272-0.12 0.52-0.18 0.744-0.18 0.104 0 0.188 0.032 0.252 0.096 0.072 0.056 0.108 0.132 0.108 0.228v3c0 0.432 0.088 0.76 0.264 0.984s0.428 0.336 0.756 0.336c0.488 0 0.868-0.18 1.14-0.54s0.408-0.868 0.408-1.524c0-0.6-0.024-1.044-0.072-1.332s-0.168-0.552-0.36-0.792l-0.12-0.168 0.12-0.156 1.332-0.132v5.784c0 0.888-0.216 1.576-0.648 2.064s-1.02 0.732-1.764 0.732zm8.3374-2.88c-0.296 0-0.528-0.092-0.696-0.276-0.168-0.192-0.252-0.452-0.252-0.78v-3.828h-0.948c0-0.192 0.016-0.316 0.048-0.372 0.032-0.064 0.104-0.112 0.216-0.144 0.384-0.096 0.656-0.256 0.816-0.48s0.28-0.52 0.36-0.888c0.016-0.112 0.052-0.18 0.108-0.204 0.064-0.032 0.2-0.048 0.408-0.048v1.464h1.404c0 0.152-0.024 0.288-0.072 0.408-0.04 0.12-0.096 0.208-0.168 0.264h-1.164v3.516c0 0.224 0.028 0.384 0.084 0.48 0.064 0.088 0.172 0.132 0.324 0.132 0.216 0 0.46-0.116 0.732-0.348l0.204 0.288c-0.184 0.24-0.408 0.436-0.672 0.588s-0.508 0.228-0.732 0.228zm6.5714 0c-0.296 0-0.528-0.092-0.696-0.276-0.168-0.192-0.252-0.452-0.252-0.78v-3.828h-0.948c0-0.192 0.016-0.316 0.048-0.372 0.032-0.064 0.104-0.112 0.216-0.144 0.384-0.096 0.656-0.256 0.816-0.48s0.28-0.52 0.36-0.888c0.016-0.112 0.052-0.18 0.108-0.204 0.064-0.032 0.2-0.048 0.408-0.048v1.464h1.404c0 0.152-0.024 0.288-0.072 0.408-0.04 0.12-0.096 0.208-0.168 0.264h-1.164v3.516c0 0.224 0.028 0.384 0.084 0.48 0.064 0.088 0.172 0.132 0.324 0.132 0.216 0 0.46-0.116 0.732-0.348l0.204 0.288c-0.184 0.24-0.408 0.436-0.672 0.588s-0.508 0.228-0.732 0.228zm7.0394 0c-0.544 0-0.996-0.124-1.356-0.372-0.36-0.256-0.54-0.588-0.54-0.996 0-0.24 0.084-0.44 0.252-0.6 0.176-0.168 0.396-0.252 0.66-0.252 0.056 0 0.108 0.012 0.156 0.036s0.072 0.056 0.072 0.096c0 0.024-0.024 0.096-0.072 0.216-0.048 0.112-0.072 0.248-0.072 0.408 0 0.296 0.104 0.524 0.312 0.684 0.216 0.16 0.456 0.24 0.72 0.24 0.304 0 0.552-0.08 0.744-0.24s0.288-0.368 0.288-0.624c0-0.232-0.104-0.424-0.312-0.576-0.2-0.152-0.492-0.308-0.876-0.468-0.352-0.152-0.648-0.296-0.888-0.432-0.232-0.136-0.432-0.316-0.6-0.54s-0.252-0.496-0.252-0.816c0-0.424 0.188-0.772 0.564-1.044s0.848-0.408 1.416-0.408c0.52 0 0.948 0.1 1.284 0.3 0.336 0.192 0.504 0.46 0.504 0.804 0 0.28-0.084 0.508-0.252 0.684s-0.388 0.264-0.66 0.264c-0.16 0-0.24-0.052-0.24-0.156 0-0.032 0.028-0.104 0.084-0.216 0.064-0.112 0.096-0.24 0.096-0.384 0-0.256-0.092-0.448-0.276-0.576-0.184-0.136-0.392-0.204-0.624-0.204-0.296 0-0.532 0.072-0.708 0.216-0.168 0.144-0.252 0.332-0.252 0.564 0 0.272 0.112 0.496 0.336 0.672 0.224 0.168 0.54 0.328 0.948 0.48 0.352 0.152 0.644 0.292 0.876 0.42s0.428 0.292 0.588 0.492c0.16 0.192 0.24 0.42 0.24 0.684 0 0.496-0.2 0.896-0.6 1.2-0.392 0.296-0.912 0.444-1.56 0.444zm10.41 0c-0.496 0-0.88-0.256-1.152-0.768l-0.888-1.5c-0.648 0.728-0.972 1.2-0.972 1.416 0 0.072 0.016 0.136 0.048 0.192 0.04 0.048 0.096 0.104 0.168 0.168l0.204 0.168-0.12 0.168h-1.692l-0.132-0.228c0.84-0.824 1.596-1.588 2.268-2.292l-1.2-2.04c-0.064-0.112-0.132-0.188-0.204-0.228-0.072-0.048-0.156-0.072-0.252-0.072-0.08 0-0.216 0.044-0.408 0.132l-0.24-0.312c0.304-0.328 0.64-0.492 1.008-0.492 0.504 0 0.888 0.248 1.152 0.744l0.876 1.488c0.64-0.736 0.96-1.212 0.96-1.428 0-0.064-0.016-0.12-0.048-0.168s-0.084-0.108-0.156-0.18l-0.24-0.168 0.144-0.156h1.704l0.108 0.216-0.288 0.288c-0.744 0.728-1.396 1.396-1.956 2.004l1.212 2.052c0.064 0.12 0.128 0.2 0.192 0.24 0.072 0.04 0.16 0.06 0.264 0.06 0.128 0 0.26-0.044 0.396-0.132l0.252 0.324c-0.176 0.176-0.344 0.304-0.504 0.384-0.152 0.08-0.32 0.12-0.504 0.12zm7.236 0c-0.44 0-0.852-0.068-1.236-0.204s-0.696-0.336-0.936-0.6c-0.232-0.264-0.348-0.584-0.348-0.96 0-0.336 0.108-0.608 0.324-0.816 0.224-0.216 0.5-0.324 0.828-0.324 0.096 0 0.16 8e-3 0.192 0.024 0.032 8e-3 0.048 0.04 0.048 0.096 0 0.024-0.032 0.084-0.096 0.18s-0.12 0.204-0.168 0.324c-0.04 0.112-0.06 0.252-0.06 0.42 0 0.36 0.136 0.644 0.408 0.852 0.28 0.208 0.62 0.312 1.02 0.312 0.424 0 0.792-0.132 1.104-0.396 0.32-0.264 0.48-0.644 0.48-1.14 0-0.416-0.136-0.792-0.408-1.128-0.264-0.336-0.752-0.504-1.464-0.504-0.248 0-0.448 0.02-0.6 0.06-0.152 0.032-0.244 0.048-0.276 0.048-0.112 0-0.168-0.06-0.168-0.18 0-0.096 0.032-0.168 0.096-0.216 0.072-0.056 0.244-0.108 0.516-0.156 0.824-0.152 1.372-0.396 1.644-0.732 0.28-0.344 0.42-0.72 0.42-1.128 0-0.424-0.136-0.752-0.408-0.984-0.272-0.24-0.588-0.36-0.948-0.36-0.336 0-0.624 0.1-0.864 0.3-0.232 0.192-0.348 0.464-0.348 0.816 0 0.184 0.024 0.34 0.072 0.468 0.056 0.12 0.112 0.228 0.168 0.324 0.056 0.088 0.084 0.14 0.084 0.156 0 0.088-0.076 0.132-0.228 0.132-0.336 0-0.616-0.108-0.84-0.324-0.216-0.216-0.324-0.492-0.324-0.828 0-0.52 0.224-0.924 0.672-1.212s0.988-0.432 1.62-0.432c0.424 0 0.832 0.072 1.224 0.216s0.708 0.36 0.948 0.648c0.248 0.28 0.372 0.62 0.372 1.02 0 0.464-0.14 0.864-0.42 1.2-0.28 0.328-0.676 0.588-1.188 0.78 0.592 0.136 1.044 0.392 1.356 0.768s0.468 0.816 0.468 1.32c0 0.688-0.248 1.22-0.744 1.596-0.488 0.376-1.152 0.564-1.992 0.564z" style="fill:#e6e6e6"/>
        <path d="m2.078 56.736-0.83205-0.5547-0.41418 0.6213 0.47801 0.5736zm0.12-0.18-0.80417-0.5944-0.01442 0.0195-0.01346 0.0202zm0.288-0.588-0.96301-0.2696-0.0026 0.0096zm-0.144-6.468 0.26312-0.9648-0.01754-0.0047-0.01769-0.0042zm-0.564-0.132h-1v0.793l0.77212 0.1807zm0-0.336-0.68045-0.7328-0.31955 0.2967v0.4361zm0.648-0.3 0.28735 0.9578zm1.116 0.408h-1v2.3556l1.6946-1.6362zm3.576 0.6-0.90152 0.4327 0.00525 0.011 0.00551 0.0108zm-0.012 2.928 0.91253 0.4091 0.00256-0.0058zm-0.864 1.092-0.58294-0.8126-0.00842 0.0062zm-2.292 0.096 0.5704-0.8214-0.04106-0.0285-0.0437-0.0243zm-0.072-0.384-0.86824-0.4961-0.01377 0.0241-0.01241 0.0248zm0.36 0.012-0.44721 0.8944 0.03268 0.0164 0.03378 0.0139zm1.608-0.552-0.83454-0.5511-0.00715 0.0111zm0-3.156-0.82692 0.5623 0.00648 0.0095 0.00671 0.0094zm-1.74-0.504-0.31623-0.9487zm-0.564 0.324-0.63688-0.771-0.36312 0.3v0.471zm0.084 6.684-0.89443 0.4472 0.01242 0.0248 0.01377 0.0241zm0.372 0.228 0.21694-0.9762-0.00451-1e-3zm0.216 0.048 0.9588 0.2841 0.30452-1.0278-1.0464-0.2325zm-0.096 0.324v1h0.74668l0.21212-0.7159zm-1.92 0-0.76822 0.6402 0.29985 0.3598h0.46837zm0.71205 0.4107 0.12-0.18-1.6641-1.1094-0.12 0.18zm0.09213-0.1403c0.20555-0.2781 0.359-0.5865 0.44944-0.9224l-1.9312-0.52c-0.02156 0.0801-0.06012 0.1637-0.12656 0.2536zm0.44679-0.9128c0.09136-0.3263 0.12103-0.7017 0.12103-1.0856h-2c0 0.3041-0.02633 0.4727-0.04696 0.5464zm0.12103-1.0856v-5.292h-2v5.292zm0-5.292c0-0.1823-0.02386-0.4633-0.17976-0.7361l-1.7365 0.9922c-0.0493-0.0862-0.06858-0.1592-0.07634-0.198-0.00787-0.0393-0.00742-0.0612-0.00742-0.0581zm-0.17976-0.7361c-0.20999-0.3675-0.54841-0.5241-0.78512-0.5887l-0.52624 1.9296c-0.06071-0.0166-0.27913-0.0932-0.42512-0.3487zm-0.82035-0.5976-0.564-0.132-0.45577 1.9474 0.564 0.132zm0.20811 0.8417v-0.336h-2v0.336zm-0.31955 0.3968c-0.01522 0.0141-0.02756 0.0239-0.03543 0.0298-0.00793 0.0059-0.01272 0.0089-0.01338 0.0093s0.00948-0.0059 0.03449-0.0174c0.05171-0.024 0.13803-0.0573 0.26922-0.0967l-0.5747-1.9156c-0.33245 0.0997-0.74657 0.2515-1.0411 0.525zm0.2549-0.075c0.26036-0.0781 0.43973-0.1018 0.55265-0.1018v-2c-0.36707 0-0.74771 0.0723-1.1274 0.1862zm0.55265-0.1018c-0.11137 0-0.25619-0.0273-0.3992-0.1143-0.14092-0.0858-0.22538-0.1963-0.27089-0.2794-0.07453-0.1361-0.05391-0.2118-0.05391-0.1023h2c0-0.2265-0.02538-0.5542-0.1919-0.8583-0.09151-0.1671-0.23348-0.3406-0.4434-0.4684-0.21201-0.129-0.43733-0.1773-0.6407-0.1773zm-0.724-0.496v0.048h2v-0.048zm1.6946 0.7674c0.29882-0.2885 0.58065-0.3914 0.8774-0.3914v-2c-0.87124 0-1.6374 0.3451-2.2666 0.9526zm0.8774-0.3914c0.2607 0 0.46852 0.0635 0.65113 0.1797l1.0738-1.6874c-0.5214-0.3318-1.1056-0.4923-1.7249-0.4923zm0.65113 0.1797c0.18435 0.1173 0.3348 0.2822 0.45135 0.525l1.803-0.8654c-0.26745-0.5572-0.66101-1.0163-1.1806-1.347zm0.46211 0.5468c0.11731 0.2299 0.19076 0.5217 0.19076 0.9015h2c0-0.6442-0.12655-1.2564-0.40924-1.8105zm0.19076 0.9015c0 0.4534-0.08128 0.8379-0.22708 1.1687l1.8302 0.8066c0.2702-0.6132 0.39691-1.2767 0.39691-1.9753zm-0.22451 1.1629c-0.14478 0.323-0.32698 0.5398-0.5344 0.6886l1.1658 1.625c0.52859-0.3792 0.92238-0.8904 1.1936-1.4954zm-0.54285 0.6947c-0.18783 0.1377-0.38452 0.2024-0.62064 0.2024v2c0.65989 0 1.2712-0.1993 1.8034-0.5896zm-0.62064 0.2024c-0.27593 0-0.42448-0.0623-0.5096-0.1214l-1.1408 1.6428c0.49087 0.3409 1.0623 0.4786 1.6504 0.4786zm-0.59436-0.1742c0.10546 0.0586 0.22157 0.1577 0.30494 0.3059 0.08144 0.1448 0.10142 0.2826 0.10142 0.3763h-2c0 0.1817 0.03798 0.3955 0.15543 0.6043 0.11937 0.2122 0.28947 0.3633 0.46693 0.4619zm0.40636 0.6822c0 0.0084-5e-4 0.0356-0.00813 0.0763-0.00761 0.0406-0.02415 0.1043-0.06144 0.1789l-1.7888-0.8944c-0.11909 0.2382-0.14158 0.4739-0.14158 0.6392zm-0.09576 0.3041c-0.04581 0.0802-0.13061 0.1931-0.27436 0.2846-0.15037 0.0957-0.31433 0.1353-0.46188 0.1353v-2c-0.47567 0-0.82258 0.2769-1.0002 0.5879zm-0.73624 0.4199c-0.05209 0-0.09505-0.0042-0.12492-0.0081-0.03073-4e-3 -0.05625-0.0089-0.07497-0.013-0.03632-0.0078-0.06344-0.0161-0.07713-0.0205-0.02686-0.0086-0.04123-0.015-0.03604-0.0128 0.00868 0.0037 0.03741 0.0166 0.09385 0.0448l0.89443-1.7888c-0.07157-0.0358-0.14483-0.0709-0.21216-0.0992-0.03281-0.0138-0.07868-0.0322-0.13053-0.0488-0.02252-0.0072-0.15932-0.0536-0.33253-0.0536zm-0.15275 0.0207c0.29947 0.1233 0.61798 0.1593 0.90875 0.1593v-2c-0.066 0-0.11037-0.0044-0.13688-0.0086-0.02682-0.0042-0.02745-0.0071-0.01037-1e-4zm0.90875 0.1593c0.8358 0 1.4928-0.4275 1.9217-1.096l-1.6834-1.08c-0.06857 0.1069-0.11989 0.1436-0.13975 0.1553-0.01509 0.0089-0.03964 0.0207-0.09856 0.0207zm1.9145-1.0849c0.41656-0.6308 0.58553-1.3824 0.58553-2.1831h-2c0 0.5273-0.11103 0.8637-0.25446 1.0809zm0.58553-2.1831c0-0.771-0.17375-1.4997-0.60626-2.1052l-1.6275 1.1624c0.12748 0.1785 0.23373 0.4658 0.23373 0.9428zm-0.59307-2.0863c-0.44475-0.654-1.1086-1.0377-1.9189-1.0377v2c0.10169 0 0.16582 0.0163 0.26508 0.1623zm-1.9189-1.0377c-0.32805 0-0.65333 0.0437-0.96423 0.1473l0.63246 1.8974c0.0731-0.0244 0.17983-0.0447 0.33177-0.0447zm-0.96423 0.1473c-0.32784 0.1093-0.62233 0.285-0.88465 0.5017l1.2738 1.542c0.10568-0.0873 0.18719-0.1276 0.24335-0.1463zm-1.2478 1.2727v6.096h2v-6.096zm0 6.096c0 0.2888 0.01961 0.6953 0.18957 1.0352l1.7889-0.8944c0.02218 0.0444 0.03123 0.0757 0.03359 0.0843 0.00263 0.0097 0.0014 0.0077-0.00107-0.0095-0.0052-0.0364-0.01095-0.1052-0.01095-0.2156zm0.21576 1.0841c0.25901 0.4533 0.6962 0.637 1.0278 0.7091l0.42486-1.9544c-0.03638-0.0079 0.1528 0.0238 0.28382 0.2531zm1.0233 0.7081 0.216 0.048 0.43386-1.9524-0.216-0.048zm-0.52587-1.2123-0.096 0.324 1.9176 0.5682 0.096-0.324zm0.8628-0.3919h-1.92v2h1.92zm-1.1518 0.3598-0.12-0.144-1.5364 1.2804 0.12 0.144zm9.9606 0.5682 0.4668-0.8844-0.0095-0.0049zm-0.636-0.576-0.87 0.493 0.0061 0.0108 0.0064 0.0107zm0.168-1.692 0.7182 0.6958zm1.164-0.36 0.6-0.8-0.0722-0.0541-0.0806-0.0403zm-0.108 0.288-0.7071-0.7071-0.0272 0.0271-0.025 0.0292zm-0.264 0.396-0.8849-0.4657-0.0098 0.0186-0.0091 0.019zm0.144 1.296-0.7526 0.6585 0.0019 0.0021zm1.692-0.264-0.8625-0.5062-0.0046 0.0081zm0.324-3.096h1l-1.8762-0.4819zm-0.768 0.756-0.4804-0.8771-0.0089 5e-3zm-2.304-0.192-0.7526 0.6585 0.0088 0.01 9e-3 0.0098zm-1.128-3.996-0.9529 0.3032 0.2217 0.6968h0.7312zm-0.084-0.264-0.722-0.6919-0.41108 0.4289 0.18018 0.5662zm0.672-0.468-0.4037-0.915-0.0101 0.0046zm0.996-0.084-0.7071 0.7071 0.044 0.044 0.0491 0.0383zm2.268 4.008-0.7979-0.6028zm0.336-2.856-0.9864 0.1644zm-0.36-0.792-0.8138 0.5812 0.0159 0.0222 0.017 0.0213zm-0.12-0.168-0.7926-0.6097-0.4521 0.5876 0.4309 0.6033zm0.12-0.156-0.0986-0.9951-0.4304 0.0426-0.2636 0.3428zm1.332-0.132h1v-1.104l-1.0986 0.1089zm-0.648 7.848-0.7488-0.6628zm-1.764-0.268c-0.274 0-0.4504-0.0517-0.5653-0.1124l-0.9335 1.7688c0.4611 0.2433 0.9727 0.3436 1.4988 0.3436zm-0.5747-0.1173c-0.1355-0.0697-0.1993-0.1403-0.2358-0.2012l-1.715 1.029c0.2515 0.4191 0.6117 0.7325 1.0361 0.9508zm-0.2233-0.1797c-0.0548-0.0967-0.074-0.1797-0.074-0.263h-2c0 0.4447 0.1167 0.8657 0.334 1.249zm-0.074-0.263c0-0.1177 0.0294-0.1774 0.0902-0.2402l-1.4365-1.3916c-0.4351 0.4492-0.6537 1.0135-0.6537 1.6318zm0.0902-0.2402c0.0207-0.0214 0.079-0.0798 0.3018-0.0798v-2c-0.6412 0-1.263 0.1976-1.7383 0.6882zm0.3018-0.0798c-7e-3 0-0.0362-2e-4 -0.0804-0.0076-0.0415-0.0069-0.1241-0.0246-0.2228-0.074l0.8944-1.7888c-0.241-0.1205-0.4761-0.1296-0.5912-0.1296zm-0.456-0.176c-0.0678-0.0508-0.1583-0.1355-0.2323-0.2649-0.0776-0.1358-0.1197-0.2917-0.1197-0.4511h2c0-0.4249-0.234-0.7235-0.448-0.884zm-0.352-0.716c0-0.1269 0.0249-0.2273 0.0443-0.2886 0.0202-0.0635 0.0431-0.1119 0.0587-0.142 0.0301-0.0579 0.0576-0.0939 0.0636-0.1019 0.0132-0.0172 0.0098-0.0101-0.0297 0.0294l1.4142 1.4142c0.0645-0.0645 0.139-0.1434 0.2042-0.2286 0.0321-0.042 0.0791-0.1075 0.1221-0.1904 0.0322-0.0618 0.1226-0.2439 0.1226-0.4921zm0.0847-0.4468c-0.1518 0.1772-0.2803 0.3734-0.3896 0.5811l1.7698 0.9314c0.0507-0.0963 0.0982-0.1641 0.1383-0.2109zm-0.4085 0.6187c-0.1546 0.3266-0.2042 0.6769-0.2042 1.0041h2c0-0.0653 0.0051-0.1085 0.0099-0.1337 0.0046-0.0249 0.0079-0.027 0.0018-0.0142zm-0.2042 1.0041c0 0.4969 0.1512 0.9806 0.4994 1.3785l1.5052-1.317c-1e-3 -0.0011-3e-4 -4e-4 9e-4 0.0016 0.0012 0.0021 0.0016 0.0033 0.0013 0.0025-2e-4 -7e-4 -0.0068-0.0194-0.0068-0.0656zm0.5013 1.3806c0.3825 0.4347 0.8976 0.6394 1.4467 0.6394v-2c-0.0269 0-0.0195-0.0042 0.0058 0.0067 0.0117 5e-3 0.0232 0.0116 0.0331 0.0189 0.0097 0.0072 0.0148 0.0127 0.0158 0.0138zm1.4467 0.6394c0.7914 0 1.4616-0.3669 1.8631-1.0659l-1.7342-0.9962c-0.0167 0.0291-0.029 0.043-0.0339 0.048-0.0043 0.0044-0.0049 0.0042-0.0028 0.0029 0.0086-0.0048-0.0107 0.0112-0.0922 0.0112zm1.8584-1.0578c0.3384-0.5765 0.4616-1.2693 0.4616-1.9942h-2c0 0.5231-0.0928 0.8223-0.1864 0.9818zm0.4616-1.9942v-1.608h-2v1.608zm-1.8762-2.0899c-0.0797 0.1449-0.1944 0.2635-0.3721 0.3608l0.9606 1.7542c0.4943-0.2707 0.8916-0.6561 1.1639-1.1512zm-0.3811 0.3658c-0.166 0.0931-0.3631 0.1481-0.6147 0.1481v2c0.5644 0 1.1033-0.129 1.5932-0.4039zm-0.6147 0.1481c-0.2951 0-0.4049-0.081-0.4652-0.1463l-1.4696 1.3566c0.5157 0.5587 1.2059 0.7897 1.9348 0.7897zm-0.4474-0.1265c-0.0736-0.084-0.1726-0.2654-0.1726-0.6735h-2c0 0.7279 0.1809 1.4345 0.6674 1.9905zm-0.1726-0.6735v-2.4h-2v2.4zm0-2.4c0-0.1505-0.0139-0.5121-0.2671-0.8287l-1.5618 1.2494c-0.1041-0.1301-0.1422-0.2538-0.1565-0.3147-0.0149-0.063-0.0146-0.1034-0.0146-0.106zm-0.2671-0.8287c-0.3081-0.385-0.7371-0.4353-0.9489-0.4353v2c-0.0518 0-0.3688-0.0103-0.6129-0.3153zm-0.9489-0.4353h-0.492v2h0.492zm0.4609 0.6968-0.084-0.264-1.9058 0.6064 0.084 0.264zm-0.3149 0.7311c0.0884-0.0923 0.2049-0.1773 0.3638-0.2495l-0.8276-1.8208c-0.3692 0.1678-0.7006 0.3948-0.9802 0.6865zm0.3536-0.245c0.1844-0.0813 0.2929-0.0949 0.3404-0.0949v-2c-0.4005 0-0.788 0.1064-1.1477 0.2651zm0.3404-0.0949c-0.0509 0-0.127-8e-3 -0.215-0.0415-0.0907-0.0346-0.1731-0.0884-0.2401-0.1554l1.4142-1.4142c-0.2798-0.2798-0.6328-0.3889-0.9591-0.3889zm-0.362-0.1146c-0.0768-0.0598-0.1542-0.1471-0.2088-0.2623-0.0537-0.1136-0.0692-0.22-0.0692-0.2991h2c0-0.3858-0.164-0.7606-0.4941-1.0174zm-0.278-0.5614v3h2v-3zm0 3c0 0.5459 0.1078 1.1311 0.4777 1.6018l1.5726-1.2356c0.0178 0.0227-0.0503-0.0481-0.0503-0.3662zm0.4777 1.6018c0.3958 0.5038 0.9599 0.7182 1.5423 0.7182v-2c-0.0502 0-0.0526-0.0084-0.0289 0.0022 0.0114 0.0051 0.0243 0.0126 0.0366 0.0222 0.0122 0.0096 0.0196 0.0179 0.0226 0.0218zm1.5423 0.7182c0.7719 0 1.4597-0.3043 1.9378-0.9372l-1.5957-1.2056c-0.0658 0.0871-0.138 0.1428-0.3421 0.1428zm1.9378-0.9372c0.4508-0.5966 0.6102-1.3483 0.6102-2.1268h-2c0 0.5335-0.1127 0.7978-0.2059 0.9212zm0.6102-2.1268c0-0.6103-0.0234-1.1229-0.0856-1.4964l-1.9728 0.3288c0.0337 0.2025 0.0584 0.5779 0.0584 1.1676zm-0.0856-1.4964c-0.0776-0.4654-0.2727-0.8862-0.5655-1.2523l-1.5618 1.2494c0.0911 0.1139 0.1361 0.2211 0.1545 0.3317zm-0.5327-1.2088-0.12-0.168-1.6275 1.1624 0.12 0.168zm-0.1411 1.0229 0.12-0.156-1.5852-1.2194-0.12 0.156zm-0.574 0.2294 1.332-0.132-0.1972-1.9902-1.332 0.132zm0.2334-1.1271v5.784h2v-5.784zm0 5.784c0 0.7329-0.1773 1.1533-0.3968 1.4012l1.4975 1.3256c0.6446-0.7281 0.8993-1.6837 0.8993-2.7268zm-0.3968 1.4012c-0.2143 0.2421-0.5126 0.3948-1.0152 0.3948v2c0.9854 0 1.8631-0.3353 2.5127-1.0692zm6.6262-1.7612-0.7526 0.6585 0.0069 8e-3 0.0072 0.0078zm-0.252-4.608h1v-1h-1zm-0.948 0h-1v1h1zm0.048-0.372 0.8682 0.4961 0.0138-0.0241 0.0124-0.0248zm0.216-0.144-0.2426-0.9701-0.0161 4e-3 -0.0161 0.0046zm0.816-0.48-0.8138-0.5812zm0.36-0.888 0.9771 0.2124 0.0077-0.0352 0.0051-0.0358zm0.108-0.204 0.3939 0.9191 0.027-0.0115 0.0263-0.0132zm0.408-0.048h1v-1h-1zm0 1.464h-1v1h1zm1.404 0h1v-1h-1zm-0.072 0.408-0.9285-0.3714-0.0109 0.0273-0.0093 0.0279zm-0.168 0.264v1h0.3431l0.2708-0.2106zm-1.164 0v-1h-1v1zm0.084 3.996-0.8638 0.5039 0.0254 0.0435 0.0296 0.0408zm1.056-0.216 0.816-0.578-0.6325-0.8929-0.8325 0.7101zm0.204 0.288 0.7936 0.6084 0.4484-0.5849-0.426-0.6015zm-1.404-0.184c-0.0448 0-0.0484-0.0069-0.0274 0.0014 0.0103 0.0041 0.0234 0.0107 0.0373 0.0203 0.0139 0.0095 0.0248 0.0196 0.0325 0.028l-1.4769 1.3486c0.3931 0.4305 0.915 0.6017 1.4345 0.6017zm0.0565 0.0655c0.0118 0.0134 0.0132 0.022 0.01 0.0121-0.0042-0.0131-0.0145-0.0537-0.0145-0.1336h-2c0 0.4992 0.1306 1.0171 0.4994 1.4385zm-0.0045-0.1215v-3.828h-2v3.828zm-1-4.828h-0.948v2h0.948zm0.052 1c0-0.0345 7e-4 -0.0611 0.0017-0.0807 1e-3 -0.02 0.0021-0.0287 2e-3 -0.0283 0 5e-4 -6e-4 0.0048-2e-3 0.0124-0.0014 0.0075-4e-3 0.0202-0.0085 0.037-0.0044 0.0166-0.0116 0.0406-0.0228 0.0699-0.0111 0.0289-0.0283 0.0684-0.0542 0.1138l-1.7365-0.9922c-0.1166 0.204-0.1475 0.4101-0.1595 0.5031-0.0156 0.1205-0.0202 0.2463-0.0202 0.365zm-0.0576 0.0752c-0.0766 0.1532-0.1832 0.2485-0.2617 0.3009-0.0741 0.0493-0.1306 0.0662-0.142 0.0694l-0.5495-1.923c-0.2176 0.0622-0.6183 0.2236-0.8357 0.6583zm-0.4359 0.3789c0.5154-0.1288 1.0394-0.382 1.3872-0.8689l-1.6275-1.1624c0.0278-0.0389 0.0078 0.0279-0.2448 0.0911zm1.3872-0.8689c0.2623-0.3672 0.4245-0.8019 0.5234-1.2568l-1.9543-0.4248c-0.0611 0.2811-0.1389 0.4384-0.1966 0.5192zm0.5362-1.3278c-0.0013 0.0095-0.0122 0.0877-0.0672 0.1915-0.0602 0.1138-0.1886 0.2827-0.4208 0.3822l-0.7879-1.8382c-0.5756 0.2467-0.6799 0.8134-0.704 0.9817zm-0.4347 0.549c-0.0395 0.0198-0.073 0.0326-0.0967 0.0407-0.0241 0.0082-0.0433 0.0133-0.0557 0.0163-0.0235 0.0056-0.0348 0.0065-0.028 0.0058 0.0056-7e-4 0.02-0.0021 0.0451-0.0033 0.0248-0.0011 0.0565-0.0019 0.0961-0.0019v-2c-0.1253 0-0.2537 0.0046-0.3749 0.0188-0.0978 0.0116-0.2888 0.039-0.4804 0.1348zm-1.0392-0.9424v1.464h2v-1.464zm1 2.464h1.404v-2h-1.404zm0.404-1c0 0.0468-0.0073 0.0536-5e-4 0.0366l1.8569 0.7428c0.1028-0.257 0.1436-0.5222 0.1436-0.7794zm-0.0207 0.0918c6e-4 -0.0018 9e-3 -0.0269 0.033-0.0647 0.0248-0.039 0.0673-0.0928 0.1337-0.1445l1.2279 1.5788c0.2774-0.2158 0.4236-0.4999 0.5027-0.7372zm0.7807-0.4198h-1.164v2h1.164zm-2.164 1v3.516h2v-3.516zm0 3.516c0 0.2548 0.0225 0.6449 0.2202 0.9839l1.7275-1.0078c0.028 0.048 0.0427 0.0868 0.0497 0.1081 0.0071 0.0217 0.0089 0.0334 0.0086 0.0314-3e-4 -0.0016-0.0019-0.0118-0.0034-0.0323-0.0015-0.0203-0.0026-0.0478-0.0026-0.0833zm0.2752 1.0682c0.32 0.44 0.7969 0.5438 1.1328 0.5438v-2c0.016 0 0.0861 0.0017 0.1823 0.0409 0.1055 0.043 0.2169 0.1214 0.3024 0.2389zm1.1328 0.5438c0.5667 0 1.0379-0.2946 1.3809-0.5872l-1.2979-1.5216c-0.0894 0.0763-0.1453 0.1081-0.1674 0.1187-0.0206 0.0098 0.0114-0.0099 0.0844-0.0099zm-0.0841-0.77 0.204 0.288 1.6321-1.156-0.204-0.288zm0.2265-0.8984c-0.1032 0.1345-0.2268 0.2431-0.3774 0.3298l0.9979 1.7332c0.3774-0.2173 0.7018-0.5007 0.9667-0.8462zm-0.3774 0.3298c-0.1647 0.0948-0.2361 0.0946-0.233 0.0946v2c0.451 0 0.8676-0.1522 1.2309-0.3614zm5.6424 0.8186-0.7526 0.6585 0.0069 8e-3 0.0072 0.0078zm-0.252-4.608h1v-1h-1zm-0.948 0h-1v1h1zm0.048-0.372 0.8682 0.4961 0.0138-0.0241 0.0124-0.0248zm0.216-0.144-0.2426-0.9701-0.0161 4e-3 -0.0161 0.0046zm0.816-0.48-0.8138-0.5812zm0.36-0.888 0.9771 0.2124 0.0077-0.0352 0.0051-0.0358zm0.108-0.204 0.3939 0.9191 0.027-0.0115 0.0263-0.0132zm0.408-0.048h1v-1h-1zm0 1.464h-1v1h1zm1.404 0h1v-1h-1zm-0.072 0.408-0.9285-0.3714-0.0109 0.0273-0.0093 0.0279zm-0.168 0.264v1h0.3431l0.2708-0.2106zm-1.164 0v-1h-1v1zm0.084 3.996-0.8638 0.5039 0.0254 0.0435 0.0296 0.0408zm1.056-0.216 0.816-0.578-0.6325-0.8929-0.8325 0.7101zm0.204 0.288 0.7936 0.6084 0.4484-0.5849-0.426-0.6015zm-1.404-0.184c-0.0448 0-0.0484-0.0069-0.0274 0.0014 0.0103 0.0041 0.0234 0.0107 0.0373 0.0203 0.0139 0.0095 0.0248 0.0196 0.0325 0.028l-1.4769 1.3486c0.3931 0.4305 0.915 0.6017 1.4345 0.6017zm0.0565 0.0655c0.0118 0.0134 0.0133 0.022 0.01 0.0121-0.0042-0.0131-0.0145-0.0537-0.0145-0.1336h-2c0 0.4992 0.1306 1.0171 0.4994 1.4385zm-0.0045-0.1215v-3.828h-2v3.828zm-1-4.828h-0.948v2h0.948zm0.052 1c0-0.0345 7e-4 -0.0611 0.0017-0.0807 1e-3 -0.02 0.0021-0.0287 2e-3 -0.0283 0 5e-4 -6e-4 0.0048-2e-3 0.0124-0.0014 0.0075-4e-3 0.0202-0.0085 0.037-0.0044 0.0166-0.0116 0.0406-0.0228 0.0699-0.0111 0.0289-0.0283 0.0684-0.0542 0.1138l-1.7365-0.9922c-0.1166 0.204-0.1475 0.4101-0.1595 0.5031-0.0156 0.1205-0.0202 0.2463-0.0202 0.365zm-0.0576 0.0752c-0.0766 0.1532-0.1832 0.2485-0.2617 0.3009-0.074 0.0493-0.1306 0.0662-0.142 0.0694l-0.5495-1.923c-0.2176 0.0622-0.6183 0.2236-0.8357 0.6583zm-0.4359 0.3789c0.5154-0.1288 1.0395-0.382 1.3872-0.8689l-1.6275-1.1624c0.0278-0.0389 0.0078 0.0279-0.2448 0.0911zm1.3872-0.8689c0.2623-0.3672 0.4245-0.8019 0.5234-1.2568l-1.9543-0.4248c-0.0611 0.2811-0.1389 0.4384-0.1966 0.5192zm0.5362-1.3278c-0.0013 0.0095-0.0122 0.0877-0.0671 0.1915-0.0603 0.1138-0.1887 0.2827-0.4209 0.3822l-0.7879-1.8382c-0.5756 0.2467-0.6799 0.8134-0.704 0.9817zm-0.4347 0.549c-0.0395 0.0198-0.073 0.0326-0.0967 0.0407-0.0241 0.0082-0.0433 0.0133-0.0557 0.0163-0.0235 0.0056-0.0348 0.0065-0.028 0.0058 0.0056-7e-4 0.02-0.0021 0.0451-0.0033 0.0248-0.0011 0.0565-0.0019 0.0961-0.0019v-2c-0.1253 0-0.2537 0.0046-0.3749 0.0188-0.0978 0.0116-0.2888 0.039-0.4804 0.1348zm-1.0392-0.9424v1.464h2v-1.464zm1 2.464h1.404v-2h-1.404zm0.404-1c0 0.0468-0.0073 0.0536-5e-4 0.0366l1.8569 0.7428c0.1028-0.257 0.1436-0.5222 0.1436-0.7794zm-0.0207 0.0918c6e-4 -0.0018 9e-3 -0.0269 0.033-0.0647 0.0248-0.039 0.0673-0.0928 0.1337-0.1445l1.2279 1.5788c0.2774-0.2158 0.4237-0.4999 0.5027-0.7372zm0.7807-0.4198h-1.164v2h1.164zm-2.164 1v3.516h2v-3.516zm0 3.516c0 0.2548 0.0225 0.6449 0.2202 0.9839l1.7275-1.0078c0.028 0.048 0.0427 0.0868 0.0497 0.1081 0.0071 0.0217 0.0089 0.0334 0.0086 0.0314-3e-4 -0.0016-0.0019-0.0118-0.0034-0.0323-0.0015-0.0203-0.0026-0.0478-0.0026-0.0833zm0.2752 1.0682c0.32 0.44 0.7969 0.5438 1.1328 0.5438v-2c0.016 0 0.0861 0.0017 0.1823 0.0409 0.1055 0.043 0.217 0.1214 0.3024 0.2389zm1.1328 0.5438c0.5667 0 1.0379-0.2946 1.3809-0.5872l-1.2979-1.5216c-0.0894 0.0763-0.1453 0.1081-0.1674 0.1187-0.0206 0.0098 0.0114-0.0099 0.0844-0.0099zm-0.0841-0.77 0.204 0.288 1.6321-1.156-0.204-0.288zm0.2265-0.8984c-0.1032 0.1345-0.2268 0.2431-0.3774 0.3298l0.9979 1.7332c0.3774-0.2173 0.7018-0.5007 0.9667-0.8462zm-0.3774 0.3298c-0.1647 0.0948-0.2361 0.0946-0.233 0.0946v2c0.451 0 0.8676-0.1522 1.2309-0.3614zm5.4504 0.7226-0.5796 0.815 0.0061 0.0043 0.0062 0.0042zm-0.288-1.596 0.6896 0.7241 8e-4 -7e-4zm0.816-0.216 0.4472-0.8944zm0 0.312 0.9191 0.3939 0.0048-0.0112 0.0045-0.0113zm0.24 1.092-0.6097 0.7926 0.0072 0.0056 0.0072 0.0054zm1.464 0-0.6402-0.7682zm-0.024-1.2-0.6051 0.7962 0.0075 0.0056 0.0076 0.0056zm-0.876-0.468-0.3965 0.9181 0.0119 5e-3zm-0.888-0.432-0.5057 0.8627 0.0063 0.0037 0.0064 0.0036zm-0.6-0.54-0.8 0.6zm3.012-1.968-0.5115 0.8593 0.0076 0.0045 0.0077 0.0044zm0.252 1.488 0.7233 0.6905zm-0.816-0.108-0.8683-0.4961-0.0137 0.0241-0.0125 0.0248zm-0.18-0.96-0.5944 0.8042 0.0115 0.0085 0.0118 0.0082zm-1.332 0.012-0.6333-0.774-0.0088 0.0073-0.0087 0.0074zm0.084 1.236-0.6179 0.7863 0.0089 7e-3 9e-3 0.0067zm0.948 0.48 0.3964-0.9181-0.0234-0.0101-0.0239-0.0089zm0.876 0.42 0.483-0.8756zm0.588 0.492-0.7809 0.6247 0.0062 0.0078 0.0064 0.0077zm-0.36 1.884 0.6026 0.798 0.0025-0.0018zm-1.56-0.556c-0.3913 0-0.6324-0.0878-0.7887-0.1955l-1.1346 1.647c0.5636 0.3883 1.2265 0.5485 1.9233 0.5485zm-0.7765-0.187c-0.0767-0.0545-0.0995-0.0918-0.1054-0.1026-0.0044-0.0081-0.0141-0.0271-0.0141-0.0784h-2c0 0.7618 0.3622 1.3855 0.9604 1.811zm-0.1195-0.181c0-0.0012-3e-4 0.0222-0.015 0.0572-0.0151 0.0358-0.0346 0.0586-0.0434 0.0669l-1.3793-1.4482c-0.3737 0.3559-0.5623 0.821-0.5623 1.3241zm-0.0576 0.1234c-0.0014 0.0013-0.0058 0.0053-0.0133 0.01-0.0076 0.0048-0.0157 0.0089-0.0234 0.0118-0.0037 0.0014-0.0068 0.0024-0.0091 3e-3 -0.0022 6e-4 -0.0034 8e-4 -0.0034 8e-4s0.0059-1e-3 0.0188-1e-3v-2c-0.4973 0-0.9719 0.1672-1.3505 0.5286zm-0.0304 0.0246c-0.0923 0-0.1943-0.0211-0.2912-0.0696l0.8944-1.7888c-0.193-0.0965-0.3989-0.1416-0.6032-0.1416zm-0.2912-0.0696c-0.0696-0.0348-0.1915-0.1092-0.2988-0.2524-0.1179-0.1571-0.182-0.3496-0.182-0.546h2c0-0.5493-0.3731-0.8646-0.6248-0.9904zm-0.4808-0.7984c0-0.0389 0.0023-0.0712 0.0047-0.0944 0.0023-0.0238 0.0053-0.0438 0.0078-0.0587 0.0048-0.0291 0.01-0.051 0.0128-0.0624 0.0056-0.0222 0.0097-0.0338 8e-3 -0.0287-3e-3 9e-3 -0.0128 0.0363-0.0338 0.0888l1.8569 0.7428c0.027-0.0675 0.0533-0.1362 0.0743-0.1992 0.0103-0.0309 0.0234-0.0725 0.0349-0.1187 0.0065-0.0261 0.0344-0.1344 0.0344-0.2695zm0.0088-0.1779c-0.1152 0.2688-0.1528 0.5468-0.1528 0.8019h2c0-0.0307 0.0023-0.0458 0.0028-0.0482 3e-4 -0.0022-0.0017 0.0109-0.0117 0.0341zm-0.1528 0.8019c0 0.5612 0.2144 1.1013 0.7023 1.4766l1.2194-1.5852c0.0075 0.0058 0.0197 0.0166 0.0331 0.0332 0.0135 0.0168 0.0247 0.0352 0.033 0.0534 0.0172 0.0377 0.0122 0.0524 0.0122 0.022zm0.7167 1.4876c0.3849 0.285 0.8328 0.4364 1.3153 0.4364v-2c-0.0455 0-0.0777-0.0086-0.1248-0.0436zm1.3153 0.4364c0.4854 0 0.9758-0.1315 1.3842-0.4718l-1.2804-1.5364c0.0065-0.0054 0.0107-0.0059 0.0032-0.0035-0.0099 0.0032-0.0423 0.0117-0.107 0.0117zm1.3842-0.4718c0.4263-0.3552 0.6478-0.8477 0.6478-1.3922h-2c0 4e-4 6e-4 -0.029 0.02-0.0711 0.0197-0.0427 0.0442-0.0668 0.0518-0.0731zm0.6478-1.3922c0-0.5898-0.2893-1.0671-0.722-1.3834l-1.18 1.6148c0.0055 0.0041-0.0251-0.0172-0.0553-0.0731-0.0322-0.0594-0.0427-0.1187-0.0427-0.1583zm-0.7069-1.3722c-0.2975-0.2261-0.6781-0.4205-1.0965-0.5949l-0.7692 1.8462c0.3495 0.1456 0.553 0.2632 0.6555 0.3411zm-1.0847-0.5899c-0.3306-0.1427-0.5921-0.271-0.7914-0.3839l-0.986 1.74c0.2807 0.1591 0.6112 0.3188 0.9845 0.4801zm-0.7787-0.3766c-0.1127-0.0661-0.2141-0.1551-0.3057-0.2773l-1.6 1.2c0.2443 0.3258 0.543 0.5968 0.8943 0.8027zm-0.3057-0.2773c-0.0201-0.0268-0.052-0.0801-0.052-0.216h-2c0 0.5041 0.136 0.9948 0.452 1.416zm-0.052-0.216c0-0.0694 0.0055-0.1291 0.1501-0.2338l-1.1722-1.6204c-0.6074 0.4393-0.9779 1.0756-0.9779 1.8542zm0.1501-0.2338c0.1703-0.1232 0.4244-0.2182 0.8299-0.2182v-2c-0.7305 0-1.4205 0.177-2.0021 0.5978zm0.8299-0.2182c0.3975 0 0.6342 0.077 0.7725 0.1593l1.023-1.7186c-0.5337-0.3177-1.1531-0.4407-1.7955-0.4407zm0.7878 0.1682c0.0285 0.0163 0.0406 0.0269 0.0425 0.0287 0.0014 0.0012-0.0059-0.0053-0.0156-0.0208-0.01-0.0159-0.0178-0.0339-0.0226-0.0511-0.0045-0.0167-0.0041-0.025-0.0041-0.021h2c0-0.7539-0.4073-1.3291-1.0079-1.6722zm2e-4 -0.0642c0 0.0201-0.0015 0.032-0.0024 0.0371-8e-4 0.0049-1e-3 0.0038 1e-3 -0.0018 0.0022-0.0058 0.0058-0.0137 0.0111-0.0223 0.0054-0.0086 0.0109-0.0152 0.0149-0.0195l1.4467 1.381c0.3725-0.3902 0.5287-0.8791 0.5287-1.3745zm0.0246-0.0065c0.0049-0.0051 0.0132-0.0127 0.0251-0.0208s0.0243-0.0146 0.0359-0.0192c0.0242-0.0097 0.0298-0.0055 0.0024-0.0055v2c0.5098 0 1.0034-0.1756 1.3833-0.5735zm0.0634-0.0455c0.011 0 0.0499 6e-4 0.1067 0.0129 0.0562 0.0122 0.152 0.0406 0.2583 0.1097 0.1129 0.0734 0.2232 0.184 0.2998 0.3333 0.0747 0.1458 0.0952 0.2848 0.0952 0.3881h-2c0 0.3543 0.1621 0.7261 0.515 0.9554 0.2783 0.181 0.5686 0.2006 0.725 0.2006zm0.76 0.844c0 0.0657-0.0069 0.118-0.0123 0.1505-0.0057 0.034-0.0122 0.0608-0.0169 0.078-0.0089 0.033-0.0169 0.0535-0.0178 0.0559-0.0019 0.0049 0.0039-0.0102 0.0254-0.0532l-1.7889-0.8944c-0.0344 0.069-0.0706 0.1459-0.1005 0.2228-0.013 0.0333-0.089 0.2171-0.089 0.4404zm-0.0478 0.2801c0.1601-0.2801 0.2278-0.5828 0.2278-0.8801h-2c0-0.0024 3e-4 -0.0164 0.0058-0.0385 0.0057-0.0228 0.0155-0.0484 0.0299-0.0736zm0.2278-0.8801c0-0.5295-0.2109-1.0532-0.705-1.3969l-1.1421 1.6418c-0.0422-0.0294-0.091-0.0804-0.1237-0.1488-0.0304-0.0634-0.0292-0.1044-0.0292-0.0961zm-0.6816-1.3802c-0.3587-0.2651-0.7757-0.3998-1.2184-0.3998v2c9e-3 0 0.0143 6e-4 0.0167 1e-3s3e-3 6e-4 0.0025 5e-4l6e-4 3e-4c0.0011 6e-4 0.0043 0.0023 0.0098 0.0064zm-1.2184-0.3998c-0.4564 0-0.9388 0.1127-1.3413 0.442l1.2665 1.548c-0.0096 0.0078-0.0186 0.0135-0.0257 0.0172-0.0069 0.0036-0.0097 0.0042-0.0067 0.0033 0.0067-0.0021 0.039-0.0105 0.1072-0.0105zm-1.3588 0.4567c-0.4017 0.3443-0.6012 0.8155-0.6012 1.3233h2c0 0.0067-0.0018 0.0432-0.024 0.0929-0.0228 0.051-0.0535 0.0854-0.0732 0.1024zm-0.6012 1.3233c0 0.5953 0.2661 1.1031 0.7181 1.4583l1.2357-1.5726c-0.0119-0.0094 6e-3 2e-3 0.0246 0.0391 0.0086 0.0172 0.0145 0.0345 0.018 0.0499 0.0034 0.0152 0.0036 0.0243 0.0036 0.0253zm0.736 1.472c0.3307 0.2481 0.745 0.448 1.1989 0.6171l0.6982-1.8742c-0.3621-0.1349-0.5799-0.255-0.6971-0.3429zm1.1515 0.5981c0.3343 0.1443 0.5949 0.2702 0.7894 0.3775l0.9661-1.7512c-0.2695-0.1487-0.5928-0.3028-0.9626-0.4625zm0.7894 0.3775c0.1213 0.0669 0.2149 0.147 0.2902 0.2411l1.5617-1.2494c-0.2447-0.3059-0.5431-0.5538-0.8858-0.7429zm0.3028 0.2566c2e-3 0.0023 0.0032 4e-3 0.0039 5e-3 8e-4 0.0011 0.0011 0.0016 0.0011 0.0017 1e-4 1e-4 0-1e-4 -1e-4 -3e-4 -2e-4 -3e-4 -2e-4 -5e-4 -2e-4 -5e-4s1e-4 5e-4 4e-4 0.0015c3e-4 0.0011 7e-4 0.0029 0.0011 0.0056 9e-4 0.0055 0.0021 0.0154 0.0021 0.0308h2c0-0.4837-0.1532-0.9418-0.4718-1.3242zm0.0083 0.0438c0 0.1788-0.0501 0.2861-0.2051 0.4038l1.2102 1.5924c0.645-0.4903 0.9949-1.183 0.9949-1.9962zm-0.2026 0.402c-0.1703 0.1285-0.4577 0.242-0.9574 0.242v2c0.7962 0 1.5489-0.1825 2.1626-0.646zm8.3011 0.474 0.8831-0.4692-0.0108-0.0204-0.0118-0.0198zm-0.888-1.5 0.8605-0.5094-0.6973-1.178-0.9101 1.0225zm-0.924 1.608-0.8682 0.4961 0.0437 0.0765 0.0563 0.0676zm0.168 0.168-0.6643 0.7474 0.0141 0.0125 0.0145 0.012zm0.204 0.168 0.8138 0.5812 0.5426-0.7596-0.7207-0.5935zm-0.12 0.168v1h0.5147l0.2991-0.4188zm-1.692 0-0.8654 0.501 0.2889 0.499h0.5765zm-0.132-0.228-0.7002-0.7139-0.554 0.5434 0.3888 0.6715zm2.268-2.292 0.7234 0.6905 0.5216-0.5464-0.383-0.6511zm-1.2-2.04-0.8683 0.4962 0.0064 0.0108zm-0.204-0.228-0.5547 0.832 0.0337 0.0225 0.0354 0.0197zm-0.66 0.06-0.7926 0.6097 0.4855 0.6311 0.7238-0.3317zm-0.24-0.312-0.7334-0.6798-0.5744 0.6198 0.5152 0.6697zm2.16 0.252-0.8827 0.4698 0.0101 0.019 0.0109 0.0185zm0.876 1.488-0.8617 0.5073 0.7048 1.1972 0.9115-1.0483zm0.912-1.596-0.832 0.5547zm-0.156-0.18 0.7071-0.7071-0.0619-0.0619-0.0717-0.0502zm-0.24-0.168-0.7348-0.6783-0.7764 0.8411 0.9378 0.6564zm0.144-0.156v-1h-0.4378l-0.297 0.3217zm1.704 0 0.8945-0.4472-0.2764-0.5528h-0.6181zm0.108 0.216 0.7071 0.7071 0.5097-0.5096-0.3223-0.6447zm-0.288 0.288 0.6995 0.7148 0.0076-0.0077zm-1.956 2.004-0.7355-0.6775-0.5033 0.5464 0.3778 0.6397zm1.212 2.052 0.8824-0.4706-0.0103-0.0192-0.011-0.0188zm0.192 0.24-0.53 0.848 0.0219 0.0136 0.0225 0.0126zm0.66-0.072 0.7894-0.6139-0.5629-0.7237-0.7697 0.498zm0.252 0.324 0.7071 0.7071 0.6243-0.6242-0.542-0.6968zm-0.504 0.384-0.4472-0.8944-0.0093 0.0046-0.0092 0.0049zm-0.504-0.88c-0.066 0-0.0899-0.0138-0.1053-0.0241-0.0232-0.0154-0.0857-0.0666-0.1636-0.2131l-1.7662 0.9384c0.4101 0.7719 1.0993 1.2988 2.0351 1.2988zm-0.2915-0.2774-0.888-1.5-1.721 1.0188 0.888 1.5zm-2.4954-1.6555c-0.3355 0.3769-0.61 0.7127-0.8065 0.999-0.0979 0.1425-0.1907 0.2934-0.2625 0.4458-0.0626 0.1328-0.1561 0.3623-0.1561 0.6361h2c0 0.1658-0.053 0.2553-0.0345 0.2161 0.0092-0.0196 0.0379-0.0727 0.102-0.1662 0.1275-0.1857 0.3389-0.4499 0.6515-0.801zm-1.2251 2.0809c0 0.2253 0.0517 0.464 0.1798 0.6881l1.7365-0.9922c0.064 0.1121 0.0837 0.2228 0.0837 0.3041zm0.2798 0.8322c0.0841 0.1009 0.1803 0.1938 0.2719 0.2752l1.3287-1.4948c-0.0244-0.0217-0.0417-0.0381-0.0533-0.0497-0.0119-0.012-0.0145-0.0155-0.0108-0.0111zm0.3005 0.2997 0.204 0.168 1.2714-1.5438-0.204-0.168zm0.026-1.1851-0.12 0.168 1.6275 1.1624 0.12-0.168zm0.6937-0.2508h-1.692v2h1.692zm-0.8265 0.499-0.132-0.228-1.7309 1.002 0.132 0.228zm-0.2972 0.9869c0.8463-0.8302 1.6102-1.6021 2.2911-2.3154l-1.4467-1.381c-0.6631 0.6947-1.4112 1.4508-2.2449 2.2686zm2.4297-3.5129-1.2-2.04-1.7239 1.014 1.2 2.04zm-1.1937-2.0291c-0.1078-0.1886-0.2888-0.4406-0.5866-0.6061l-0.9713 1.7484c-0.0816-0.0453-0.1313-0.0943-0.1546-0.1204-0.0233-0.026-0.0298-0.0399-0.024-0.0297zm-0.5176-0.5639c-0.254-0.1694-0.5357-0.24-0.8067-0.24v2c-0.079 0-0.1927-0.0226-0.3027-0.096zm-0.8067-0.24c-0.1961 0-0.3675 0.0485-0.4698 0.0816-0.118 0.0381-0.2384 0.088-0.3548 0.1413l0.8333 1.8182c0.0363-0.0167 0.0662-0.0295 0.0902-0.0392 0.0242-0.0097 0.0395-0.015 0.047-0.0175 0.0035-0.0011 0.0039-0.0012 0.0016-5e-4 -0.0022 6e-4 -0.0085 0.0022-0.0184 0.0042-0.0097 2e-3 -0.0251 0.0048-0.0455 0.0072-0.02 0.0023-0.0485 0.0047-0.0836 0.0047zm0.3847 0.5223-0.24-0.312-1.5853 1.2194 0.24 0.312zm-0.2992 0.9775c0.1587-0.1713 0.2436-0.1718 0.2745-0.1718v-2c-0.705 0-1.2921 0.3275-1.7414 0.8122zm0.2745-0.1718c0.08 0 0.1096 0.017 0.1235 0.026 0.0196 0.0127 0.0757 0.0561 0.1458 0.1878l1.7655-0.9396c-0.1939-0.3643-0.4619-0.6929-0.8262-0.9282-0.3701-0.239-0.7846-0.346-1.2086-0.346zm0.2903 0.2513 0.876 1.488 1.7235-1.0146-0.876-1.488zm2.4923 1.6369c0.3312-0.3809 0.6019-0.7195 0.7953-1.0073 0.0964-0.1433 0.1875-0.2944 0.2578-0.4464 0.0612-0.1324 0.1523-0.3601 0.1523-0.6305h-2c0-0.1624 0.0512-0.2496 0.0324-0.209-0.0097 0.021-0.0386 0.0754-0.1023 0.1701-0.1265 0.1882-0.3358 0.4556-0.6447 0.8107zm1.2054-2.0842c0-0.239-0.0626-0.4927-0.2159-0.7227l-1.6641 1.1094c-0.0893-0.134-0.12-0.2757-0.12-0.3867zm-0.2159-0.7227c-0.0861-0.1291-0.1919-0.2434-0.281-0.3324l-1.4142 1.4142c0.0236 0.0236 0.0376 0.039 0.0444 0.0468 0.0032 0.0037 0.0035 0.0042 0.0016 0.0018-0.0018-0.0023-0.0072-0.0094-0.0149-0.021zm-0.4146-0.4445-0.24-0.168-1.1469 1.6384 0.24 0.168zm-0.0787 1.3295 0.144-0.156-1.4696-1.3566-0.144 0.156zm-0.5908 0.1657h1.704v-2h-1.704zm0.8096-0.5528 0.108 0.216 1.7889-0.8944-0.108-0.216zm0.2953-0.9383-0.288 0.288 1.4142 1.4142 0.288-0.288zm-0.2802 0.2803c-0.7534 0.7372-1.4179 1.4178-1.9922 2.0413l1.4711 1.355c0.5457-0.5925 1.1852-1.2479 1.9198-1.9667zm-2.1177 3.2274 1.212 2.052 1.7221-1.0172-1.212-2.052zm1.1907 2.014c0.0898 0.1683 0.2554 0.4368 0.5443 0.6174l1.06-1.696c0.091 0.0569 0.1399 0.1146 0.1549 0.1333 0.0166 0.0208 0.0173 0.0262 0.0055 0.0041zm0.5887 0.6436c0.2547 0.1414 0.5195 0.1858 0.7496 0.1858v-2c0.0222 0 0.111 0.0044 0.2217 0.0658zm0.7496 0.1858c0.3661 0 0.6842-0.1274 0.9393-0.2924l-1.0865-1.6792c-0.0169 0.011 0.0372-0.0284 0.1472-0.0284zm-0.3933-0.5181 0.252 0.324 1.5787-1.2278-0.252-0.324zm0.3342-0.997c-0.1274 0.1274-0.2097 0.1795-0.2441 0.1967l0.8944 1.7888c0.2856-0.1428 0.5394-0.3467 0.7639-0.5713zm-0.2626 0.2062c-0.0016 8e-4 -0.0029 0.0014-0.0059 0.0021-0.0033 8e-4 -0.0133 0.0028-0.0324 0.0028v2c0.3345 0 0.664-0.0742 0.9698-0.2351zm5.9617 0.8009-0.3338 0.9426zm-0.936-0.6-0.7511 0.6601 0.0055 0.0063 0.0057 0.0063zm-0.024-1.776 0.6937 0.7203 5e-4 -5e-4zm1.02-0.3-0.4472 0.8944 0.0982 0.0491 0.1065 0.0266zm-0.048 0.276-0.832-0.5547zm-0.168 0.324-0.9284-0.3714-7e-3 0.0174-0.0063 0.0177zm0.348 1.272-0.6075 0.7944 0.0112 0.0083zm2.124-0.084-0.6364-0.7714-0.0095 8e-3zm0.072-2.268-0.7863 0.6178 0.0045 0.0057 0.0046 0.0057zm-2.064-0.444 0.206 0.9785 0.0244-0.0051 0.0241-0.0063zm-0.348-0.348 0.6 0.8 0.014-0.0106zm0.516-0.156 0.1738 0.9848 0.0076-0.0014zm1.644-0.732-0.7755-0.6313-0.0017 0.0021zm0.012-2.112-0.6616 0.7498 0.0063 0.0056 0.0064 0.0054zm-1.812-0.06 0.6376 0.7704 0.0026-0.0022zm-0.276 1.284-0.9363 0.3511 0.0137 0.0365 0.0164 0.0353zm0.168 0.324-0.8637 0.5039 0.0097 0.0167 0.0104 0.0163zm-0.984-0.036-0.7071 0.7071 0.0065 0.0064 0.0065 0.0063zm0.348-2.04-0.5407-0.8412zm3.792 0.432-0.7682 0.6402 0.0097 0.0116 0.0099 0.0112zm-0.048 2.22 0.7606 0.6493 0.0077-0.0091zm-1.188 0.78-0.3511-0.9363-3.1117 1.1668 3.2389 0.7441zm1.356 0.768 0.7696-0.6386zm-0.276 2.916-0.6041-0.7969-0.0062 0.0048zm-1.992-0.436c-0.3354 0-0.6336-0.0515-0.9021-0.1466l-0.6677 1.8852c0.4995 0.1769 1.0252 0.2614 1.5698 0.2614zm-0.9021-0.1466c-0.2507-0.0888-0.4158-0.2046-0.5299-0.3301l-1.4799 1.3454c0.3659 0.4025 0.8248 0.6867 1.3421 0.8699zm-0.5187-0.3175c-0.0599-0.0681-0.0992-0.1484-0.0992-0.2999h-2c0 0.6005 0.1927 1.1602 0.5969 1.6201zm-0.0992-0.2999c0-0.0602 0.0095-0.0845 0.0104-0.087 3e-4 -6e-4 5e-4 -9e-4 6e-4 -0.0012 1e-4 -2e-4 1e-4 -3e-4 1e-4 -3e-4v0c1e-4 -1e-4 4e-4 -6e-4 0.0013-0.0016 9e-4 -0.0011 0.0025-0.0029 0.0053-0.0056l-1.3873-1.4406c-0.4363 0.4201-0.6304 0.9645-0.6304 1.5363zm0.0182-0.0962c0.0267-0.0258 0.0493-0.0438 0.1338-0.0438v-2c-0.5714 0-1.1009 0.198-1.5221 0.6042zm0.1338-0.0438c0.0245 0 0.0197 0.0012-4e-3 -0.0017-0.0127-0.0016-0.0399-0.0055-0.0765-0.0147-0.034-0.0085-0.098-0.0268-0.1747-0.0652l0.8944-1.7888c-0.1682-0.0841-0.3258-0.1072-0.3951-0.1159-0.0878-0.0109-0.1725-0.0137-0.2441-0.0137zm-0.0505-0.0059c-0.2933-0.0733-0.5058-0.2728-0.6159-0.4929-0.0897-0.1795-0.0936-0.333-0.0936-0.3812h2c0-0.1042-0.0118-0.3017-0.1175-0.5132-0.1261-0.2521-0.3627-0.4716-0.6879-0.5529zm-0.7095-0.8741c0-0.1016 0.016-0.181 0.0267-0.2249 0.0115-0.0474 0.0243-0.084 0.0328-0.1063 0.0165-0.0432 0.0313-0.071 0.0342-0.0764 0.0063-0.0118 0.0027-0.0038-0.0217 0.0329l1.6641 1.1094c0.0395-0.0593 0.084-0.1293 0.1223-0.2011 0.0188-0.0354 0.0457-0.0887 0.0701-0.1529 0.0163-0.0427 0.0715-0.1889 0.0715-0.3807zm0.072-0.3747c-0.1067 0.16-0.1938 0.3306-0.2644 0.5073l1.8569 0.7428c0.0253-0.0633 0.0502-0.1087 0.0716-0.1407zm-0.2777 0.5424c-0.0909 0.2544-0.1183 0.5172-0.1183 0.7563h2c0-0.0452 0.0028-0.0742 5e-3 -0.0896 0.0022-0.0156 0.0031-0.0118-0.0032 0.0059zm-0.1183 0.7563c0 0.6528 0.2667 1.2381 0.8006 1.6464l1.2149-1.5888c-0.0125-0.0095-0.0166-0.0146-0.0162-0.0142 6e-4 7e-4 0.0027 0.0036 0.0046 0.0077 0.0019 0.0039 0.0013 0.0042 1e-4 -2e-3 -0.0014-0.0065-4e-3 -0.0221-4e-3 -0.0491zm0.8117 1.6547c0.4771 0.3544 1.0344 0.5093 1.6163 0.5093v-2c-0.218 0-0.3407-0.0531-0.4236-0.1147zm1.6163 0.5093c0.6509 0 1.2502-0.2097 1.75-0.6326l-1.2919-1.5268c-0.1242 0.1051-0.2609 0.1594-0.4581 0.1594zm1.7404-0.6246c0.5959-0.4916 0.8436-1.1815 0.8436-1.9114h-2c0 0.2621-0.0722 0.3322-0.1164 0.3686zm0.8436-1.9114c0-0.6546-0.2207-1.2507-0.6307-1.7572l-1.5545 1.2584c0.134 0.1655 0.1852 0.3214 0.1852 0.4988zm-0.6217-1.7458c-0.5502-0.7004-1.4324-0.8862-2.2503-0.8862v2c0.2842 0 0.4666 0.0344 0.5745 0.0715 0.1003 0.0345 0.1128 0.0625 0.1032 0.0503zm-2.2503-0.8862c-0.2905 0-0.5859 0.0223-0.8545 0.0929l0.509 1.9342c0.0355-0.0094 0.1401-0.0271 0.3455-0.0271zm-0.806 0.0815c-0.0709 0.0149-0.119 0.0242-0.1483 0.0293-0.0149 0.0026-0.0186 3e-3 -0.0144 0.0024 0.0023-3e-4 0.0104-0.0013 0.0227-0.0023 0.0064-6e-4 0.0153-0.0013 0.0262-0.0018 0.0106-5e-4 0.0256-0.0011 0.0438-0.0011v2c0.1161 0 0.2311-0.021 0.2644-0.0268 0.0626-0.0109 0.1366-0.0256 0.2176-0.0427zm-0.07 0.0265c0.1165 0 0.3827 0.0345 0.6051 0.2727 0.2102 0.2252 0.2269 0.4697 0.2269 0.5473h-2c0 0.1976 0.0448 0.5321 0.311 0.8173 0.2783 0.2982 0.6285 0.3627 0.857 0.3627zm0.832 0.82c0 0.062-0.0103 0.1635-0.0622 0.2801-0.0544 0.1224-0.1395 0.2272-0.2418 0.3039l-1.2-1.6c-0.3675 0.2756-0.496 0.676-0.496 1.016zm-0.29 0.5734c-0.0366 0.0284-0.0679 0.0477-0.089 0.0597-0.0216 0.0122-0.0382 0.02-0.0475 0.0241-0.0173 0.0077-0.0213 0.0079-0.0051 3e-3 0.0149-0.0045 0.0402-0.0114 0.0781-0.0199 0.0375-0.0084 0.0836-0.0177 0.1393-0.0275l-0.3476-1.9696c-0.1567 0.0277-0.3102 0.0608-0.4486 0.1026-0.1121 0.0339-0.3203 0.1032-0.5075 0.2488zm0.0834 0.038c0.8687-0.1602 1.7297-0.456 2.2399-1.0862l-1.5545-1.2584c-0.0339 0.0418-0.2688 0.234-1.0482 0.3778zm2.2382-1.0841c0.4116-0.5058 0.6444-1.1008 0.6444-1.7593h-2c0 0.1575-0.0472 0.3145-0.1955 0.4967zm0.6444-1.7593c0-0.6567-0.2223-1.287-0.759-1.7448l-1.2979 1.5216c0.0167 0.0143 0.0241 0.0251 0.0312 0.0422 0.0089 0.0215 0.0257 0.0754 0.0257 0.181zm-0.7463-1.7338c-0.4532-0.3999-1.004-0.6102-1.6097-0.6102v2c0.1143 0 0.1956 0.0297 0.2864 0.1098zm-1.6097-0.6102c-0.5509 0-1.0704 0.1703-1.5042 0.5318l1.2804 1.5364c0.0462-0.0385 0.1028-0.0682 0.2238-0.0682zm-1.5015 0.5296c-0.5015 0.415-0.7105 0.9925-0.7105 1.5864h2c0-0.0664 0.0108-0.085 0.0069-0.0757-0.0019 0.0043-0.0055 0.0113-0.0111 0.0187-0.0026 0.0035-5e-3 0.0063-0.0071 0.0084-2e-3 2e-3 -0.0031 3e-3 -0.0031 3e-3zm-0.7105 1.5864c0 0.265 0.0338 0.5474 0.1357 0.8191l1.8727-0.7022c0.0035 0.0093 0.0011 0.0063-2e-3 -0.014-0.0031-0.0202-0.0064-0.0537-0.0064-0.1029zm0.1658 0.8909c0.0666 0.1426 0.1365 0.2782 0.2105 0.405l1.7275-1.0078c-0.0381-0.0652-0.0801-0.1456-0.1256-0.243zm0.2306 0.438c0.0232 0.0364 0.0292 0.0478 0.0262 0.0422-9e-4 -0.0016-0.0135-0.0246-0.0285-0.0611-0.0076-0.0184-0.0213-0.0535-0.0343-0.1001-0.0105-0.0374-0.0358-0.1341-0.0358-0.2619h2c0-0.2194-0.0754-0.387-0.0805-0.3995-0.0221-0.0535-0.0452-0.098-0.06-0.1256-0.031-0.0576-0.067-0.1162-0.0998-0.1678zm-0.0724-0.3809c0-0.1256 0.0285-0.2837 0.1192-0.4412 0.0907-0.1576 0.2134-0.2619 0.3228-0.3252 0.1031-0.0597 0.1924-0.0825 0.2403-0.0917 0.0496-0.0096 0.0824-0.0099 0.0897-0.0099v2c0.1398 0 0.4076-0.0145 0.6721-0.1676 0.3476-0.2012 0.5559-0.5645 0.5559-0.9644zm0.772-0.868c-0.0997 0-0.1239-0.0227-0.1458-0.0438l-1.3883 1.4396c0.4261 0.4109 0.9619 0.6042 1.5341 0.6042zm-0.1329-0.0311c-0.0135-0.0135-0.0167-0.0208-0.0188-0.0263-0.0029-0.0074-0.0123-0.0347-0.0123-0.0946h-2c0 0.5721 0.1938 1.1119 0.6169 1.5351zm-0.0311-0.1209c0-0.1699 0.0426-0.2614 0.2128-0.3708l-1.0815-1.6824c-0.7259 0.4666-1.1313 1.1831-1.1313 2.0532zm0.2128-0.3708c0.2586-0.1663 0.6027-0.2732 1.0792-0.2732v-2c-0.7874 0-1.5234 0.1811-2.1607 0.5908zm1.0792-0.2732c0.3082 0 0.5994 0.0519 0.8792 0.1547l0.6896-1.8774c-0.5041-0.1852-1.029-0.2773-1.5688-0.2773zm0.8792 0.1547c0.2463 0.0905 0.4095 0.2114 0.5246 0.3495l1.5365-1.2804c-0.3649-0.4379-0.8338-0.749-1.3715-0.9465zm0.5442 0.3723c0.0742 0.0838 0.1206 0.1829 0.1206 0.357h2c0-0.6259-0.2016-1.2068-0.6234-1.683zm0.1206 0.357c0 0.2455-0.0675 0.415-0.1882 0.5598l1.5365 1.2804c0.4393-0.5272 0.6517-1.1577 0.6517-1.8402zm-0.1805 0.5507c-0.1444 0.1692-0.3835 0.3448-0.7786 0.493l0.7023 1.8726c0.6289-0.2358 1.1818-0.5802 1.5974-1.067zm-0.6514 2.4039c0.4312 0.0991 0.6696 0.2624 0.8104 0.432l1.5391-1.2772c-0.4833-0.5824-1.1488-0.9311-1.9017-1.104zm0.8104 0.432c0.158 0.1904 0.2375 0.4026 0.2375 0.6814h2c0-0.7292-0.2325-1.397-0.6984-1.9586zm0.2375 0.6814c0 0.413-0.1302 0.6339-0.3481 0.7991l1.2082 1.5938c0.7742-0.5868 1.1399-1.4299 1.1399-2.3929zm-0.3543 0.8039c-0.2592 0.1997-0.6831 0.3561-1.3817 0.3561v2c0.9815 0 1.8856-0.2196 2.6024-0.7719z" fill-opacity=".1" style="fill:#e6e6e6"/>
      </g>
    </g>
    <g transform="translate(9,9)">
      <path transform="translate(-179.53 -14.618)" d="m443.74 188.55-0.15552 100.98a1.9969 1.9969 45.044 0 0 1.9969 2h100.62a0.83139 0.83139 112.57 0 0 0.58937-1.4178l-101.63-102.15a0.82727 0.82727 157.62 0 0-1.4137 0.58221zm-224.51 159.5h324.75a2 2 45 0 1 2 2v110.32a2 2 135 0 1-2 2h-324.75a2 2 45 0 1-2-2v-110.32a2 2 135 0 1 2-2zm1e-5 -159.24h224.4a4.8284 4.8284 22.5 0 1 3.4142 1.4142l97.531 97.531a4.8284 4.8284 67.5 0 1 1.4142 3.4142v274.64a2 2 135 0 1-2 2h-324.75a2 2 45 0 1-2-2v-375a2 2 135 0 1 2-2z" style="fill:none;filter:url(#filter5);stroke-width:7;stroke:#87ded5"/>
      <g transform="translate(-179.53 -16.618)">
        <path d="m217.23 188.8h228.4l100.36 100.36v278.64h-328.75z" style="fill:none;stroke-width:5;stroke:#87ded5"/>
        <rect x="217.23" y="348.04" width="328.75" height="114.32" style="fill:none;stroke-width:5;stroke:#87ded5"/>
        <path d="m443.74 188.55-0.15552 100.98a1.9969 1.9969 45.044 0 0 1.9969 2h100.62a0.83139 0.83139 112.57 0 0 0.58937-1.4178l-101.63-102.15a0.82727 0.82727 157.62 0 0-1.4137 0.58221z" style="fill:none;stroke-width:5;stroke:#87ded5"/>
        <path d="m255.69 535.79h51.25" style="fill:none;stroke-width:5;stroke:#808080"/>
        <path d="m347.01 535.79h69.206" style="fill:none;stroke-width:5;stroke:#808080"/>
        <path d="m456.28 535.79h51.25" style="fill:none;stroke-width:5;stroke:#808080"/>
        <path d="m255.69 512.55h51.25" style="fill:none;stroke-width:5;stroke:#808080"/>
        <path d="m347.01 512.55h69.206" style="fill:none;stroke-width:5;stroke:#808080"/>
        <path d="m456.28 512.55h51.25" style="fill:none;stroke-width:5;stroke:#808080"/>
        <path d="m255.69 489.32h51.25" style="fill:none;stroke-width:5;stroke:#808080"/>
        <path d="m347.01 489.32h69.206" style="fill:none;stroke-width:5;stroke:#808080"/>
        <path d="m456.28 489.32h51.25" style="fill:none;stroke-width:5;stroke:#808080"/>
        <path d="m255.69 321.08h51.25" style="fill:none;stroke-width:5;stroke:#808080"/>
        <path d="m347.01 321.08h69.206" style="fill:none;stroke-width:5;stroke:#808080"/>
        <path d="m456.28 321.08h51.25" style="fill:none;stroke-width:5;stroke:#808080"/>
        <path d="m255.69 294.12h51.25" style="fill:none;stroke-width:5;stroke:#808080"/>
        <path d="m347.01 294.12h69.206" style="fill:none;stroke-width:5;stroke:#808080"/>
        <path d="m255.69 267.16h51.25" style="fill:none;stroke-width:5;stroke:#808080"/>
        <path d="m347.01 267.16h69.206" style="fill:none;stroke-width:5;stroke:#808080"/>
        <path d="m255.69 240.2h51.25" style="fill-opacity:0;stroke-width:5;stroke:#808080"/>
        <path d="m347.01 240.2h69.206" style="fill:none;stroke-width:5;stroke:#808080"/>
        <path d="m456.31 422.73q-1.7425 0.45066-3.6954 0.69101-1.9528 0.27039-4.777 0.27039-6.3092 0-9.4037-2.5537-3.0645-2.5537-3.0645-8.7427v-15.773h-4.4465v-7.3307h4.4465v-9.644h10.816v9.644h10.125v7.3307h-10.125v11.957q0 1.7726 0.03 3.0945t0.4807 2.3734q0.42061 1.0515 1.4721 1.6824 1.0816 0.60087 3.1245 0.60087 0.84123 0 2.1932-0.36052 1.382-0.36053 1.9228-0.66096h0.90131zm-27.46 0.30044h-12.618l-7.2105-10.095-7.3908 10.095h-12.378l13.309-16.855-13.099-16.885h12.618l7.0903 9.9144 7.1204-9.9144h12.408l-13.129 16.614zm-42.902-14.872h-24.756q0.24035 3.9658 3.0044 6.0688 2.7941 2.1031 8.2019 2.1031 3.425 0 6.6397-1.2318 3.2147-1.2318 5.0774-2.6438h1.2017v8.6826q-3.6653 1.4721-6.91 2.1331t-7.1804 0.66096q-10.155 0-15.563-4.5666-5.4079-4.5666-5.4079-13.009 0-8.3521 5.1074-13.219 5.1375-4.8971 14.06-4.8971 8.232 0 12.378 4.1761 4.146 4.146 4.146 11.957zm-10.756-6.3392q-0.0901-3.3949-1.6824-5.1074-1.5923-1.7125-4.9572-1.7125-3.1245 0-5.1375 1.6224t-2.2533 5.1976zm-28.812-14.872h-13.97v36.082h-11.537v-36.082h-13.97v-8.6526h39.477z" style="fill:#cccccc;stroke-width:4.2729"/>
      </g>
    </g>
    <path d="m1199.9 385.3c-1.0096 4.9338-1.9544 9.8676-2.9098 14.809-0.73-4.2087-1.4176-8.4099-2.2115-12.611-0.8161 3.6929-1.5994 7.3933-2.3188 11.094-1.0734-5.397-2.1584-10.795-3.2966-16.184-0.4081 4.4403-0.8161 8.8731-1.288 13.321-1.0521-4.2013-1.8247-8.4395-2.8024-12.648-0.4941 4.7022-0.9341 9.4036-1.4176 14.113-0.8481-3.7299-1.5027-7.4976-2.1903-11.236-0.9235 3.2142-1.7609 6.444-2.813 9.6434-0.9448-4.6349-1.61-9.2919-2.3401-13.934-0.5367 5.4118-1.0096 10.839-1.7716 16.244-0.6333-5.5464-1.1594-11.101-1.847-16.64-0.9554 4.9789-1.4389 10.002-2.3518 14.995-0.966-3.7455-1.6961-7.505-2.8672-11.213-0.5048 2.2723-1.5133 6.8176-2.0181 9.0973-0.9447-5.4273-1.525-10.884-2.0181-16.334-0.8693 7.1913-1.5781 14.39-2.3518 21.589-1.8364-9.3666-1.2455-18.861-2.8672-28.235-0.5802 7.6774-1.0415 15.37-2.1148 23.032-0.6015-4.5749-1.1701-9.1499-1.8034-13.71-0.6334 4.5372-1.0202 9.0825-1.4708 13.635-0.8375-3.9697-1.4815-7.9616-2.405-11.916-0.9766 3.7225-1.6961 7.4606-2.5229 11.205-1.1169-6.6904-1.17-13.448-1.8034-20.161-0.966 7.2135-1.5994 14.45-2.6844 21.656-0.9341-7.6922-1.7609-15.392-2.3731-23.091-0.5802 4.9708-1.1913 9.9423-1.9756 14.913-0.9766-3.1617-1.814-6.3463-2.4368-9.5457-0.8799 3.9319-2.051 7.8269-3.1244 11.737-0.2465-2.0481-0.7513-6.1295-1.0095-8.1783-0.6228 3.0048-1.2243 6.0104-1.8141 9.03-1.9001-8.4025-2.1148-16.924-2.5229-25.409-0.8055 7.9164-1.5462 15.833-2.1254 23.764-0.8481-6.4514-1.6536-12.903-2.491-19.346-1.5888 6.8776-1.9969 13.852-3.0925 20.774-0.3221-11.168-1.4283-22.314-3.2105-33.407-0.2466 8.9553-0.4081 17.919-1.0734 26.874-1.9543-8.148-1.4601-16.468-2.169-24.684-0.3539 8.6867-0.4081 17.373-0.7194 26.059-1.2987-7.4303-2.2009-14.891-3.4358-22.321-0.9448 5.4273-1.5888 10.869-2.2009 16.326-0.4081-8.9109-1.084-17.814-2.2115-26.687-0.3868 11.646-0.3433 23.301-0.7088 34.955-0.88-7.2209-1.847-14.428-3.5644-21.574-1.3422 7.909-1.5994 15.878-2.0935 23.824-0.4836-13.441-1.117-26.874-2.1797-40.3-0.526 12.918-0.2688 25.85-0.7726 38.775-3.1669-16.558 0.054-33.43-4.7025-49.868-0.2466 10.413-0.2689 20.827-0.8799 31.232-0.7407-14.929-1.2562-29.864-2.1255-44.793-0.6652 12.679-0.3974 25.371-0.9872 38.057-1.9214-13.404-2.9204-26.852-3.3933-40.315-0.44 10.428-0.2572 20.953-3.2742 31.225-0.8162-16.64 0.3007-33.302-1.0521-49.928-1.0957 18.673 0.4399 37.369-0.999 56.035-0.9989-11.191-1.0308-22.456-3.1244-33.586-0.526 9.7551-0.5366 19.533-1.5462 29.288-4.4124-19.092-0.8162-38.513-2.8991-57.725-1.2668 18.128 1.084 36.368-2.0936 54.42-0.322-4.1791-0.6546-8.3648-0.9766-12.536-0.3539 2.953-0.6982 5.9053-1.0202 8.8657-0.3114-2.0185-0.9341-6.0548-1.2349-8.0807-0.3974 2.4595-0.8268 4.8813-1.17 7.363-0.3646-4.4625-0.7089-8.9257-1.084-13.381-0.3114 9.4488-0.3975 18.905-0.8056 28.354-0.6227-8.2005-1.1913-16.408-2.3188-24.586-0.3762 8.9405-0.4612 17.881-0.6876 26.821-0.9766-1.6744-1.9437-3.3563-2.8991-5.0381-0.043 3.1321-0.086 6.2716-0.1179 9.4118-0.4942-1.0314-1.4921-3.0951-1.9863-4.1265-0.2465 4.6496-0.4729 9.2993-0.7513 13.964-0.3539-9.2098-0.5154-18.42-1.0733-27.621-0.7408 13.478 0.4729 27.031-1.8364 40.457-0.6982-1.1062-2.0936-3.3193-2.7918-4.4181-0.1073 1.428-0.3326 4.2908-0.4399 5.7188-0.7408-4.4477-1.3741-8.8879-2.2551-13.321-0.4836 3.6929-0.8375 7.3859-1.2243 11.086-0.6015-2.9227-1.1913-5.8461-1.7609-8.7688-0.5579 1.1587-1.1063 2.31-1.6536 3.4762-0.5686-5.8905-0.9554-11.781-1.9331-17.649-0.526 4.4625-1.0521 8.9183-1.6536 13.381-0.8268-4.9789-1.2136-9.9948-1.7822-14.988-0.1934 6.9449-0.4612 13.882-0.7513 20.827-0.4081-5.2031-0.7949-10.406-1.1913-15.609-0.3975 3.2216-0.7832 6.4366-1.1594 9.6656-0.1828-2.1532-0.4187-4.3877-0.5367-6.5113-1.2455 2.4521-2.4368 4.9264-3.8545 7.3408-0.3326-8.2531-0.4835-16.498-0.848-24.736-1.2136 8.1931-1.8247 16.416-2.2434 24.646-1.2455-7.3859-1.5463-14.824-1.7067-22.246-0.4188 1.0315-1.2562 3.1099-1.6749 4.1487-0.4506-6.4136-0.6015-12.85-1.8364-19.211-0.6121 8.4321-0.7088 16.872-1.0095 25.319-0.9023-6.4062-1.6855-12.812-2.4475-19.219-0.2572 5.4125-0.5579 10.824-0.8587 16.244-0.3326-6.4588-0.8374-12.903-1.1488-19.353-0.3974 6.7052-0.7407 13.418-1.203 20.131-0.3655-9.7033-0.408-19.413-0.9766-29.117-0.1615 3.3193-0.2465 6.623-0.3326 9.9497-0.7949-0.4336-1.5675-0.86718-2.3518-1.2934-0.1828 4.3211-0.3762 8.6489-0.6121 12.977-0.3975-7.4606-0.5803-14.92-1.0096-22.381-0.3975 8.2153-0.6015 16.423-1.084 24.639-0.3539-8.2079-0.526-16.408-0.999-24.609-0.2688 6.3389-0.5154 12.679-0.6333 19.025l-0.7949-0.0377c-0.1935-6.3389-0.4188-12.679-0.7726-19.017-0.2795 6.9597-0.6982 13.912-1.0415 20.871-0.2572-6.3389-0.5048-12.679-0.6015-19.025l-0.7949 0.037c-0.2041 6.3389-0.44 12.679-0.8056 19.017-0.36553-6.9523-0.53663-13.904-0.77256-20.856-0.87993 5.7262-1.4814 11.497-3.1892 17.148-0.63338-7.7218-0.99896-15.444-1.3741-23.166-0.36451 7.9615-0.63338 15.922-1.0733 23.876-0.42934-6.9597-0.65464-13.927-1.1169-20.886-0.36557 6.9597-0.52604 13.934-0.85867 20.901-0.37621-1.9364-0.73009-3.872-1.0734-5.801-0.23592 0.86719-0.46122 1.7344-0.68758 2.609-1.4708 0.13467-2.9204 0.27673-4.3806 0.404-0.0967 5.1506-0.18279 10.309-0.31138 15.467-0.87993-3.9097-1.7184-7.8269-2.5016-11.744-0.322 4.1635-0.65463 8.3352-0.99895 12.499-0.33263-7.1913-0.46122-14.39-0.79491-21.574-1.6961 10.892-1.8141 21.851-2.1584 32.794-0.53668-5.502-1.0521-10.996-1.6855-16.476-0.80555 4.717-1.2986 9.4562-1.9214 14.188-0.25718-10.451-0.39746-20.916-2.0181-31.322-0.35389 10.712-0.33263 21.424-1.0096 32.129-0.50479-11.953-0.2795-23.906-1.0627-35.852-3.2105 13.829-0.66526 27.92-1.9214 41.847-0.55793-3.229-1.0627-6.4662-1.5888-9.6804-0.74071 5.943-1.3528 11.886-1.8683 17.844-0.39745-11.452-0.75134-22.912-2.0404-34.335-0.47291 4.4706-0.89056 8.9331-1.3528 13.411-0.63338-16.177 0.34325-32.369-0.92351-48.537-0.51541 19.227-0.76196 38.46-2.2221 57.665-1.4283-2.9005-2.5983-5.8757-3.6823-8.8509 0.14985 3.9319 0.31138 7.8713 0.46122 11.811-1.1169-0.38106-2.2328-0.74732-3.3391-1.121-0.47291 2.5794-0.9235 5.158-1.406 7.7366l-1.8034-4.3433c-0.81617 3.1624-1.4602 6.3315-2.051 9.5235-0.61213-5.1876-1.1594-10.368-1.9214-15.541-0.29013 2.9678-0.87993 8.8953-1.1701 11.863-0.56855-7.1839-1.084-14.368-2.1903-21.514-0.3762 5.9201-0.644 11.848-1.0202 17.777-0.40808-5.741-0.68758-11.482-1.1275-17.216-2.3837 5.36-4.4666 10.779-6.5602 16.199-0.78322-1.0462-1.5569-2.0932-2.3295-3.1395-0.14984 1.0544-0.30075 2.108-0.45059 3.1698-1.0627-3.9245-2.0936-7.8343-3.2966-11.728-0.50479 2.4965-0.98833 4.9412-1.4496 7.4532-0.26886-3.454-0.48353-6.9146-0.70883-10.361-0.24655 1.2704-0.74071 3.7973-0.98833 5.0685-1.0415-2.7059-2.0287-5.4118-3.1031-8.1036-0.36558 2.0481-1.0957 6.1295-1.4602 8.1702-0.31137-2.0407-0.91287-6.1221-1.2136-8.1702-0.79491 3.9393-1.3635 7.8942-1.9862 11.848-0.65464-3.192-1.2986-6.3914-2.0075-9.576-0.34325 2.9678-1.0202 8.9183-1.3635 11.886-0.29012-4.9412-0.46122-9.8824-0.68758-14.816-1.0627 7.67-2.4368 15.332-3.4464 23.009-0.60149-5.1957-1.0957-10.391-1.9968-15.556-0.48354 4.6948-0.83742 9.3815-1.2455 14.084-0.61212-5.9726-1.0733-11.953-1.9968-17.903-0.5048 5.7188-0.84805 11.437-1.288 17.163-0.3762-7.7292-0.63338-15.459-1.5781-23.159-0.58025 5.2179-1.1169 10.451-1.61 15.683-0.48354-7.4303-0.74072-14.876-2.1148-22.254-0.39746 7.9016-0.58024 15.811-0.89162 23.711-0.97664-8.1702-1.7609-16.356-2.4156-24.542-0.33263 10.189-0.40808 20.377-0.94476 30.559-1.8789-11.901-1.4814-23.884-2.287-35.829-0.51542 9.8298-0.38683 19.668-0.36558 29.498-0.52604 0-1.5888 8e-3 -2.1148 8e-3 0.0531-10.092-0.0106-20.184-0.68758-30.261-0.644 12.409 0.30075 24.901-2.1361 37.242-0.56855-12.91-0.17216-25.835-1.1275-38.73-0.58025 12.439-0.17216 24.901-0.95539 37.347-2.1478-15.9-1.1488-31.875-2.1478-47.812-0.66526 15.937-0.70883 31.89-2.3401 47.797-0.43997-12.446-0.0755-24.901-0.97664-37.339-0.49417 9.5834-0.42934 19.174-0.39746 28.758h-2.1903c0.0531-13.822 0.36451-27.652-0.61213-41.466-0.61212 13.224-0.0648 26.463-1.2455 39.679-1.5675-7.6848-1.406-15.481-1.9331-23.211-0.31138 8.2457-0.6015 16.498-1.6961 24.713-1.5133-15.078-0.8268-30.193-0.83742-45.293l-1.203 8e-3c0.0861 12.566 0.25718 25.14-0.47291 37.706-2.7269-14.614-1.0202-29.386-2.1796-44.059-0.63338 12.207-0.35389 24.46-2.3401 36.607-0.85868-17.178 0.36558-34.386-0.97664-51.558-0.65463 17.178-0.81616 34.379-2.2328 51.543-0.43996-12.2-0.17216-24.414-0.9235-36.614-1.288 10.189-1.6323 20.423-2.2551 30.642-0.39745-10.682-0.39745-21.372-0.75134-32.054-0.9235 7.9238-1.7503 15.848-2.5016 23.786-0.46122-12.566-0.38683-25.125-0.29012-37.691l-1.1488 0.0222c-0.0648 11.781 0.86931 23.682-1.8141 35.373-0.73008-14.898 0.11797-29.819-0.79491-44.71-1.6642 11.415-1.7397 22.889-2.3518 34.349-0.5473-13.202-0.18279-26.411-0.94476-39.604-1.7822 19.279-1.7067 38.602-1.5462 57.911l-1.1701 8e-3c-0.51541-18.008 1.643-36.136-1.6642-54.062-1.1276 19.137 0.39745 38.296-1.0957 57.418-0.41872-10.974-0.11797-21.978-1.9214-32.899-1.1913 15.437-0.13921 30.911-1.2242 46.355-1.3103-21.663 0.36451-43.357-1.0202-65.013-3.3497 18.845-0.41871 37.877-2.2221 56.79-0.48354-11.961 0.0319-23.966-1.8034-35.882-1.8789 19.167 0.17216 38.394-1.4814 57.568-1.5781-27.27 1.2136-54.6-1.4708-81.84-0.90225 5.4569-1.0957 10.952-1.2349 16.438 0.27949 24.915 0.12859 49.823 0.20404 74.739l-1.17 8e-3c-0.21467-20.064 1.1063-40.173-1.6748-60.176-0.50479 11.706-0.68758 23.427-2.169 35.104-0.41872-5.9578-0.65464-11.93-1.0957-17.881-1.4708 14.144 2.1584 28.75-3.0925 42.617-0.43996-5.7336-0.71946-11.475-1.0415-17.208-0.2253 2.9375-0.46122 5.8831-0.67589 8.8287-0.65463-1.1587-1.2986-2.31-1.9543-3.4688-0.0106 2.407-0.0106 4.754 0 7.1765-0.6982-0.88198-1.3953-1.7566-2.0936-2.6312-0.33263 1.4798-0.98727 4.4403-1.321 5.9208-0.58024-2.1976-1.084-4.478-1.5888-6.6534-0.99896 2.3996-1.9968 4.8065-3.0064 7.2209-1.8034-0.49353-3.6079-0.98706-5.4114-1.465-1.4921 2.2205-3.0489 4.4181-4.7344 6.5786-1.1169-2.8857-2.2115-5.7558-3.3178-8.6341-0.40809-0.0674-1.2455-0.1946-1.6642-0.26192-3.3709 2.6459-7.1287 5.1054-9.5336 8.2753-0.92669 0.0747-2.4379 0.202-3.8045 0.31669 0.0956 0.27821 0.18279 0.55938 0.2593 0.84203h4.5973c0.26887 2.0259 0.80554 6.0777 1.0733 8.1036 2.2976-2.512 3.8003-5.3 5.3572-8.0585 1.5027 2.5786 3.0489 5.1432 4.6919 7.6774 0.69821-1.0618 2.0829-3.1846 2.7811-4.2457 0.59087 2.6238 1.17 5.263 1.7928 7.8942 0.59087-1.1365 1.1807-2.2575 1.7716-3.3785 0.17216 1.2556 0.52605 3.7677 0.70884 5.0233 0.61212-2.5194 1.1807-5.0455 1.9108-7.5502 1.525-1.4428 2.8778-3.0352 4.2307-4.5372 0.99896 2.8406 1.8034 5.9282 5.2934 7.8269 0.25718 0.99445 0.76197 2.99 1.0202 3.9919 0.67589-0.80725 1.3422-1.6145 2.0181-2.4218 0.16153 4.6497 0.30075 9.2919 0.49416 13.942 0.38683-4.2161 0.74072-8.4395 1.1382-12.648 0.322 2.9456 0.63338 5.8979 0.94475 8.8583 0.3762-2.0185 1.1382-6.0474 1.5144-8.0659 0.21467 7.3186 0.18279 14.637 0.23593 21.962l0.94475-8e-3c0.0542-8.8361 0.16154-17.679 0.65464-26.508 2.0075 18.965 0.68758 40.464 2.695 53.202 1.8683-8.3753 0.68758-21.275 1.6323-33.774 0.82679 13.448-0.5048 26.684 1.9756 35.677 1.492-11.539-0.14985-29.712 1.288-46.89 1.288 19.458-0.73008 38.419 1.3847 51.479 3.0596-12.688-0.22529-31.042 1.8895-49.976 1.2242 29.879-0.5473 51.904 0.89055 71.974 4.1552-19.171-0.21467-39.635 2.2764-68.244 2.0181 26.336-2.0723 46.035 2.2763 63.659 1.0521-16.534-0.66526-33.818 0.95538-58.427 1.1063 19.279-0.30075 34.722 0.89162 47.671 0.95538 9.7962 0.16153 19.612 1.2774 29.414 1.3847-23.258-0.7726-44.71 1.0957-79.32 0.99895 17.283-0.26887 32.775 0.84805 44.383 1.0627 10.63 0.0861 21.284 1.1913 31.919 1.5027-20.406-0.64401-37.7 1.1382-68.072 2.1478 31.367 0.81616 49.002 2.0936 70.08 1.3741-19.562-0.41871-34.199 0.94476-63.323 3.9724 23.046 0.0106 35.742 2.373 51.272 1.203-17.564-0.51542-34.139 0.87993-60.28 3.2742 33.586 0.41871 52.763 2.2434 75.343 1.525-21.259-0.71946-37.787 1.1807-69.43 3.6186 18.068-0.0425 30.115 2.0404 42.316 1.17-12.056-0.322-23.636 1.1382-41.577 1.7822 5.7862 1.4921 13.278 1.61 17.234-0.0648 10.122-0.59087 20.25 0.47291 30.367 1.4708-12.949-0.91287-23.382 1.5675-42.623 0.87993 3.7973 1.2668 8.8766 1.8683 11.452 0.35388-3.1683 0.67589-9.434 1.084-14.136 1.847 12.289 1.3741 21.211 1.2986 29.495h1.0734c-0.2253-12.975 0.73008-31.103 1.814-50.397 0.40809 9.9497 0.37621 19.907 1.0308 29.857 0.30075-8.9782 0.31138-17.978 1.8364-26.911 1.2349 14.443 0.22529 29.963 1.406 39.664 0.67589-9.1934 0.0755-23.696 0.93413-37.376 0.59087 7.9238 0.69821 15.893 2.3518 23.771 0.33263-9.6804 0.35388-19.362 0.84805-29.027 0.97663 8.9331 1.6961 17.874 2.0075 26.829 0.73009-5.9053 1.3954-11.811 2.3837-17.702 0.36451 4.1709 0.70883 8.35 1.0627 12.528 0.6015-6.683 0.99896-13.366 2.1478-20.011 0.39745 6.6608 0.65463 13.336 1.0946 20.004 0.41871-5.9578 0.63338-11.93 1.0415-17.881 0.38683 4.4477 0.69821 8.9035 1.084 13.359 0.70884-5.6589 1.3635-11.325 1.9214-16.999 0.75134 3.9245 1.492 7.8639 2.2976 11.796 0.3762-4.2235 0.69821-8.4469 1.0627-12.656 0.322 1.9364 0.65463 3.8794 0.96601 5.8306 0.71946-3.4466 1.3954-6.8776 2.169-10.316 0.48354 7.7218 0.76197 15.444 1.288 23.166 1.4283-7.6774 1.61-15.421 2.1148-23.144 0.322 5.4569 0.61213 10.914 0.9235 16.378 0.56856-5.5768 1.1276-11.145 1.8895-16.7 1.1063 8.5217 1.0202 17.096 1.2242 25.648 0.67589-7.6922 1.3103-15.384 2.2976-23.054 0.33263 5.1876 0.67589 10.383 1.0096 15.586 0.71946-4.2013 1.321-8.3951 2.1903-12.573 0.43996 6.683 0.6982 13.373 1.0733 20.064 0.5473-5.9726 1.0946-11.945 1.9543-17.896 0.5473 5.7262 1.0202 11.452 1.5569 17.186 1.4708-5.9053 1.4389-11.923 1.9108-17.888 0.63338 4.2013 1.2668 8.4025 2.0936 12.588 0.45059-5.943 0.71946-11.901 1.0521-17.844 0.74072 4.4477 1.2774 8.9183 2.2434 13.351 0.50479-6.1894 0.67589-12.402 1.0415-18.591 0.5473 6.7126 0.79492 13.455 2.1148 20.124 0.62276-7.4532 0.71946-14.92 1.1063-22.374 0.62275 9.4562 1.3316 18.905 2.3082 28.346 0.35388-7.2135 0.53667-14.435 0.96601-21.641 1.0957 8.4469 1.7397 16.909 2.2115 25.386 0.31138-8.9479 0.39746-17.911 1.7503-26.807 0.55793 5.4347 1.0096 10.877 1.4814 16.326 0.46122-7.6774 0.53667-15.392 2.1584-23.009 0.27949 5.9127 0.6015 11.834 0.80554 17.754 0.5473-5.3 1.17-10.6 1.847-15.885 0.64401 3.5361 1.0521 7.0796 1.5781 10.637 0.74071-2.1754 1.4602-4.4107 2.2221-6.5557 0.26887 2.9301 0.53667 5.8757 0.80554 8.8206 0.3762-1.286 1.1275-3.8498 1.4921-5.1358 1.4177 3.9245 2.8024 7.8639 4.1977 11.803 0.94476-5.9127 1.5675-11.848 2.051-17.791 0.33263 3.2068 0.6015 6.3988 0.91287 9.6204 0.62275-4.7022 1.1913-9.3962 1.965-14.069 0.48353 4.2013 0.96601 8.4099 1.4283 12.626 0.8693-5.1728 1.5675-10.354 2.2445-15.534 0.55793 11.677 1.5027 23.345 2.8343 34.992 0.94476 11.691 0.55793 23.413 1.3954 35.111-0.41871-17.283 1.8576-34.454 5.1425-51.558 0.45059 2.4743 0.81617 4.8961 1.2561 7.3859 0.35389-3.9467 0.73009-7.8942 1.1063-11.841 0.42934 9.4414 0.98727 18.883 2.0936 28.302 0.40808-10.189 0.46122-20.378 0.90224-30.567 3.6504 15.055 3.9937 30.328 4.4666 45.555 0.48353-8.9701 0.67589-17.978 2.9097-26.844 0.43996 5.1876 0.81617 10.376 1.17 15.571 0.55793-5.943 1.17-11.871 2.1148-17.784 0.63338 9.1795 0.78429 18.367 1.2136 27.554 1.2668-10.174 1.8035-20.386 2.3518-30.589 0.35388 10.944 0.34326 21.895 0.91287 32.847 0.53668-6.3241 0.89056-12.656 1.6536-18.965 0.73009 4.5453 1.0957 9.1047 1.6642 13.672 0.79491-3.9319 1.5356-7.8639 2.3188-11.788 0.19341 11.43 0.11796 22.867 0.89162 34.289 0.74071-14.457 0.0755-28.922 0.95538-43.379 1.643 5.36 2.4368 10.817 3.3072 16.259 0.32201-1.2186 0.98728-3.6478 1.3104-4.8665 0.2252 2.1976 0.6652 6.5934 0.8799 8.791 0.4187-6.9597 0.8374-13.912 1.5994-20.856 0.5685 3.9393 1.0733 7.8942 1.5781 11.848 0.3008-2.9604 0.9023-8.8879 1.2136-11.848 0.322 6.2042 0.5367 12.409 0.8587 18.621 0.762-9.2172 1.9543-18.404 3.3816-27.584 1.1275 6.683 1.729 13.396 2.8449 20.078 1.9214-6.3537 3.1892-12.775 3.5112-19.264 0.7195 3.1247 1.4389 6.2642 2.1584 9.3962 0.6121-5.1506 1.0202-10.294 1.9437-15.414 0.4612 4.4403 0.8693 8.8879 1.3422 13.344 0.3326-5.7188 0.6015-11.43 0.9766-17.134 0.3869 4.4625 0.7301 8.9331 1.1276 13.411 0.8916-2.9153 1.6536-5.8609 2.3837-8.791 0.848 7.9016 1.3634 15.811 2.0074 23.72 0.3114-9.4636 0.3008-18.943 1.5357-28.377 0.3432 2.9826 1.052 8.933 1.3953 11.908 1.6536-5.2327 3.1892-10.495 5.5506-15.601 1.084 3.1772 2.1254 6.3537 3.1669 9.5457 0.6876-2.9079 1.3528-5.8158 2.1148-8.7089 0.8587 2.6238 1.5781 5.2475 2.3188 7.9016 0.086-1.0018 0.2795-3.0048 0.3656-4.0067 1.0202 0.73253 2.0287 1.4724 3.049 2.2205 0.6758-2.2952 1.3422-4.6349 2.0616-6.9146 1.0627 5.9201 1.4283 11.871 2.0511 17.821 0.3539-5.9578 0.6334-11.923 1.0839-17.866 0.3762 9.9349 0.3327 19.877 0.8481 29.82 1.1382-6.2042 1.9214-12.439 3.1892-18.621 2.0617 11.646 1.5781 23.398 2.2115 35.104 0.5261-9.9571 0.4612-19.952 2.169-29.857 2.9416 18.09 0.8056 36.323 1.9437 54.473 3.0065-16.095 1.0203-32.346 2.3837-48.508 0.7514 11.564 1.1382 23.144 2.8024 34.67 0.8481-6.04 0.9554-12.118 1.321-18.172 0.3326 1.2704 0.9872 3.8202 1.3103 5.0906 0.4293-2.168 0.6876-4.4706 1.1488-6.586 0.3433 3.4466 0.6334 6.885 0.9766 10.354 0.4294-5.7484 0.8481-11.489 1.439-17.223 1.4282 10.952 1.1806 21.962 1.6854 32.944 0.4081-7.9542 0.6759-15.915 1.0415-23.861 0.8799 7.6848 1.8364 15.384 3.4145 23.024 0.2795-15.182 0.8587-30.372 3.2965-45.473 0.3869 13.194 0.075 26.395 0.8587 39.582 0.7407-8.2605-0.7949-17.021 4.1871-24.766 0.4506 5.2475 0.8587 10.503 1.2243 15.758 1.5569-10.406 1.5994-20.878 2.2115-31.322 0.3762 9.4562 0.4293 18.92 0.7301 28.377 0.4506-1.9586 0.9022-3.9097 1.3422-5.8609 0.3326 2.0111 0.9766 6.04 1.2986 8.0511 0.4836-15.421-0.1615-30.851 0.7514-46.265 0.7407 11.213 1.0946 22.456 3.2105 33.602 0.6758-8.6867 0.6333-17.395 0.9553-26.081 0.6334 6.9072 1.1382 13.845 2.3625 20.721 1.1381-10.653 1.5781-21.335 2.1796-32.002 1.3953 10.196 1.61 20.43 2.287 30.656 0.9341-5.9504 1.492-11.938 2.1902-17.896 1.3635 9.6582 1.9969 19.362 3.1138 29.042 0.6546-15.16-0.4506-30.38 2.0075-45.48 0.6121 12.678 0.3432 25.371 1.0946 38.057 0.2688-6.6756 0.4506-13.344 0.6015-20.019 0.4729 1.0315 1.407 3.0796 1.8788 4.1036 0.2795-3.394 0.5473-6.7954 0.8587-10.181 0.8268 4.1561 1.4921 8.3204 2.2115 12.491 0.4294-5.6811 0.8375-11.362 1.5888-17.021 0.5048 5.2179 0.999 10.436 1.4708 15.661 1.4283-7.9312 2.5665-15.878 3.2966-23.854 0.3538 9.434 0.7407 18.883 1.9862 28.286 0.8799-8.9256 1.5781-17.866 2.2869-26.799 0.558 7.2209 0.9129 14.465 2.1361 21.649 0.6876-8.7089 1.2986-17.418 2.1796-26.119 0.4729 8.1628 0.644 16.349 1.9969 24.474 0.6015-4.9486 1.1807-9.8972 1.9968-14.831 1.0957 3.4236 1.9214 6.885 2.491 10.376 0.5473-4.2013 1.0415-8.3951 1.8789-12.566 0.8693 4.9412 1.5675 9.8972 2.2551 14.861 0.6547-4.6719 1.3103-9.3289 2.169-13.971 0.4942 3.431 0.999 6.8546 1.5675 10.301 1.3635-5.1876 2.3189-10.42 3.1892-15.653 0.5367 4.4551 0.9767 8.9035 1.439 13.366 1.3528-2.3626 2.5771-4.7769 3.8438-7.1617 0.3645 2.4521 0.6653 4.8065 1.1169 7.2882 1.084-5.4946 2.1797-10.981 3.0277-16.498 0.1828 7.266 0.4506 14.525 0.9873 21.783 1.7173-4.9412 2.3837-10.024 3.4783-15.04 0.7513 2.1902 1.4814 4.3507 2.2763 6.5557 0.6876-4.4255 1.1488-8.8657 1.6961-13.291 0.644 5.704 1.288 11.407 2.0617 17.103 0.6334-4.717 1.203-9.4414 1.9331-14.151 0.7194 2.953 1.3953 5.9127 2.1041 8.8731 0.795-1.9512 1.6217-3.8949 2.4592-5.8306 0.9553 2.646 1.7067 5.3074 2.5016 7.9838 1.0627-4.6045 2.0404-9.2172 2.9958-13.829 0.4835 3.4687 0.9129 6.9294 1.4177 10.413 1.3847-3.9171 2.0404-7.946 2.9203-11.93 0.4612 4.4107 0.9235 8.8361 1.5569 13.246 0.9448-2.6541 1.7397-5.3378 2.5441-8.0059 0.7301 3.1846 1.439 6.3766 2.3731 9.5383 0.8693-3.6707 1.3847-7.3933 2.0617-11.071 1.1063 7.6249 1.0106-17.469 0.6557-18.748z" style="fill:#87ded5"/>
  </g>
</svg>
